<svg xmlns="http://www.w3.org/2000/svg" xmlns:xlink="http://www.w3.org/1999/xlink" xmlns:lucid="lucid" width="842" height="502"><g transform="translate(-478.9988991719138 -198.99999997345245)" lucid:page-tab-id="0_0"><path d="M0 0h1500v1000H0z" fill="#fff"/><path d="M840 206a6 6 0 0 1 6-6h148a6 6 0 0 1 6 6v48a6 6 0 0 1-6 6H846a6 6 0 0 1-6-6z" stroke="#282c33" stroke-width="2" fill="#fff"/><use xlink:href="#a" transform="matrix(1,0,0,1,852,212) translate(34.69753086419753 22.27777777777778)"/><path d="M840 326a6 6 0 0 1 6-6h148a6 6 0 0 1 6 6v48a6 6 0 0 1-6 6H846a6 6 0 0 1-6-6z" stroke="#282c33" stroke-width="2" fill="#fff"/><use xlink:href="#b" transform="matrix(1,0,0,1,852,332) translate(26.086419753086417 22.27777777777778)"/><path d="M840 646a6 6 0 0 1 6-6h148a6 6 0 0 1 6 6v48a6 6 0 0 1-6 6H846a6 6 0 0 1-6-6z" stroke="#282c33" stroke-width="2" fill="#fff"/><use xlink:href="#c" transform="matrix(1,0,0,1,852,652) translate(15.654320987654316 22.27777777777778)"/><path d="M600 440c22.1 0 40 17.9 40 40s-17.9 40-40 40h-80c-22.1 0-40-17.9-40-40s17.9-40 40-40z" stroke="#282c33" stroke-width="2" fill="#fff"/><use xlink:href="#d" transform="matrix(1,0,0,1,485,445) translate(42.9320987654321 39.65277777777778)"/><use xlink:href="#e" transform="matrix(1,0,0,1,485,445) translate(94.72222222222223 39.65277777777778)"/><path d="M800 440c22.1 0 40 17.9 40 40s-17.9 40-40 40h-80c-22.1 0-40-17.9-40-40s17.9-40 40-40z" stroke="#282c33" stroke-width="2" fill="#fff"/><use xlink:href="#d" transform="matrix(1,0,0,1,685,445) translate(42.9320987654321 39.65277777777778)"/><use xlink:href="#f" transform="matrix(1,0,0,1,685,445) translate(94.72222222222223 39.65277777777778)"/><path d="M1000 435.5c22.1 0 40 17.9 40 40s-17.9 40-40 40h-80c-22.1 0-40-17.9-40-40s17.9-40 40-40z" stroke="#282c33" stroke-width="2" fill="#fff"/><use xlink:href="#d" transform="matrix(1,0,0,1,885,440.503937007874) translate(42.9320987654321 39.65277777777778)"/><use xlink:href="#g" transform="matrix(1,0,0,1,885,440.503937007874) translate(94.72222222222223 39.65277777777778)"/><path d="M1280 440c22.1 0 40 17.9 40 40s-17.9 40-40 40h-80c-22.1 0-40-17.9-40-40s17.9-40 40-40z" stroke="#282c33" stroke-width="2" fill="#fff"/><use xlink:href="#d" transform="matrix(1,0,0,1,1165,445) translate(42.9320987654321 39.65277777777778)"/><use xlink:href="#h" transform="matrix(1,0,0,1,1165,445) translate(94.72222222222223 39.65277777777778)"/><path d="M920 261.5v41.12" stroke="#3a414a" fill="none"/><path d="M920.48 261.5h-.96v-.5h.96z" stroke="#3a414a" stroke-width=".05" fill="#3a414a"/><path d="M920 317.38l-4.63-14.26h9.26z" stroke="#3a414a" fill="#3a414a"/><path d="M919.5 381.08l-343.33 55.3" stroke="#3a414a" fill="none"/><path d="M919.57 381.55l-.1-.55H923z" stroke="#3a414a" stroke-width=".05" fill="#3a414a"/><path d="M561.6 438.74l13.34-6.84 1.48 9.15z" stroke="#3a414a" fill="#3a414a"/><path d="M919.53 381.17L775.4 433.42" stroke="#3a414a" fill="none"/><path d="M919.68 381.62l-.22-.62h1.93z" stroke="#3a414a" stroke-width=".05" fill="#3a414a"/><path d="M761.52 438.45l11.83-9.22 3.16 8.7z" stroke="#3a414a" fill="#3a414a"/><path d="M920.3 381.4l29.9 39.98" stroke="#3a414a" fill="none"/><path d="M920.7 381.13l-.77.56-.52-.7h1.2z" stroke="#3a414a" stroke-width=".05" fill="#3a414a"/><path d="M959.03 433.2l-12.25-8.64 7.42-5.55z" stroke="#3a414a" fill="#3a414a"/><path d="M920.5 381.1l303.38 54.98" stroke="#3a414a" fill="none"/><path d="M920.42 381.56l-3.08-.56h3.18z" stroke="#3a414a" stroke-width=".05" fill="#3a414a"/><path d="M1238.4 438.7l-14.86 2.03 1.66-9.12z" stroke="#3a414a" fill="#3a414a"/><path d="M1040 441.5a6 6 0 0 1 6-6h96.62a6 6 0 0 1 6 6v59a6 6 0 0 1-6 6H1046a6 6 0 0 1-6-6z" stroke="#000" stroke-opacity="0" stroke-width="2" fill="#fff" fill-opacity="0"/><use xlink:href="#i" transform="matrix(1,0,0,1,1045,440.503937007874) translate(40.24074074074074 37.15277777777778)"/><path d="M920.48 381.15l158.2 49.46" stroke="#3a414a" fill="none"/><path d="M920.35 381.6l-1.94-.6h2.14z" stroke="#3a414a" stroke-width=".05" fill="#3a414a"/><path d="M1092.77 435.02l-15 .17 2.76-8.86z" stroke="#3a414a" fill="#3a414a"/><path d="M1239.54 521.2L991.58 632.3" stroke="#3a414a" fill="none"/><path d="M1239.73 521.64l-.3-.64h1.73z" stroke="#3a414a" stroke-width=".05" fill="#3a414a"/><path d="M978.1 638.34l11.13-10.07 3.8 8.47z" stroke="#3a414a" fill="#3a414a"/><path d="M951.47 517l-21.8 105.95" stroke="#3a414a" fill="none"/><path d="M951.93 517.1l-.93-.2.08-.4h.97z" stroke="#3a414a" stroke-width=".05" fill="#3a414a"/><path d="M926.7 637.4l-1.67-14.9 9.1 1.88z" stroke="#3a414a" fill="#3a414a"/><path d="M1093.96 506.87L973.4 627.4" stroke="#3a414a" fill="none"/><path d="M1094.28 507.2l-.67-.66.04-.03h1.34z" stroke="#3a414a" stroke-width=".05" fill="#3a414a"/><path d="M962.97 637.86l6.8-13.37 6.56 6.55z" stroke="#3a414a" fill="#3a414a"/><path d="M760.38 521.33l125.26 107.03" stroke="#3a414a" fill="none"/><path d="M760.08 521.7l-.8-.7h1.4z" stroke="#3a414a" stroke-width=".05" fill="#3a414a"/><path d="M896.87 637.95L883 632.2l6.03-7.04z" stroke="#3a414a" fill="#3a414a"/><path d="M560.47 521.17l300.86 112.1" stroke="#3a414a" fill="none"/><path d="M560.32 521.62l-1.68-.62h1.9z" stroke="#3a414a" stroke-width=".05" fill="#3a414a"/><path d="M875.17 638.43l-15-.63 3.25-8.7z" stroke="#3a414a" fill="#3a414a"/><defs><path fill="#3a414a" d="M115-194c55 1 70 41 70 98S169 2 115 4C84 4 66-9 55-30l1 105H24l-1-265h31l2 30c10-21 28-34 59-34zm-8 174c40 0 45-34 45-75s-6-73-45-74c-42 0-51 32-51 76 0 43 10 73 51 73" id="j"/><path fill="#3a414a" d="M24 0v-261h32V0H24" id="k"/><path fill="#3a414a" d="M141-36C126-15 110 5 73 4 37 3 15-17 15-53c-1-64 63-63 125-63 3-35-9-54-41-54-24 1-41 7-42 31l-33-3c5-37 33-52 76-52 45 0 72 20 72 64v82c-1 20 7 32 28 27v20c-31 9-61-2-59-35zM48-53c0 20 12 33 32 33 41-3 63-29 60-74-43 2-92-5-92 41" id="l"/><path fill="#3a414a" d="M117-194c89-4 53 116 60 194h-32v-121c0-31-8-49-39-48C34-167 62-67 57 0H25l-1-190h30c1 10-1 24 2 32 11-22 29-35 61-36" id="m"/><path fill="#3a414a" d="M100-194c63 0 86 42 84 106H49c0 40 14 67 53 68 26 1 43-12 49-29l28 8c-11 28-37 45-77 45C44 4 14-33 15-96c1-61 26-98 85-98zm52 81c6-60-76-77-97-28-3 7-6 17-6 28h103" id="n"/><g id="a"><use transform="matrix(0.06172839506172839,0,0,0.06172839506172839,0,0)" xlink:href="#j"/><use transform="matrix(0.06172839506172839,0,0,0.06172839506172839,12.345679012345679,0)" xlink:href="#k"/><use transform="matrix(0.06172839506172839,0,0,0.06172839506172839,17.22222222222222,0)" xlink:href="#l"/><use transform="matrix(0.06172839506172839,0,0,0.06172839506172839,29.5679012345679,0)" xlink:href="#m"/><use transform="matrix(0.06172839506172839,0,0,0.06172839506172839,41.913580246913575,0)" xlink:href="#n"/><use transform="matrix(0.06172839506172839,0,0,0.06172839506172839,54.25925925925925,0)" xlink:href="#m"/></g><path fill="#3a414a" d="M84 4C-5 8 30-112 23-190h32v120c0 31 7 50 39 49 72-2 45-101 50-169h31l1 190h-30c-1-10 1-25-2-33-11 22-28 36-60 37" id="o"/><path fill="#3a414a" d="M101-234c-31-9-42 10-38 44h38v23H63V0H32v-167H5v-23h27c-7-52 17-82 69-68v24" id="p"/><path fill="#3a414a" d="M59-47c-2 24 18 29 38 22v24C64 9 27 4 27-40v-127H5v-23h24l9-43h21v43h35v23H59v120" id="q"/><path fill="#3a414a" d="M24-231v-30h32v30H24zM24 0v-190h32V0H24" id="r"/><g id="b"><use transform="matrix(0.06172839506172839,0,0,0.06172839506172839,0,0)" xlink:href="#l"/><use transform="matrix(0.06172839506172839,0,0,0.06172839506172839,12.345679012345679,0)" xlink:href="#o"/><use transform="matrix(0.06172839506172839,0,0,0.06172839506172839,24.691358024691358,0)" xlink:href="#p"/><use transform="matrix(0.06172839506172839,0,0,0.06172839506172839,30.864197530864196,0)" xlink:href="#q"/><use transform="matrix(0.06172839506172839,0,0,0.06172839506172839,37.03703703703704,0)" xlink:href="#n"/><use transform="matrix(0.06172839506172839,0,0,0.06172839506172839,49.382716049382715,0)" xlink:href="#r"/><use transform="matrix(0.06172839506172839,0,0,0.06172839506172839,54.25925925925926,0)" xlink:href="#k"/><use transform="matrix(0.06172839506172839,0,0,0.06172839506172839,59.135802469135804,0)" xlink:href="#n"/><use transform="matrix(0.06172839506172839,0,0,0.06172839506172839,71.48148148148148,0)" xlink:href="#m"/></g><path fill="#3a414a" d="M177-190C167-65 218 103 67 71c-23-6-38-20-44-43l32-5c15 47 100 32 89-28v-30C133-14 115 1 83 1 29 1 15-40 15-95c0-56 16-97 71-98 29-1 48 16 59 35 1-10 0-23 2-32h30zM94-22c36 0 50-32 50-73 0-42-14-75-50-75-39 0-46 34-46 75s6 73 46 73" id="s"/><path fill="#3a414a" d="M114-163C36-179 61-72 57 0H25l-1-190h30c1 12-1 29 2 39 6-27 23-49 58-41v29" id="t"/><g id="c"><use transform="matrix(0.06172839506172839,0,0,0.06172839506172839,0,0)" xlink:href="#r"/><use transform="matrix(0.06172839506172839,0,0,0.06172839506172839,4.876543209876543,0)" xlink:href="#m"/><use transform="matrix(0.06172839506172839,0,0,0.06172839506172839,17.22222222222222,0)" xlink:href="#q"/><use transform="matrix(0.06172839506172839,0,0,0.06172839506172839,23.39506172839506,0)" xlink:href="#n"/><use transform="matrix(0.06172839506172839,0,0,0.06172839506172839,35.74074074074074,0)" xlink:href="#s"/><use transform="matrix(0.06172839506172839,0,0,0.06172839506172839,48.08641975308642,0)" xlink:href="#t"/><use transform="matrix(0.06172839506172839,0,0,0.06172839506172839,55.432098765432094,0)" xlink:href="#r"/><use transform="matrix(0.06172839506172839,0,0,0.06172839506172839,60.30864197530864,0)" xlink:href="#n"/><use transform="matrix(0.06172839506172839,0,0,0.06172839506172839,72.65432098765432,0)" xlink:href="#t"/><use transform="matrix(0.06172839506172839,0,0,0.06172839506172839,80,0)" xlink:href="#n"/><use transform="matrix(0.06172839506172839,0,0,0.06172839506172839,92.34567901234568,0)" xlink:href="#m"/></g><path fill="#3a414a" d="M127-220V0H93v-220H8v-28h204v28h-85" id="u"/><path fill="#3a414a" d="M135-143c-3-34-86-38-87 0 15 53 115 12 119 90S17 21 10-45l28-5c4 36 97 45 98 0-10-56-113-15-118-90-4-57 82-63 122-42 12 7 21 19 24 35" id="v"/><path fill="#3a414a" d="M143 0L79-87 56-68V0H24v-261h32v163l83-92h37l-77 82L181 0h-38" id="w"/><g id="d"><use transform="matrix(0.06172839506172839,0,0,0.06172839506172839,0,0)" xlink:href="#u"/><use transform="matrix(0.06172839506172839,0,0,0.06172839506172839,11.049382716049381,0)" xlink:href="#l"/><use transform="matrix(0.06172839506172839,0,0,0.06172839506172839,23.39506172839506,0)" xlink:href="#v"/><use transform="matrix(0.06172839506172839,0,0,0.06172839506172839,34.50617283950617,0)" xlink:href="#w"/></g><path fill="#3a414a" d="M27 0v-27h64v-190l-56 39v-29l58-41h29v221h61V0H27" id="x"/><use transform="matrix(0.06172839506172839,0,0,0.06172839506172839,0,0)" xlink:href="#x" id="e"/><path fill="#3a414a" d="M101-251c82-7 93 87 43 132L82-64C71-53 59-42 53-27h129V0H18c2-99 128-94 128-182 0-28-16-43-45-43s-46 15-49 41l-32-3c6-41 34-60 81-64" id="y"/><use transform="matrix(0.06172839506172839,0,0,0.06172839506172839,0,0)" xlink:href="#y" id="f"/><path fill="#3a414a" d="M126-127c33 6 58 20 58 59 0 88-139 92-164 29-3-8-5-16-6-25l32-3c6 27 21 44 54 44 32 0 52-15 52-46 0-38-36-46-79-43v-28c39 1 72-4 72-42 0-27-17-43-46-43-28 0-47 15-49 41l-32-3c6-42 35-63 81-64 48-1 79 21 79 65 0 36-21 52-52 59" id="z"/><use transform="matrix(0.06172839506172839,0,0,0.06172839506172839,0,0)" xlink:href="#z" id="g"/><use transform="matrix(0.06172839506172839,0,0,0.06172839506172839,0,0)" xlink:href="#m" id="h"/><path fill="#3a414a" d="M33 0v-38h34V0H33" id="A"/><g id="i"><use transform="matrix(0.06172839506172839,0,0,0.06172839506172839,0,0)" xlink:href="#A"/><use transform="matrix(0.06172839506172839,0,0,0.06172839506172839,6.172839506172839,0)" xlink:href="#A"/><use transform="matrix(0.06172839506172839,0,0,0.06172839506172839,12.345679012345679,0)" xlink:href="#A"/></g></defs></g></svg>