<svg xmlns="http://www.w3.org/2000/svg" xmlns:xlink="http://www.w3.org/1999/xlink" xmlns:lucid="lucid" width="480" height="640"><g transform="translate(-480 -380)" lucid:page-tab-id="0_0"><path d="M0 0h1000v1500H0z" fill="#fff"/><path d="M480 386a6 6 0 0 1 6-6h468a6 6 0 0 1 6 6v628a6 6 0 0 1-6 6H486a6 6 0 0 1-6-6z" stroke="#000" stroke-opacity="0" stroke-width="2" fill="#fff"/><path d="M560 426a6 6 0 0 1 6-6h308a6 6 0 0 1 6 6v88a6 6 0 0 1-6 6H566a6 6 0 0 1-6-6z" stroke="#282c33" stroke-width="2" fill="#fff"/><use xlink:href="#a" transform="matrix(1,0,0,1,565,425) translate(126.69753086419753 48.71527777777778)"/><path d="M560 586a6 6 0 0 1 6-6h308a6 6 0 0 1 6 6v88a6 6 0 0 1-6 6H566a6 6 0 0 1-6-6z" stroke="#282c33" stroke-width="2" fill="#fff"/><use xlink:href="#b" transform="matrix(1,0,0,1,565,585) translate(69.93827160493828 48.71527777777778)"/><use xlink:href="#c" transform="matrix(1,0,0,1,565,585) translate(184.5679012345679 48.71527777777778)"/><path d="M560 746a6 6 0 0 1 6-6h308a6 6 0 0 1 6 6v88a6 6 0 0 1-6 6H566a6 6 0 0 1-6-6z" stroke="#282c33" stroke-width="2" fill="#fff"/><use xlink:href="#d" transform="matrix(1,0,0,1,565,745) translate(85.98765432098766 48.71527777777778)"/><use xlink:href="#c" transform="matrix(1,0,0,1,565,745) translate(168.51851851851853 48.71527777777778)"/><path d="M560 906a6 6 0 0 1 6-6h308a6 6 0 0 1 6 6v88a6 6 0 0 1-6 6H566a6 6 0 0 1-6-6z" stroke="#282c33" stroke-width="2" fill="#fff"/><use xlink:href="#e" transform="matrix(1,0,0,1,565,905) translate(58.827160493827165 48.71527777777778)"/><use xlink:href="#c" transform="matrix(1,0,0,1,565,905) translate(195.679012345679 48.71527777777778)"/><path d="M637.33 521.5v41.12" stroke="#3a414a" fill="none"/><path d="M637.8 521.5h-.94v-.5h.95z" stroke="#3a414a" stroke-width=".05" fill="#3a414a"/><path d="M637.33 577.38l-4.63-14.26h9.27z" stroke="#3a414a" fill="#3a414a"/><path d="M637.33 681.5v41.12" stroke="#3a414a" fill="none"/><path d="M637.8 681.5h-.94v-.5h.95z" stroke="#3a414a" stroke-width=".05" fill="#3a414a"/><path d="M637.33 737.38l-4.63-14.26h9.27z" stroke="#3a414a" fill="#3a414a"/><path d="M640 841.5v41.12" stroke="#3a414a" fill="none"/><path d="M640.48 841.5h-.96v-.5h.96z" stroke="#3a414a" stroke-width=".05" fill="#3a414a"/><path d="M640 897.38l-4.63-14.26h9.26z" stroke="#3a414a" fill="#3a414a"/><path d="M798.67 898.5v-41.12" stroke="#3a414a" fill="none"/><path d="M799.14 899h-.95v-.5h.94z" stroke="#3a414a" stroke-width=".05" fill="#3a414a"/><path d="M798.67 842.62l4.63 14.26h-9.27z" stroke="#3a414a" fill="#3a414a"/><path d="M800 738.5v-41.12" stroke="#3a414a" fill="none"/><path d="M800.48 739h-.96v-.5h.96z" stroke="#3a414a" stroke-width=".05" fill="#3a414a"/><path d="M800 682.62l4.63 14.26h-9.26z" stroke="#3a414a" fill="#3a414a"/><path d="M794.67 578.5v-41.12" stroke="#3a414a" fill="none"/><path d="M795.14 579h-.95v-.5h.94z" stroke="#3a414a" stroke-width=".05" fill="#3a414a"/><path d="M794.67 522.62l4.63 14.26h-9.27z" stroke="#3a414a" fill="#3a414a"/><path d="M882 458.67c0 .27-.22.5-.5.5s-.5-.23-.5-.5c0-.28.22-.5.5-.5s.5.22.5.5zm4.2 0c0 .27-.24.5-.5.5-.3 0-.5-.23-.5-.5 0-.28.2-.5.5-.5.26 0 .5.22.5.5zm4.17 0c0 .27-.22.5-.5.5-.27 0-.5-.23-.5-.5 0-.28.23-.5.5-.5.28 0 .5.22.5.5zm4.2 0c0 .27-.23.5-.5.5-.28 0-.5-.23-.5-.5 0-.28.22-.5.5-.5.27 0 .5.22.5.5zm4.18 0c0 .27-.22.5-.5.5s-.5-.23-.5-.5c0-.28.22-.5.5-.5s.5.22.5.5zm4.2 0c0 .27-.24.5-.5.5-.3 0-.5-.23-.5-.5 0-.28.2-.5.5-.5.26 0 .5.22.5.5zm4.17 0c0 .27-.22.5-.5.5-.27 0-.5-.23-.5-.5 0-.28.23-.5.5-.5.28 0 .5.22.5.5zm4.2 0c0 .27-.23.5-.5.5-.28 0-.5-.23-.5-.5 0-.28.22-.5.5-.5.27 0 .5.22.5.5zm4.18 0c0 .27-.22.5-.5.5s-.5-.23-.5-.5c0-.28.22-.5.5-.5s.5.22.5.5zm4.24 1.75c0 .28-.22.5-.5.5-.27 0-.5-.22-.5-.5 0-.27.23-.5.5-.5.28 0 .5.23.5.5zm1.76 4.25c0 .27-.22.5-.5.5s-.5-.23-.5-.5c0-.28.22-.5.5-.5s.5.22.5.5zm0 4c0 .27-.22.5-.5.5s-.5-.23-.5-.5c0-.28.22-.5.5-.5s.5.22.5.5zm0 4c0 .27-.22.5-.5.5s-.5-.23-.5-.5c0-.28.22-.5.5-.5s.5.22.5.5zm0 4c0 .27-.22.5-.5.5s-.5-.23-.5-.5c0-.28.22-.5.5-.5s.5.22.5.5zm0 4c0 .27-.22.5-.5.5s-.5-.23-.5-.5c0-.28.22-.5.5-.5s.5.22.5.5zm0 4c0 .27-.22.5-.5.5s-.5-.23-.5-.5c0-.28.22-.5.5-.5s.5.22.5.5zm0 4c0 .27-.22.5-.5.5s-.5-.23-.5-.5c0-.28.22-.5.5-.5s.5.22.5.5zm0 4c0 .27-.22.5-.5.5s-.5-.23-.5-.5c0-.28.22-.5.5-.5s.5.22.5.5zm0 4c0 .27-.22.5-.5.5s-.5-.23-.5-.5c0-.28.22-.5.5-.5s.5.22.5.5zm0 4c0 .27-.22.5-.5.5s-.5-.23-.5-.5c0-.28.22-.5.5-.5s.5.22.5.5zm0 4c0 .27-.22.5-.5.5s-.5-.23-.5-.5c0-.28.22-.5.5-.5s.5.22.5.5zm0 4c0 .27-.22.5-.5.5s-.5-.23-.5-.5c0-.28.22-.5.5-.5s.5.22.5.5zm0 4c0 .27-.22.5-.5.5s-.5-.23-.5-.5c0-.28.22-.5.5-.5s.5.22.5.5zm0 4c0 .27-.22.5-.5.5s-.5-.23-.5-.5c0-.28.22-.5.5-.5s.5.22.5.5zm0 4c0 .27-.22.5-.5.5s-.5-.23-.5-.5c0-.28.22-.5.5-.5s.5.22.5.5zm0 4c0 .27-.22.5-.5.5s-.5-.23-.5-.5c0-.28.22-.5.5-.5s.5.22.5.5zm0 4c0 .27-.22.5-.5.5s-.5-.23-.5-.5c0-.28.22-.5.5-.5s.5.22.5.5zm0 4c0 .27-.22.5-.5.5s-.5-.23-.5-.5c0-.28.22-.5.5-.5s.5.22.5.5zm0 4c0 .27-.22.5-.5.5s-.5-.23-.5-.5c0-.28.22-.5.5-.5s.5.22.5.5zm0 4c0 .27-.22.5-.5.5s-.5-.23-.5-.5c0-.28.22-.5.5-.5s.5.22.5.5zm0 4c0 .27-.22.5-.5.5s-.5-.23-.5-.5c0-.28.22-.5.5-.5s.5.22.5.5zm0 4c0 .27-.22.5-.5.5s-.5-.23-.5-.5c0-.28.22-.5.5-.5s.5.22.5.5zm0 4c0 .27-.22.5-.5.5s-.5-.23-.5-.5c0-.28.22-.5.5-.5s.5.22.5.5zm0 4c0 .27-.22.5-.5.5s-.5-.23-.5-.5c0-.28.22-.5.5-.5s.5.22.5.5zm0 4c0 .27-.22.5-.5.5s-.5-.23-.5-.5c0-.28.22-.5.5-.5s.5.22.5.5zm0 4c0 .27-.22.5-.5.5s-.5-.23-.5-.5c0-.28.22-.5.5-.5s.5.22.5.5zm0 4c0 .27-.22.5-.5.5s-.5-.23-.5-.5c0-.28.22-.5.5-.5s.5.22.5.5zm0 4c0 .27-.22.5-.5.5s-.5-.23-.5-.5c0-.28.22-.5.5-.5s.5.22.5.5zm0 4c0 .27-.22.5-.5.5s-.5-.23-.5-.5c0-.28.22-.5.5-.5s.5.22.5.5zm0 4c0 .27-.22.5-.5.5s-.5-.23-.5-.5c0-.28.22-.5.5-.5s.5.22.5.5zm0 4c0 .27-.22.5-.5.5s-.5-.23-.5-.5c0-.28.22-.5.5-.5s.5.22.5.5zm0 4c0 .27-.22.5-.5.5s-.5-.23-.5-.5c0-.28.22-.5.5-.5s.5.22.5.5zm0 4c0 .27-.22.5-.5.5s-.5-.23-.5-.5c0-.28.22-.5.5-.5s.5.22.5.5zm0 4c0 .27-.22.5-.5.5s-.5-.23-.5-.5c0-.28.22-.5.5-.5s.5.22.5.5zm0 4c0 .27-.22.5-.5.5s-.5-.23-.5-.5c0-.28.22-.5.5-.5s.5.22.5.5zm0 4c0 .27-.22.5-.5.5s-.5-.23-.5-.5c0-.28.22-.5.5-.5s.5.22.5.5zm0 4c0 .27-.22.5-.5.5s-.5-.23-.5-.5c0-.28.22-.5.5-.5s.5.22.5.5zm0 4c0 .27-.22.5-.5.5s-.5-.23-.5-.5c0-.28.22-.5.5-.5s.5.22.5.5zm0 4c0 .27-.22.5-.5.5s-.5-.23-.5-.5c0-.28.22-.5.5-.5s.5.22.5.5zm0 4c0 .27-.22.5-.5.5s-.5-.23-.5-.5c0-.28.22-.5.5-.5s.5.22.5.5zm0 4c0 .27-.22.5-.5.5s-.5-.23-.5-.5c0-.28.22-.5.5-.5s.5.22.5.5zm0 4c0 .27-.22.5-.5.5s-.5-.23-.5-.5c0-.28.22-.5.5-.5s.5.22.5.5zm0 4c0 .27-.22.5-.5.5s-.5-.23-.5-.5c0-.28.22-.5.5-.5s.5.22.5.5zm0 4c0 .27-.22.5-.5.5s-.5-.23-.5-.5c0-.28.22-.5.5-.5s.5.22.5.5zm0 4c0 .27-.22.5-.5.5s-.5-.23-.5-.5c0-.28.22-.5.5-.5s.5.22.5.5zm0 4c0 .27-.22.5-.5.5s-.5-.23-.5-.5c0-.28.22-.5.5-.5s.5.22.5.5zm0 4c0 .27-.22.5-.5.5s-.5-.23-.5-.5c0-.28.22-.5.5-.5s.5.22.5.5zm0 4c0 .27-.22.5-.5.5s-.5-.23-.5-.5c0-.28.22-.5.5-.5s.5.22.5.5zm0 4c0 .27-.22.5-.5.5s-.5-.23-.5-.5c0-.28.22-.5.5-.5s.5.22.5.5zm0 4c0 .27-.22.5-.5.5s-.5-.23-.5-.5c0-.28.22-.5.5-.5s.5.22.5.5zm0 4c0 .27-.22.5-.5.5s-.5-.23-.5-.5c0-.28.22-.5.5-.5s.5.22.5.5zm0 4c0 .27-.22.5-.5.5s-.5-.23-.5-.5c0-.28.22-.5.5-.5s.5.22.5.5zm0 4c0 .27-.22.5-.5.5s-.5-.23-.5-.5c0-.28.22-.5.5-.5s.5.22.5.5zm0 4c0 .27-.22.5-.5.5s-.5-.23-.5-.5c0-.28.22-.5.5-.5s.5.22.5.5zm0 4c0 .27-.22.5-.5.5s-.5-.23-.5-.5c0-.28.22-.5.5-.5s.5.22.5.5zm0 4c0 .27-.22.5-.5.5s-.5-.23-.5-.5c0-.28.22-.5.5-.5s.5.22.5.5zm0 4c0 .27-.22.5-.5.5s-.5-.23-.5-.5c0-.28.22-.5.5-.5s.5.22.5.5zm0 4c0 .27-.22.5-.5.5s-.5-.23-.5-.5c0-.28.22-.5.5-.5s.5.22.5.5zm0 4c0 .27-.22.5-.5.5s-.5-.23-.5-.5c0-.28.22-.5.5-.5s.5.22.5.5zm0 4c0 .27-.22.5-.5.5s-.5-.23-.5-.5c0-.28.22-.5.5-.5s.5.22.5.5zm0 4c0 .27-.22.5-.5.5s-.5-.23-.5-.5c0-.28.22-.5.5-.5s.5.22.5.5zm0 4c0 .27-.22.5-.5.5s-.5-.23-.5-.5c0-.28.22-.5.5-.5s.5.22.5.5zm0 4c0 .27-.22.5-.5.5s-.5-.23-.5-.5c0-.28.22-.5.5-.5s.5.22.5.5zm0 4c0 .27-.22.5-.5.5s-.5-.23-.5-.5c0-.28.22-.5.5-.5s.5.22.5.5zm0 4c0 .27-.22.5-.5.5s-.5-.23-.5-.5c0-.28.22-.5.5-.5s.5.22.5.5zm0 4c0 .27-.22.5-.5.5s-.5-.23-.5-.5c0-.28.22-.5.5-.5s.5.22.5.5zm0 4c0 .27-.22.5-.5.5s-.5-.23-.5-.5c0-.28.22-.5.5-.5s.5.22.5.5zm0 4c0 .27-.22.5-.5.5s-.5-.23-.5-.5c0-.28.22-.5.5-.5s.5.22.5.5zm0 4c0 .27-.22.5-.5.5s-.5-.23-.5-.5c0-.28.22-.5.5-.5s.5.22.5.5zm0 4c0 .27-.22.5-.5.5s-.5-.23-.5-.5c0-.28.22-.5.5-.5s.5.22.5.5zm0 4c0 .27-.22.5-.5.5s-.5-.23-.5-.5c0-.28.22-.5.5-.5s.5.22.5.5zm0 4c0 .27-.22.5-.5.5s-.5-.23-.5-.5c0-.28.22-.5.5-.5s.5.22.5.5zm0 4c0 .27-.22.5-.5.5s-.5-.23-.5-.5c0-.28.22-.5.5-.5s.5.22.5.5zm0 4c0 .27-.22.5-.5.5s-.5-.23-.5-.5c0-.28.22-.5.5-.5s.5.22.5.5zm0 4c0 .27-.22.5-.5.5s-.5-.23-.5-.5c0-.28.22-.5.5-.5s.5.22.5.5zm0 4c0 .27-.22.5-.5.5s-.5-.23-.5-.5c0-.28.22-.5.5-.5s.5.22.5.5zm0 4c0 .27-.22.5-.5.5s-.5-.23-.5-.5c0-.28.22-.5.5-.5s.5.22.5.5zm0 4c0 .27-.22.5-.5.5s-.5-.23-.5-.5c0-.28.22-.5.5-.5s.5.22.5.5zm0 4c0 .27-.22.5-.5.5s-.5-.23-.5-.5c0-.28.22-.5.5-.5s.5.22.5.5zm0 4c0 .27-.22.5-.5.5s-.5-.23-.5-.5c0-.28.22-.5.5-.5s.5.22.5.5zm0 4c0 .27-.22.5-.5.5s-.5-.23-.5-.5c0-.28.22-.5.5-.5s.5.22.5.5zm0 4c0 .27-.22.5-.5.5s-.5-.23-.5-.5c0-.28.22-.5.5-.5s.5.22.5.5zm0 4c0 .27-.22.5-.5.5s-.5-.23-.5-.5c0-.28.22-.5.5-.5s.5.22.5.5zm0 4c0 .27-.22.5-.5.5s-.5-.23-.5-.5c0-.28.22-.5.5-.5s.5.22.5.5zm0 4c0 .27-.22.5-.5.5s-.5-.23-.5-.5c0-.28.22-.5.5-.5s.5.22.5.5zm0 4c0 .27-.22.5-.5.5s-.5-.23-.5-.5c0-.28.22-.5.5-.5s.5.22.5.5zm0 4c0 .27-.22.5-.5.5s-.5-.23-.5-.5c0-.28.22-.5.5-.5s.5.22.5.5zm0 4c0 .27-.22.5-.5.5s-.5-.23-.5-.5c0-.28.22-.5.5-.5s.5.22.5.5zm0 4c0 .27-.22.5-.5.5s-.5-.23-.5-.5c0-.28.22-.5.5-.5s.5.22.5.5zm0 4c0 .27-.22.5-.5.5s-.5-.23-.5-.5c0-.28.22-.5.5-.5s.5.22.5.5zm0 4c0 .27-.22.5-.5.5s-.5-.23-.5-.5c0-.28.22-.5.5-.5s.5.22.5.5zm0 4c0 .27-.22.5-.5.5s-.5-.23-.5-.5c0-.28.22-.5.5-.5s.5.22.5.5zm0 4c0 .27-.22.5-.5.5s-.5-.23-.5-.5c0-.28.22-.5.5-.5s.5.22.5.5zm0 4c0 .27-.22.5-.5.5s-.5-.23-.5-.5c0-.28.22-.5.5-.5s.5.22.5.5zm0 4c0 .27-.22.5-.5.5s-.5-.23-.5-.5c0-.28.22-.5.5-.5s.5.22.5.5zm0 4c0 .27-.22.5-.5.5s-.5-.23-.5-.5c0-.28.22-.5.5-.5s.5.22.5.5zm0 4c0 .27-.22.5-.5.5s-.5-.23-.5-.5c0-.28.22-.5.5-.5s.5.22.5.5zm0 4c0 .27-.22.5-.5.5s-.5-.23-.5-.5c0-.28.22-.5.5-.5s.5.22.5.5zm0 4c0 .27-.22.5-.5.5s-.5-.23-.5-.5c0-.28.22-.5.5-.5s.5.22.5.5zm0 4c0 .27-.22.5-.5.5s-.5-.23-.5-.5c0-.28.22-.5.5-.5s.5.22.5.5zm0 4c0 .27-.22.5-.5.5s-.5-.23-.5-.5c0-.28.22-.5.5-.5s.5.22.5.5zm0 4c0 .27-.22.5-.5.5s-.5-.23-.5-.5c0-.28.22-.5.5-.5s.5.22.5.5zm0 4c0 .27-.22.5-.5.5s-.5-.23-.5-.5c0-.28.22-.5.5-.5s.5.22.5.5zm0 4c0 .27-.22.5-.5.5s-.5-.23-.5-.5c0-.28.22-.5.5-.5s.5.22.5.5zm0 4c0 .27-.22.5-.5.5s-.5-.23-.5-.5c0-.28.22-.5.5-.5s.5.22.5.5zm0 4c0 .27-.22.5-.5.5s-.5-.23-.5-.5c0-.28.22-.5.5-.5s.5.22.5.5zm0 4c0 .27-.22.5-.5.5s-.5-.23-.5-.5c0-.28.22-.5.5-.5s.5.22.5.5zm0 4c0 .27-.22.5-.5.5s-.5-.23-.5-.5c0-.28.22-.5.5-.5s.5.22.5.5zm0 4c0 .27-.22.5-.5.5s-.5-.23-.5-.5c0-.28.22-.5.5-.5s.5.22.5.5zm0 4c0 .27-.22.5-.5.5s-.5-.23-.5-.5c0-.28.22-.5.5-.5s.5.22.5.5zm0 4c0 .27-.22.5-.5.5s-.5-.23-.5-.5c0-.28.22-.5.5-.5s.5.22.5.5zm0 4c0 .27-.22.5-.5.5s-.5-.23-.5-.5c0-.28.22-.5.5-.5s.5.22.5.5zm0 4c0 .27-.22.5-.5.5s-.5-.23-.5-.5c0-.28.22-.5.5-.5s.5.22.5.5zm0 4c0 .27-.22.5-.5.5s-.5-.23-.5-.5c0-.28.22-.5.5-.5s.5.22.5.5zm0 4c0 .27-.22.5-.5.5s-.5-.23-.5-.5c0-.28.22-.5.5-.5s.5.22.5.5zm0 4c0 .27-.22.5-.5.5s-.5-.23-.5-.5c0-.28.22-.5.5-.5s.5.22.5.5zm0 4c0 .27-.22.5-.5.5s-.5-.23-.5-.5c0-.28.22-.5.5-.5s.5.22.5.5zm0 4c0 .27-.22.5-.5.5s-.5-.23-.5-.5c0-.28.22-.5.5-.5s.5.22.5.5zm-1.76 4.24c0 .28-.22.5-.5.5-.27 0-.5-.22-.5-.5 0-.27.23-.5.5-.5.28 0 .5.23.5.5zm-4.24 1.77c0 .27-.22.5-.5.5s-.5-.23-.5-.5c0-.28.22-.5.5-.5s.5.22.5.5zm-4.4 0c0 .27-.23.5-.5.5-.28 0-.5-.23-.5-.5 0-.28.22-.5.5-.5.27 0 .5.22.5.5zm-4.4 0c0 .27-.23.5-.5.5-.28 0-.5-.23-.5-.5 0-.28.22-.5.5-.5.27 0 .5.22.5.5zm-4.4 0c0 .27-.24.5-.5.5-.3 0-.5-.23-.5-.5 0-.28.2-.5.5-.5.26 0 .5.22.5.5zm-4.42 0c0 .27-.22.5-.5.5-.27 0-.5-.23-.5-.5 0-.28.23-.5.5-.5.28 0 .5.22.5.5z" fill="#3a414a"/><path d="M881.5 459.14h-.5v-.95h.5z" stroke="#3a414a" stroke-width=".05" fill="#3a414a"/><path d="M882.62 938.67l14.26-4.64v9.27z" stroke="#3a414a" fill="#3a414a"/><path d="M897.88 790c0 .28-.22.5-.5.5-.27 0-.5-.22-.5-.5s.23-.5.5-.5c.28 0 .5.22.5.5zm3.86 0c0 .28-.23.5-.5.5-.28 0-.5-.22-.5-.5s.22-.5.5-.5c.27 0 .5.22.5.5zm3.85 0c0 .28-.24.5-.5.5-.3 0-.5-.22-.5-.5s.2-.5.5-.5c.26 0 .5.22.5.5zm3.84 0c0 .28-.22.5-.5.5-.27 0-.5-.22-.5-.5s.23-.5.5-.5c.28 0 .5.22.5.5zm3.85 0c0 .28-.23.5-.5.5-.28 0-.5-.22-.5-.5s.22-.5.5-.5c.27 0 .5.22.5.5zm3.85 0c0 .28-.23.5-.5.5-.28 0-.5-.22-.5-.5s.22-.5.5-.5c.27 0 .5.22.5.5z" fill="#3a414a"/><path d="M882.62 790l14.26-4.63v9.26z" stroke="#3a414a" fill="#3a414a"/><path d="M920.5 790h.5" stroke="#3a414a" fill="none"/><path d="M559 630c0 .28-.22.5-.5.5s-.5-.22-.5-.5.22-.5.5-.5.5.22.5.5zm-4.2 0c0 .28-.2.5-.5.5-.26 0-.5-.22-.5-.5s.24-.5.5-.5c.3 0 .5.22.5.5zm-4.17 0c0 .28-.23.5-.5.5-.28 0-.5-.22-.5-.5s.22-.5.5-.5c.27 0 .5.22.5.5zm-4.2 0c0 .28-.22.5-.5.5-.27 0-.5-.22-.5-.5s.23-.5.5-.5c.28 0 .5.22.5.5zm-4.18 0c0 .28-.22.5-.5.5s-.5-.22-.5-.5.22-.5.5-.5.5.22.5.5zm-4.2 0c0 .28-.2.5-.5.5-.26 0-.5-.22-.5-.5s.24-.5.5-.5c.3 0 .5.22.5.5zm-4.17 0c0 .28-.23.5-.5.5-.28 0-.5-.22-.5-.5s.22-.5.5-.5c.27 0 .5.22.5.5zm-4.2 0c0 .28-.22.5-.5.5-.27 0-.5-.22-.5-.5s.23-.5.5-.5c.28 0 .5.22.5.5zm-4.18 0c0 .28-.22.5-.5.5s-.5-.22-.5-.5.22-.5.5-.5.5.22.5.5zm-4.24 1.76c0 .27-.23.5-.5.5-.28 0-.5-.23-.5-.5 0-.28.22-.5.5-.5.27 0 .5.22.5.5zM519.5 636c0 .28-.22.5-.5.5s-.5-.22-.5-.5.22-.5.5-.5.5.22.5.5zm0 4c0 .28-.22.5-.5.5s-.5-.22-.5-.5.22-.5.5-.5.5.22.5.5zm0 4c0 .28-.22.5-.5.5s-.5-.22-.5-.5.22-.5.5-.5.5.22.5.5zm0 4c0 .28-.22.5-.5.5s-.5-.22-.5-.5.22-.5.5-.5.5.22.5.5zm0 4c0 .28-.22.5-.5.5s-.5-.22-.5-.5.22-.5.5-.5.5.22.5.5zm0 4c0 .28-.22.5-.5.5s-.5-.22-.5-.5.22-.5.5-.5.5.22.5.5zm0 4c0 .28-.22.5-.5.5s-.5-.22-.5-.5.22-.5.5-.5.5.22.5.5zm0 4c0 .28-.22.5-.5.5s-.5-.22-.5-.5.22-.5.5-.5.5.22.5.5zm0 4c0 .28-.22.5-.5.5s-.5-.22-.5-.5.22-.5.5-.5.5.22.5.5zm0 4c0 .28-.22.5-.5.5s-.5-.22-.5-.5.22-.5.5-.5.5.22.5.5zm0 4c0 .28-.22.5-.5.5s-.5-.22-.5-.5.22-.5.5-.5.5.22.5.5zm0 4c0 .28-.22.5-.5.5s-.5-.22-.5-.5.22-.5.5-.5.5.22.5.5zm0 4c0 .28-.22.5-.5.5s-.5-.22-.5-.5.22-.5.5-.5.5.22.5.5zm0 4c0 .28-.22.5-.5.5s-.5-.22-.5-.5.22-.5.5-.5.5.22.5.5zm0 4c0 .28-.22.5-.5.5s-.5-.22-.5-.5.22-.5.5-.5.5.22.5.5zm0 4c0 .28-.22.5-.5.5s-.5-.22-.5-.5.22-.5.5-.5.5.22.5.5zm0 4c0 .28-.22.5-.5.5s-.5-.22-.5-.5.22-.5.5-.5.5.22.5.5zm0 4c0 .28-.22.5-.5.5s-.5-.22-.5-.5.22-.5.5-.5.5.22.5.5zm0 4c0 .28-.22.5-.5.5s-.5-.22-.5-.5.22-.5.5-.5.5.22.5.5zm0 4c0 .28-.22.5-.5.5s-.5-.22-.5-.5.22-.5.5-.5.5.22.5.5zm0 4c0 .28-.22.5-.5.5s-.5-.22-.5-.5.22-.5.5-.5.5.22.5.5zm0 4c0 .28-.22.5-.5.5s-.5-.22-.5-.5.22-.5.5-.5.5.22.5.5zm0 4c0 .28-.22.5-.5.5s-.5-.22-.5-.5.22-.5.5-.5.5.22.5.5zm0 4c0 .28-.22.5-.5.5s-.5-.22-.5-.5.22-.5.5-.5.5.22.5.5zm0 4c0 .28-.22.5-.5.5s-.5-.22-.5-.5.22-.5.5-.5.5.22.5.5zm0 4c0 .28-.22.5-.5.5s-.5-.22-.5-.5.22-.5.5-.5.5.22.5.5zm0 4c0 .28-.22.5-.5.5s-.5-.22-.5-.5.22-.5.5-.5.5.22.5.5zm0 4c0 .28-.22.5-.5.5s-.5-.22-.5-.5.22-.5.5-.5.5.22.5.5zm0 4c0 .28-.22.5-.5.5s-.5-.22-.5-.5.22-.5.5-.5.5.22.5.5zm0 4c0 .28-.22.5-.5.5s-.5-.22-.5-.5.22-.5.5-.5.5.22.5.5zm0 4c0 .28-.22.5-.5.5s-.5-.22-.5-.5.22-.5.5-.5.5.22.5.5zm0 4c0 .28-.22.5-.5.5s-.5-.22-.5-.5.22-.5.5-.5.5.22.5.5zm0 4c0 .28-.22.5-.5.5s-.5-.22-.5-.5.22-.5.5-.5.5.22.5.5zm0 4c0 .28-.22.5-.5.5s-.5-.22-.5-.5.22-.5.5-.5.5.22.5.5zm0 4c0 .28-.22.5-.5.5s-.5-.22-.5-.5.22-.5.5-.5.5.22.5.5zm0 4c0 .28-.22.5-.5.5s-.5-.22-.5-.5.22-.5.5-.5.5.22.5.5zm0 4c0 .28-.22.5-.5.5s-.5-.22-.5-.5.22-.5.5-.5.5.22.5.5zm0 4c0 .28-.22.5-.5.5s-.5-.22-.5-.5.22-.5.5-.5.5.22.5.5zm0 4c0 .28-.22.5-.5.5s-.5-.22-.5-.5.22-.5.5-.5.5.22.5.5zm0 4c0 .28-.22.5-.5.5s-.5-.22-.5-.5.22-.5.5-.5.5.22.5.5zm0 4c0 .28-.22.5-.5.5s-.5-.22-.5-.5.22-.5.5-.5.5.22.5.5zm0 4c0 .28-.22.5-.5.5s-.5-.22-.5-.5.22-.5.5-.5.5.22.5.5zm0 4c0 .28-.22.5-.5.5s-.5-.22-.5-.5.22-.5.5-.5.5.22.5.5zm0 4c0 .28-.22.5-.5.5s-.5-.22-.5-.5.22-.5.5-.5.5.22.5.5zm0 4c0 .28-.22.5-.5.5s-.5-.22-.5-.5.22-.5.5-.5.5.22.5.5zm0 4c0 .28-.22.5-.5.5s-.5-.22-.5-.5.22-.5.5-.5.5.22.5.5zm0 4c0 .28-.22.5-.5.5s-.5-.22-.5-.5.22-.5.5-.5.5.22.5.5zm0 4c0 .28-.22.5-.5.5s-.5-.22-.5-.5.22-.5.5-.5.5.22.5.5zm0 4c0 .28-.22.5-.5.5s-.5-.22-.5-.5.22-.5.5-.5.5.22.5.5zm0 4c0 .28-.22.5-.5.5s-.5-.22-.5-.5.22-.5.5-.5.5.22.5.5zm0 4c0 .28-.22.5-.5.5s-.5-.22-.5-.5.22-.5.5-.5.5.22.5.5zm0 4c0 .28-.22.5-.5.5s-.5-.22-.5-.5.22-.5.5-.5.5.22.5.5zm0 4c0 .28-.22.5-.5.5s-.5-.22-.5-.5.22-.5.5-.5.5.22.5.5zm0 4c0 .28-.22.5-.5.5s-.5-.22-.5-.5.22-.5.5-.5.5.22.5.5zm0 4c0 .28-.22.5-.5.5s-.5-.22-.5-.5.22-.5.5-.5.5.22.5.5zm0 4c0 .28-.22.5-.5.5s-.5-.22-.5-.5.22-.5.5-.5.5.22.5.5zm0 4c0 .28-.22.5-.5.5s-.5-.22-.5-.5.22-.5.5-.5.5.22.5.5zm0 4c0 .28-.22.5-.5.5s-.5-.22-.5-.5.22-.5.5-.5.5.22.5.5zm0 4c0 .28-.22.5-.5.5s-.5-.22-.5-.5.22-.5.5-.5.5.22.5.5zm0 4c0 .28-.22.5-.5.5s-.5-.22-.5-.5.22-.5.5-.5.5.22.5.5zm0 4c0 .28-.22.5-.5.5s-.5-.22-.5-.5.22-.5.5-.5.5.22.5.5zm0 4c0 .28-.22.5-.5.5s-.5-.22-.5-.5.22-.5.5-.5.5.22.5.5zm0 4c0 .28-.22.5-.5.5s-.5-.22-.5-.5.22-.5.5-.5.5.22.5.5zm0 4c0 .28-.22.5-.5.5s-.5-.22-.5-.5.22-.5.5-.5.5.22.5.5zm0 4c0 .28-.22.5-.5.5s-.5-.22-.5-.5.22-.5.5-.5.5.22.5.5zm0 4c0 .28-.22.5-.5.5s-.5-.22-.5-.5.22-.5.5-.5.5.22.5.5zm0 4c0 .28-.22.5-.5.5s-.5-.22-.5-.5.22-.5.5-.5.5.22.5.5zm0 4c0 .28-.22.5-.5.5s-.5-.22-.5-.5.22-.5.5-.5.5.22.5.5zm0 4c0 .28-.22.5-.5.5s-.5-.22-.5-.5.22-.5.5-.5.5.22.5.5zm0 4c0 .28-.22.5-.5.5s-.5-.22-.5-.5.22-.5.5-.5.5.22.5.5zm0 4c0 .28-.22.5-.5.5s-.5-.22-.5-.5.22-.5.5-.5.5.22.5.5zm0 4c0 .28-.22.5-.5.5s-.5-.22-.5-.5.22-.5.5-.5.5.22.5.5zm0 4c0 .28-.22.5-.5.5s-.5-.22-.5-.5.22-.5.5-.5.5.22.5.5zm0 4c0 .28-.22.5-.5.5s-.5-.22-.5-.5.22-.5.5-.5.5.22.5.5zm0 4c0 .28-.22.5-.5.5s-.5-.22-.5-.5.22-.5.5-.5.5.22.5.5zm0 4c0 .28-.22.5-.5.5s-.5-.22-.5-.5.22-.5.5-.5.5.22.5.5zm0 4c0 .28-.22.5-.5.5s-.5-.22-.5-.5.22-.5.5-.5.5.22.5.5zm0 4c0 .28-.22.5-.5.5s-.5-.22-.5-.5.22-.5.5-.5.5.22.5.5zm1.76 4.24c0 .28-.23.5-.5.5-.28 0-.5-.22-.5-.5 0-.27.22-.5.5-.5.27 0 .5.23.5.5zm4.24 1.76c0 .28-.22.5-.5.5s-.5-.22-.5-.5.22-.5.5-.5.5.22.5.5zm4.4 0c0 .28-.22.5-.5.5-.27 0-.5-.22-.5-.5s.23-.5.5-.5c.28 0 .5.22.5.5zm4.4 0c0 .28-.22.5-.5.5-.27 0-.5-.22-.5-.5s.23-.5.5-.5c.28 0 .5.22.5.5zm4.4 0c0 .28-.2.5-.5.5-.26 0-.5-.22-.5-.5s.24-.5.5-.5c.3 0 .5.22.5.5z" fill="#3a414a"/><path d="M559 630.48h-.5v-.96h.5z" stroke="#3a414a" stroke-width=".05" fill="#3a414a"/><path d="M557.38 950l-14.26 4.63v-9.26z" stroke="#3a414a" fill="#3a414a"/><defs><path fill="#3a414a" d="M212-179c-10-28-35-45-73-45-59 0-87 40-87 99 0 60 29 101 89 101 43 0 62-24 78-52l27 14C228-24 195 4 139 4 59 4 22-46 18-125c-6-104 99-153 187-111 19 9 31 26 39 46" id="f"/><path fill="#3a414a" d="M24 0v-261h32V0H24" id="g"/><path fill="#3a414a" d="M24-231v-30h32v30H24zM24 0v-190h32V0H24" id="h"/><path fill="#3a414a" d="M100-194c63 0 86 42 84 106H49c0 40 14 67 53 68 26 1 43-12 49-29l28 8c-11 28-37 45-77 45C44 4 14-33 15-96c1-61 26-98 85-98zm52 81c6-60-76-77-97-28-3 7-6 17-6 28h103" id="i"/><path fill="#3a414a" d="M117-194c89-4 53 116 60 194h-32v-121c0-31-8-49-39-48C34-167 62-67 57 0H25l-1-190h30c1 10-1 24 2 32 11-22 29-35 61-36" id="j"/><path fill="#3a414a" d="M59-47c-2 24 18 29 38 22v24C64 9 27 4 27-40v-127H5v-23h24l9-43h21v43h35v23H59v120" id="k"/><g id="a"><use transform="matrix(0.06172839506172839,0,0,0.06172839506172839,0,0)" xlink:href="#f"/><use transform="matrix(0.06172839506172839,0,0,0.06172839506172839,15.987654320987653,0)" xlink:href="#g"/><use transform="matrix(0.06172839506172839,0,0,0.06172839506172839,20.864197530864196,0)" xlink:href="#h"/><use transform="matrix(0.06172839506172839,0,0,0.06172839506172839,25.74074074074074,0)" xlink:href="#i"/><use transform="matrix(0.06172839506172839,0,0,0.06172839506172839,38.08641975308642,0)" xlink:href="#j"/><use transform="matrix(0.06172839506172839,0,0,0.06172839506172839,50.432098765432094,0)" xlink:href="#k"/></g><path fill="#3a414a" d="M205 0l-28-72H64L36 0H1l101-248h38L239 0h-34zm-38-99l-47-123c-12 45-31 82-46 123h93" id="l"/><path fill="#3a414a" d="M115-194c55 1 70 41 70 98S169 2 115 4C84 4 66-9 55-30l1 105H24l-1-265h31l2 30c10-21 28-34 59-34zm-8 174c40 0 45-34 45-75s-6-73-45-74c-42 0-51 32-51 76 0 43 10 73 51 73" id="m"/><path fill="#3a414a" d="M96-169c-40 0-48 33-48 73s9 75 48 75c24 0 41-14 43-38l32 2c-6 37-31 61-74 61-59 0-76-41-82-99-10-93 101-131 147-64 4 7 5 14 7 22l-32 3c-4-21-16-35-41-35" id="n"/><path fill="#3a414a" d="M141-36C126-15 110 5 73 4 37 3 15-17 15-53c-1-64 63-63 125-63 3-35-9-54-41-54-24 1-41 7-42 31l-33-3c5-37 33-52 76-52 45 0 72 20 72 64v82c-1 20 7 32 28 27v20c-31 9-61-2-59-35zM48-53c0 20 12 33 32 33 41-3 63-29 60-74-43 2-92-5-92 41" id="o"/><path fill="#3a414a" d="M100-194c62-1 85 37 85 99 1 63-27 99-86 99S16-35 15-95c0-66 28-99 85-99zM99-20c44 1 53-31 53-75 0-43-8-75-51-75s-53 32-53 75 10 74 51 75" id="p"/><g id="b"><use transform="matrix(0.06172839506172839,0,0,0.06172839506172839,0,0)" xlink:href="#l"/><use transform="matrix(0.06172839506172839,0,0,0.06172839506172839,14.814814814814813,0)" xlink:href="#m"/><use transform="matrix(0.06172839506172839,0,0,0.06172839506172839,27.160493827160494,0)" xlink:href="#m"/><use transform="matrix(0.06172839506172839,0,0,0.06172839506172839,39.50617283950617,0)" xlink:href="#g"/><use transform="matrix(0.06172839506172839,0,0,0.06172839506172839,44.382716049382715,0)" xlink:href="#h"/><use transform="matrix(0.06172839506172839,0,0,0.06172839506172839,49.25925925925926,0)" xlink:href="#n"/><use transform="matrix(0.06172839506172839,0,0,0.06172839506172839,60.37037037037037,0)" xlink:href="#o"/><use transform="matrix(0.06172839506172839,0,0,0.06172839506172839,72.71604938271605,0)" xlink:href="#k"/><use transform="matrix(0.06172839506172839,0,0,0.06172839506172839,78.88888888888889,0)" xlink:href="#h"/><use transform="matrix(0.06172839506172839,0,0,0.06172839506172839,83.76543209876543,0)" xlink:href="#p"/><use transform="matrix(0.06172839506172839,0,0,0.06172839506172839,96.11111111111111,0)" xlink:href="#j"/></g><path fill="#3a414a" d="M30 0v-248h33v221h125V0H30" id="q"/><path fill="#3a414a" d="M179-190L93 31C79 59 56 82 12 73V49c39 6 53-20 64-50L1-190h34L92-34l54-156h33" id="r"/><path fill="#3a414a" d="M114-163C36-179 61-72 57 0H25l-1-190h30c1 12-1 29 2 39 6-27 23-49 58-41v29" id="s"/><g id="c"><use transform="matrix(0.06172839506172839,0,0,0.06172839506172839,0,0)" xlink:href="#q"/><use transform="matrix(0.06172839506172839,0,0,0.06172839506172839,12.345679012345679,0)" xlink:href="#o"/><use transform="matrix(0.06172839506172839,0,0,0.06172839506172839,24.691358024691358,0)" xlink:href="#r"/><use transform="matrix(0.06172839506172839,0,0,0.06172839506172839,35.80246913580247,0)" xlink:href="#i"/><use transform="matrix(0.06172839506172839,0,0,0.06172839506172839,48.148148148148145,0)" xlink:href="#s"/></g><path fill="#3a414a" d="M30-248c118-7 216 8 213 122C240-48 200 0 122 0H30v-248zM63-27c89 8 146-16 146-99s-60-101-146-95v194" id="t"/><path fill="#3a414a" d="M210-169c-67 3-38 105-44 169h-31v-121c0-29-5-50-35-48C34-165 62-65 56 0H25l-1-190h30c1 10-1 24 2 32 10-44 99-50 107 0 11-21 27-35 58-36 85-2 47 119 55 194h-31v-121c0-29-5-49-35-48" id="u"/><g id="d"><use transform="matrix(0.06172839506172839,0,0,0.06172839506172839,0,0)" xlink:href="#t"/><use transform="matrix(0.06172839506172839,0,0,0.06172839506172839,15.987654320987653,0)" xlink:href="#p"/><use transform="matrix(0.06172839506172839,0,0,0.06172839506172839,28.333333333333332,0)" xlink:href="#u"/><use transform="matrix(0.06172839506172839,0,0,0.06172839506172839,46.79012345679012,0)" xlink:href="#o"/><use transform="matrix(0.06172839506172839,0,0,0.06172839506172839,59.1358024691358,0)" xlink:href="#h"/><use transform="matrix(0.06172839506172839,0,0,0.06172839506172839,64.01234567901234,0)" xlink:href="#j"/></g><path fill="#3a414a" d="M33 0v-248h34V0H33" id="v"/><path fill="#3a414a" d="M101-234c-31-9-42 10-38 44h38v23H63V0H32v-167H5v-23h27c-7-52 17-82 69-68v24" id="w"/><path fill="#3a414a" d="M135-143c-3-34-86-38-87 0 15 53 115 12 119 90S17 21 10-45l28-5c4 36 97 45 98 0-10-56-113-15-118-90-4-57 82-63 122-42 12 7 21 19 24 35" id="x"/><path fill="#3a414a" d="M84 4C-5 8 30-112 23-190h32v120c0 31 7 50 39 49 72-2 45-101 50-169h31l1 190h-30c-1-10 1-25-2-33-11 22-28 36-60 37" id="y"/><g id="e"><use transform="matrix(0.06172839506172839,0,0,0.06172839506172839,0,0)" xlink:href="#v"/><use transform="matrix(0.06172839506172839,0,0,0.06172839506172839,6.172839506172839,0)" xlink:href="#j"/><use transform="matrix(0.06172839506172839,0,0,0.06172839506172839,18.51851851851852,0)" xlink:href="#w"/><use transform="matrix(0.06172839506172839,0,0,0.06172839506172839,24.691358024691358,0)" xlink:href="#s"/><use transform="matrix(0.06172839506172839,0,0,0.06172839506172839,32.03703703703704,0)" xlink:href="#o"/><use transform="matrix(0.06172839506172839,0,0,0.06172839506172839,44.382716049382715,0)" xlink:href="#x"/><use transform="matrix(0.06172839506172839,0,0,0.06172839506172839,55.49382716049382,0)" xlink:href="#k"/><use transform="matrix(0.06172839506172839,0,0,0.06172839506172839,61.666666666666664,0)" xlink:href="#s"/><use transform="matrix(0.06172839506172839,0,0,0.06172839506172839,69.01234567901234,0)" xlink:href="#y"/><use transform="matrix(0.06172839506172839,0,0,0.06172839506172839,81.35802469135803,0)" xlink:href="#n"/><use transform="matrix(0.06172839506172839,0,0,0.06172839506172839,92.46913580246914,0)" xlink:href="#k"/><use transform="matrix(0.06172839506172839,0,0,0.06172839506172839,98.64197530864197,0)" xlink:href="#y"/><use transform="matrix(0.06172839506172839,0,0,0.06172839506172839,110.98765432098766,0)" xlink:href="#s"/><use transform="matrix(0.06172839506172839,0,0,0.06172839506172839,118.33333333333334,0)" xlink:href="#i"/></g></defs></g></svg>