<svg xmlns="http://www.w3.org/2000/svg" xmlns:xlink="http://www.w3.org/1999/xlink" xmlns:lucid="lucid" width="290" height="335.48"><g transform="translate(-1190 -396)" lucid:page-tab-id="0_0"><path d="M1000 0h500v1000h-500z" fill="#fff"/><path d="M1279.33 409.67c0 5.33-4.32 9.66-9.66 9.66s-9.67-4.32-9.67-9.66 4.33-9.67 9.67-9.67 9.66 4.33 9.66 9.67zM1279.33 469.67c0 5.33-4.32 9.66-9.66 9.66s-9.67-4.32-9.67-9.66 4.33-9.67 9.67-9.67 9.66 4.33 9.66 9.67zM1279.33 529.67c0 5.34-4.32 9.66-9.66 9.66s-9.67-4.33-9.67-9.66c0-5.34 4.33-9.67 9.67-9.67s9.66 4.33 9.66 9.67zM1279.33 589.67c0 5.34-4.32 9.66-9.66 9.66s-9.67-4.33-9.67-9.66c0-5.34 4.33-9.67 9.67-9.67s9.66 4.33 9.66 9.67zM1279.33 649.67c0 5.34-4.32 9.66-9.66 9.66s-9.67-4.33-9.67-9.66c0-5.34 4.33-9.67 9.67-9.67s9.66 4.33 9.66 9.67zM1279.33 709.67c0 5.34-4.32 9.66-9.66 9.66s-9.67-4.33-9.67-9.66c0-5.34 4.33-9.67 9.67-9.67s9.66 4.33 9.66 9.67z" stroke="#282c33" stroke-width="2" fill="#fff"/><path d="M1269.67 420.84v21.77" stroke="#3a414a" fill="none"/><path d="M1269.65 420.35l.5-.07v.58h-.96v-.6z" stroke="#3a414a" stroke-width=".05" fill="#3a414a"/><path d="M1269.67 457.37l-4.64-14.26h9.27z" stroke="#3a414a" fill="#3a414a"/><path d="M1269.67 480.84v21.77" stroke="#3a414a" fill="none"/><path d="M1269.65 480.35l.5-.07v.58h-.96v-.6z" stroke="#3a414a" stroke-width=".05" fill="#3a414a"/><path d="M1269.67 517.37l-4.64-14.26h9.27z" stroke="#3a414a" fill="#3a414a"/><use xlink:href="#a" transform="matrix(1,0,0,1,1277.6666665071077,479.29133564786184) translate(0 14.222222222222223)"/><path d="M1269.67 540.84v21.77" stroke="#3a414a" fill="none"/><path d="M1269.65 540.35l.5-.07v.58h-.96v-.6z" stroke="#3a414a" stroke-width=".05" fill="#3a414a"/><path d="M1269.67 577.37l-4.64-14.26h9.27z" stroke="#3a414a" fill="#3a414a"/><path d="M1269.67 600.84v21.77" stroke="#3a414a" fill="none"/><path d="M1269.65 600.35l.5-.07v.58h-.96v-.6z" stroke="#3a414a" stroke-width=".05" fill="#3a414a"/><path d="M1269.67 637.37l-4.64-14.26h9.27z" stroke="#3a414a" fill="#3a414a"/><path d="M1269.67 660.84v21.77" stroke="#3a414a" fill="none"/><path d="M1269.65 660.35l.5-.07v.58h-.96v-.6z" stroke="#3a414a" stroke-width=".05" fill="#3a414a"/><path d="M1269.67 697.37l-4.64-14.26h9.27z" stroke="#3a414a" fill="#3a414a"/><path d="M1258.5 469.67H1196a6 6 0 0 0-6 6v228a6 6 0 0 0 6 6h46.6" stroke="#3a414a" fill="none"/><path d="M1259 469.65l.06.5h-.58v-.96h.6z" stroke="#3a414a" stroke-width=".05" fill="#3a414a"/><path d="M1257.37 709.67l-14.26 4.63v-9.27z" stroke="#3a414a" fill="#3a414a"/><use xlink:href="#b" transform="matrix(1,0,0,1,1203.144210952908,444.3333331743873) translate(0 14.222222222222223)"/><path d="M1325 402a6 6 0 0 1 6-6h143a6 6 0 0 1 6 6v23.48a6 6 0 0 1-6 6h-143a6 6 0 0 1-6-6z" stroke="#000" stroke-opacity="0" stroke-width="2" fill="#fff" fill-opacity="0"/><use xlink:href="#c" transform="matrix(1,0,0,1,1330,401) translate(0 18.50043402777778)"/><use xlink:href="#d" transform="matrix(1,0,0,1,1330,401) translate(53.342013888888886 18.50043402777778)"/><path d="M1325 462a6 6 0 0 1 6-6h143a6 6 0 0 1 6 6v23.48a6 6 0 0 1-6 6h-143a6 6 0 0 1-6-6z" stroke="#000" stroke-opacity="0" stroke-width="2" fill="#fff" fill-opacity="0"/><use xlink:href="#e" transform="matrix(1,0,0,1,1330,461) translate(0 18.50043402777778)"/><use xlink:href="#f" transform="matrix(1,0,0,1,1330,461) translate(53.342013888888886 18.50043402777778)"/><use xlink:href="#g" transform="matrix(1,0,0,1,1330,461) translate(80.01302083333333 18.50043402777778)"/><path d="M1325 522a6 6 0 0 1 6-6h143a6 6 0 0 1 6 6v23.48a6 6 0 0 1-6 6h-143a6 6 0 0 1-6-6z" stroke="#000" stroke-opacity="0" stroke-width="2" fill="#fff" fill-opacity="0"/><use xlink:href="#h" transform="matrix(1,0,0,1,1330,521) translate(0 18.50043402777778)"/><use xlink:href="#i" transform="matrix(1,0,0,1,1330,521) translate(53.342013888888886 18.50043402777778)"/><use xlink:href="#d" transform="matrix(1,0,0,1,1330,521) translate(80.01302083333333 18.50043402777778)"/><path d="M1325 582a6 6 0 0 1 6-6h143a6 6 0 0 1 6 6v23.48a6 6 0 0 1-6 6h-143a6 6 0 0 1-6-6z" stroke="#000" stroke-opacity="0" stroke-width="2" fill="#fff" fill-opacity="0"/><use xlink:href="#h" transform="matrix(1,0,0,1,1330,581) translate(0 18.50043402777778)"/><use xlink:href="#i" transform="matrix(1,0,0,1,1330,581) translate(53.342013888888886 18.50043402777778)"/><use xlink:href="#j" transform="matrix(1,0,0,1,1330,581) translate(80.01302083333333 18.50043402777778)"/><path d="M1325 642a6 6 0 0 1 6-6h143a6 6 0 0 1 6 6v23.48a6 6 0 0 1-6 6h-143a6 6 0 0 1-6-6z" stroke="#000" stroke-opacity="0" stroke-width="2" fill="#fff" fill-opacity="0"/><g><use xlink:href="#k" transform="matrix(1,0,0,1,1330,641) translate(0 18.50043402777778)"/><use xlink:href="#i" transform="matrix(1,0,0,1,1330,641) translate(66.67751736111111 18.50043402777778)"/><use xlink:href="#j" transform="matrix(1,0,0,1,1330,641) translate(93.34852430555556 18.50043402777778)"/></g><path d="M1325 702a6 6 0 0 1 6-6h143a6 6 0 0 1 6 6v23.48a6 6 0 0 1-6 6h-143a6 6 0 0 1-6-6z" stroke="#000" stroke-opacity="0" stroke-width="2" fill="#fff" fill-opacity="0"/><g><use xlink:href="#l" transform="matrix(1,0,0,1,1330,701) translate(0 18.50043402777778)"/></g><defs><path fill="#333" d="M25-224v-37h50v37H25zM75 22c2 45-34 59-81 51V38c22 5 31-5 31-27v-201h50V22" id="m"/><path fill="#333" d="M133-34C117-15 103 5 69 4 32 3 11-16 11-54c-1-60 55-63 116-61 1-26-3-47-28-47-18 1-26 9-28 27l-52-2c7-38 36-58 82-57s74 22 75 68l1 82c-1 14 12 18 25 15v27c-30 8-71 5-69-32zm-48 3c29 0 43-24 42-57-32 0-66-3-65 30 0 17 8 27 23 27" id="n"/><g id="a"><use transform="matrix(0.04938271604938272,0,0,0.04938271604938272,0,0)" xlink:href="#m"/><use transform="matrix(0.04938271604938272,0,0,0.04938271604938272,4.938271604938272,0)" xlink:href="#n"/></g><path fill="#333" d="M135-194c87-1 58 113 63 194h-50c-7-57 23-157-34-157-59 0-34 97-39 157H25l-1-190h47c2 12-1 28 3 38 12-26 28-41 61-42" id="o"/><path fill="#333" d="M185-48c-13 30-37 53-82 52C43 2 14-33 14-96s30-98 90-98c62 0 83 45 84 108H66c0 31 8 55 39 56 18 0 30-7 34-22zm-45-69c5-46-57-63-70-21-2 6-4 13-4 21h74" id="p"/><path fill="#333" d="M25-224v-37h50v37H25zM25 0v-190h50V0H25" id="q"/><g id="b"><use transform="matrix(0.04938271604938272,0,0,0.04938271604938272,0,0)" xlink:href="#o"/><use transform="matrix(0.04938271604938272,0,0,0.04938271604938272,10.814814814814815,0)" xlink:href="#p"/><use transform="matrix(0.04938271604938272,0,0,0.04938271604938272,20.69135802469136,0)" xlink:href="#q"/><use transform="matrix(0.04938271604938272,0,0,0.04938271604938272,25.629629629629633,0)" xlink:href="#o"/></g><path fill="#3a414a" d="M745-142h380V0H143v-142h422v-798H246v-142h499v940zM545-1292v-192h200v192H545" id="r"/><path fill="#3a414a" d="M706-1102c241 0 344 136 343 381V0H868v-695c1-168-57-273-220-268-190 6-283 138-283 336V0H185c-3-360 6-732-6-1082h170c4 54 7 126 8 185h3c63-121 164-204 346-205" id="s"/><path fill="#3a414a" d="M682 16c-209 0-323-80-324-285v-671H190v-142h170l58-282h120v282h432v142H538v652c2 114 60 155 182 155 106 0 209-16 297-34v137C921-4 806 16 682 16" id="t"/><g id="c"><use transform="matrix(0.010850694444444444,0,0,0.010850694444444444,0,0)" xlink:href="#r"/><use transform="matrix(0.010850694444444444,0,0,0.010850694444444444,13.335503472222221,0)" xlink:href="#s"/><use transform="matrix(0.010850694444444444,0,0,0.010850694444444444,26.671006944444443,0)" xlink:href="#t"/></g><path fill="#3a414a" d="M648-963c-190 6-283 138-283 336V0H185v-1484h181c-2 197 6 404-9 587h3c62-120 159-205 339-205 242 0 351 135 350 381V0H868v-695c1-168-57-273-220-268" id="u"/><path fill="#3a414a" d="M736-142h380V0H134v-142h422v-1200H267v-142h469v1342" id="v"/><path fill="#3a414a" d="M839-1335c-182-6-269 67-259 253h491v142H580V0H400v-940H138v-142h262c-15-293 132-408 418-402 94 2 200 7 281 21v145c-75-10-177-14-260-17" id="w"/><g id="d"><use transform="matrix(0.010850694444444444,0,0,0.010850694444444444,0,0)" xlink:href="#u"/><use transform="matrix(0.010850694444444444,0,0,0.010850694444444444,13.335503472222221,0)" xlink:href="#r"/><use transform="matrix(0.010850694444444444,0,0,0.010850694444444444,26.671006944444443,0)" xlink:href="#v"/><use transform="matrix(0.010850694444444444,0,0,0.010850694444444444,40.006510416666664,0)" xlink:href="#w"/></g><path fill="#3a414a" d="M904-1102c199 0 220 177 220 381V0H956v-686c-3-114 0-215-60-264-70-33-125-4-158 71-26 56-39 140-39 252V0H531v-686c-3-114-1-215-61-264-78-41-136 24-157 84-24 69-39 159-39 259V0H105c-3-360 6-732-6-1082h149c6 50 3 123 8 175 36-100 83-195 216-195 135 0 166 79 196 196 42-105 93-196 236-196" id="x"/><g id="e"><use transform="matrix(0.010850694444444444,0,0,0.010850694444444444,0,0)" xlink:href="#x"/><use transform="matrix(0.010850694444444444,0,0,0.010850694444444444,13.335503472222221,0)" xlink:href="#r"/><use transform="matrix(0.010850694444444444,0,0,0.010850694444444444,26.671006944444443,0)" xlink:href="#s"/></g><path fill="#3a414a" d="M116-154v-153l858-367-858-366v-154l995 418v205" id="y"/><use transform="matrix(0.010850694444444444,0,0,0.010850694444444444,0,0)" xlink:href="#y" id="f"/><path fill="#3a414a" d="M1000-272c3 95 12 159 101 161 21 0 41-3 59-7V-6c-44 10-86 16-139 16-141 2-191-84-197-217h-6C748-76 648 20 446 20c-207 0-318-120-318-322 0-266 194-348 454-354l236-4c12-191-40-305-222-305-140 0-220 47-232 172l-188-17c33-204 181-292 423-292 255 0 401 118 401 364v466zm-683-27c0 109 63 184 175 182 166-3 259-96 306-217 24-65 20-120 20-200-232 7-501-28-501 235" id="z"/><path fill="#3a414a" d="M932 0L611-444 288 0H94l415-556-397-526h199l300 421 298-421h201L713-558 1133 0H932" id="A"/><g id="g"><use transform="matrix(0.010850694444444444,0,0,0.010850694444444444,0,0)" xlink:href="#x"/><use transform="matrix(0.010850694444444444,0,0,0.010850694444444444,13.335503472222221,0)" xlink:href="#z"/><use transform="matrix(0.010850694444444444,0,0,0.010850694444444444,26.671006944444443,0)" xlink:href="#A"/></g><g id="h"><use transform="matrix(0.010850694444444444,0,0,0.010850694444444444,0,0)" xlink:href="#x"/><use transform="matrix(0.010850694444444444,0,0,0.010850694444444444,13.335503472222221,0)" xlink:href="#z"/><use transform="matrix(0.010850694444444444,0,0,0.010850694444444444,26.671006944444443,0)" xlink:href="#A"/></g><path fill="#3a414a" d="M116-856v-148h995v148H116zm0 512v-148h995v148H116" id="B"/><use transform="matrix(0.010850694444444444,0,0,0.010850694444444444,0,0)" xlink:href="#B" id="i"/><g id="j"><use transform="matrix(0.010850694444444444,0,0,0.010850694444444444,0,0)" xlink:href="#x"/><use transform="matrix(0.010850694444444444,0,0,0.010850694444444444,13.335503472222221,0)" xlink:href="#r"/><use transform="matrix(0.010850694444444444,0,0,0.010850694444444444,26.671006944444443,0)" xlink:href="#s"/></g><g id="k"><use transform="matrix(0.010850694444444444,0,0,0.010850694444444444,0,0)" xlink:href="#u"/><use transform="matrix(0.010850694444444444,0,0,0.010850694444444444,13.335503472222221,0)" xlink:href="#r"/><use transform="matrix(0.010850694444444444,0,0,0.010850694444444444,26.671006944444443,0)" xlink:href="#v"/><use transform="matrix(0.010850694444444444,0,0,0.010850694444444444,40.006510416666664,0)" xlink:href="#w"/></g><path fill="#3a414a" d="M839-1102c70 0 148 7 206 17v167c-112-18-268-36-363 15-129 69-208 203-208 395V0H294c-10-367 32-789-52-1082h171c21 75 41 161 48 250h5c67-152 152-270 373-270" id="C"/><path fill="#3a414a" d="M617-1102c355 0 481 238 477 599H322c5 222 84 388 301 388 144 0 244-59 284-166l158 45C1002-72 854 20 623 20c-342 0-490-220-490-568 0-346 151-554 484-554zm291 461c-18-192-90-328-289-328-194 0-287 128-295 328h584" id="D"/><path fill="#3a414a" d="M528 20c-247 0-343-132-343-381v-721h180v686c-4 177 45 284 224 277 194-8 279-136 279-336v-627h181c3 360-6 732 6 1082H885c-4-54-7-126-8-185h-3C809-64 714 20 528 20" id="E"/><g id="l"><use transform="matrix(0.010850694444444444,0,0,0.010850694444444444,0,0)" xlink:href="#C"/><use transform="matrix(0.010850694444444444,0,0,0.010850694444444444,13.335503472222221,0)" xlink:href="#D"/><use transform="matrix(0.010850694444444444,0,0,0.010850694444444444,26.671006944444443,0)" xlink:href="#t"/><use transform="matrix(0.010850694444444444,0,0,0.010850694444444444,40.006510416666664,0)" xlink:href="#E"/><use transform="matrix(0.010850694444444444,0,0,0.010850694444444444,53.342013888888886,0)" xlink:href="#C"/><use transform="matrix(0.010850694444444444,0,0,0.010850694444444444,66.67751736111111,0)" xlink:href="#s"/></g></defs></g></svg>