<svg xmlns="http://www.w3.org/2000/svg" xmlns:xlink="http://www.w3.org/1999/xlink" xmlns:lucid="lucid" width="451.67" height="340.5"><g transform="translate(705.6488673656139 2960.500000012812)" lucid:page-tab-id="0_0"><path d="M-705.15-2954a6 6 0 0 1 6-6h153.33a6 6 0 0 1 6 6v38a6 6 0 0 1-6 6h-153.33a6 6 0 0 1-6-6z" stroke="#3a414a" fill="#fff"/><use xlink:href="#a" transform="matrix(1,0,0,1,-700.1488673139161,-2955) translate(61.95061728395062 25.27777777777778)"/><path d="M-419.82-2954a6 6 0 0 1 6-6h153.34a6 6 0 0 1 6 6v38a6 6 0 0 1-6 6h-153.34a6 6 0 0 1-6-6z" stroke="#3a414a" fill="#fff"/><use xlink:href="#b" transform="matrix(1,0,0,1,-414.81553398058253,-2955) translate(61.95061728395062 25.27777777777778)"/><path d="M-619.82-2899.5v10.33m0 10.34v20.66m0 10.34v20.66m0 10.34v20.66m0 10.34v20.66m0 10.34v20.66m0 10.34v20.66m0 10.34v20.66m0 10.34v20.66m0 10.34v10.33M-619.82-2899.5v-.5M-619.82-2620.5v.5M-339.84-2909v9.62m0 9.6v19.25m0 9.6v19.25m0 9.6v19.25m0 9.6v19.25m0 9.6v19.25m0 9.6v19.25m0 9.6l.02 19.25m0 9.6v19.25m0 9.6v19.25m0 9.6v9.63" stroke="#3a414a" fill="none"/><path d="M-339.34-2909h-1v-.5h1z" stroke="#3a414a" stroke-width=".05" fill="#3a414a"/><path d="M-339.82-2620.5v.5" stroke="#3a414a" fill="none"/><path d="M-631.32-2847.67a6 6 0 0 1 6-6h6.67a6 6 0 0 1 6 6v192a6 6 0 0 1-6 6h-6.67a6 6 0 0 1-6-6zM-346.48-2808a6 6 0 0 1 6-6h6.66a6 6 0 0 1 6 6v112.67a6 6 0 0 1-6 6h-6.66a6 6 0 0 1-6-6z" stroke="#3a414a" fill="#fff"/><path d="M-499.25-2799.17h-112.4v-1h112.4zm145.4 0H-459.9v-1h106.04z" stroke="#3a414a" stroke-width=".05" fill="#3a414a"/><path d="M-611.64-2799.17h-.5v-1h.5z" fill="#3a414a"/><path d="M-611.6-2799.14h-.57v-1.05h.56zm-.52-1v.95h.46v-.94z" stroke="#3a414a" stroke-width=".05" fill="#3a414a"/><path d="M-347.96-2799.67l-12.92 7.64v-15.27z" fill="#3a414a"/><path d="M-346.98-2799.67l-14.4 8.52v-17.03zm-13.4 6.76l11.43-6.77-11.43-6.76z" stroke="#3a414a" stroke-width=".05" fill="#3a414a"/><use xlink:href="#c" transform="matrix(1,0,0,1,-499.244628038293,-2810.3333333333326) translate(0 14.222222222222223)"/><path d="M-605.28-2699.67h9.55m9.55 0h19.1m9.54 0h19.1m9.55 0h19.1m9.55 0h19.1m9.54 0h19.1m9.54 0h19.1m9.54 0h19.1m9.55 0h19.1m9.54 0h9.55" stroke="#3a414a" fill="none"/><path d="M-611.17-2699.67l12.9-7.63v15.27z" stroke="#3a414a" fill="#3a414a"/><path d="M-346.98-2699.17h-.5v-1h.5z" stroke="#3a414a" stroke-width=".05" fill="#3a414a"/><path d="M-620-2773.67a6 6 0 0 1 6-6h6.67a6 6 0 0 1 6 6v48a6 6 0 0 1-6 6H-614a6 6 0 0 1-6-6z" stroke="#3a414a" fill="#fff"/><path d="M-514.82-2767.1h-79.14v-1h79.14zm167.34 0h-85.5v-1h85.5z" stroke="#3a414a" stroke-width=".05" fill="#3a414a"/><path d="M-586.94-2759.96l-12.9-7.63 12.9-7.63z" fill="#3a414a"/><path d="M-586.44-2759.08l-14.4-8.5 14.4-8.53zm-12.43-8.5l11.43 6.74v-13.5z" stroke="#3a414a" stroke-width=".05" fill="#3a414a"/><path d="M-346.98-2767.1h-.5v-1h.5z" fill="#3a414a"/><path d="M-346.96-2767.07h-.56v-1.05h.56zm-.5-1v.95h.45v-.95z" stroke="#3a414a" stroke-width=".05" fill="#3a414a"/><use xlink:href="#d" transform="matrix(1,0,0,1,-514.821372812896,-2778.2604710723804) translate(0 14.222222222222223)"/><path d="M-600.33-2727.68h10.27m10.27 0h20.55m10.27 0h20.54m10.27 0h20.54m10.27 0h20.54m10.26 0H-436m10.25 0h20.55m10.26 0h20.55m10.27 0h10.27" stroke="#3a414a" fill="none"/><path d="M-600.32-2727.18h-.5v-1h.5z" stroke="#3a414a" stroke-width=".05" fill="#3a414a"/><path d="M-347.96-2727.68l-12.92 7.63v-15.27z" stroke="#3a414a" fill="#3a414a"/><defs><path fill="#3a414a" d="M141 0L90-78 38 0H4l68-98-65-92h35l48 74 47-74h35l-64 92 68 98h-35" id="e"/><path fill="#3a414a" d="M33-154v-36h34v36H33zM33 0v-36h34V0H33" id="f"/><path fill="#3a414a" d="M195 0l-74-108L45 0H8l94-129-87-119h37l69 98 67-98h37l-84 118L233 0h-38" id="g"/><g id="a"><use transform="matrix(0.06172839506172839,0,0,0.06172839506172839,0,0)" xlink:href="#e"/><use transform="matrix(0.06172839506172839,0,0,0.06172839506172839,11.11111111111111,0)" xlink:href="#f"/><use transform="matrix(0.06172839506172839,0,0,0.06172839506172839,17.28395061728395,0)" xlink:href="#g"/><path fill="#3a414a" d="M-1.1 1.54h34.3v1.63H-1.1z"/></g><path fill="#3a414a" d="M179-190L93 31C79 59 56 82 12 73V49c39 6 53-20 64-50L1-190h34L92-34l54-156h33" id="h"/><path fill="#3a414a" d="M137-103V0h-34v-103L8-248h37l75 118 75-118h37" id="i"/><g id="b"><use transform="matrix(0.06172839506172839,0,0,0.06172839506172839,0,0)" xlink:href="#h"/><use transform="matrix(0.06172839506172839,0,0,0.06172839506172839,11.11111111111111,0)" xlink:href="#f"/><use transform="matrix(0.06172839506172839,0,0,0.06172839506172839,17.28395061728395,0)" xlink:href="#i"/><path fill="#3a414a" d="M-1.1 1.54h34.3v1.63H-1.1z"/></g><path fill="#333" d="M135-194c52 0 70 43 70 98 0 56-19 99-73 100-30 1-46-15-58-35L72 0H24l1-261h50v104c11-23 29-37 60-37zM114-30c31 0 40-27 40-66 0-37-7-63-39-63s-41 28-41 65c0 36 8 64 40 64" id="j"/><path fill="#333" d="M133-34C117-15 103 5 69 4 32 3 11-16 11-54c-1-60 55-63 116-61 1-26-3-47-28-47-18 1-26 9-28 27l-52-2c7-38 36-58 82-57s74 22 75 68l1 82c-1 14 12 18 25 15v27c-30 8-71 5-69-32zm-48 3c29 0 43-24 42-57-32 0-66-3-65 30 0 17 8 27 23 27" id="k"/><path fill="#333" d="M135-150c-39-12-60 13-60 57V0H25l-1-190h47c2 13-1 29 3 40 6-28 27-53 61-41v41" id="l"/><path fill="#333" d="M67-93c0 74 22 123 53 168H70C40 30 18-18 18-93s22-123 52-168h50c-32 44-53 94-53 168" id="m"/><path fill="#333" d="M102-93c0 74-22 123-52 168H0C30 29 54-18 53-93c0-74-22-123-53-168h50c30 45 52 94 52 168" id="n"/><g id="c"><use transform="matrix(0.04938271604938272,0,0,0.04938271604938272,0,0)" xlink:href="#j"/><use transform="matrix(0.04938271604938272,0,0,0.04938271604938272,10.814814814814815,0)" xlink:href="#k"/><use transform="matrix(0.04938271604938272,0,0,0.04938271604938272,20.69135802469136,0)" xlink:href="#l"/><use transform="matrix(0.04938271604938272,0,0,0.04938271604938272,27.604938271604947,0)" xlink:href="#m"/><use transform="matrix(0.04938271604938272,0,0,0.04938271604938272,33.48148148148149,0)" xlink:href="#n"/></g><path fill="#333" d="M190-63c-7 42-38 67-86 67-59 0-84-38-90-98-12-110 154-137 174-36l-49 2c-2-19-15-32-35-32-30 0-35 28-38 64-6 74 65 87 74 30" id="o"/><path fill="#333" d="M25 0v-261h50V0H25" id="p"/><path fill="#333" d="M147 0L96-86 75-71V0H25v-261h50v150l67-79h53l-66 74L201 0h-54" id="q"/><g id="d"><use transform="matrix(0.04938271604938272,0,0,0.04938271604938272,0,0)" xlink:href="#o"/><use transform="matrix(0.04938271604938272,0,0,0.04938271604938272,9.876543209876544,0)" xlink:href="#k"/><use transform="matrix(0.04938271604938272,0,0,0.04938271604938272,19.75308641975309,0)" xlink:href="#p"/><use transform="matrix(0.04938271604938272,0,0,0.04938271604938272,24.69135802469136,0)" xlink:href="#p"/><use transform="matrix(0.04938271604938272,0,0,0.04938271604938272,29.629629629629633,0)" xlink:href="#j"/><use transform="matrix(0.04938271604938272,0,0,0.04938271604938272,40.44444444444445,0)" xlink:href="#k"/><use transform="matrix(0.04938271604938272,0,0,0.04938271604938272,50.320987654320994,0)" xlink:href="#o"/><use transform="matrix(0.04938271604938272,0,0,0.04938271604938272,60.19753086419754,0)" xlink:href="#q"/><use transform="matrix(0.04938271604938272,0,0,0.04938271604938272,70.07407407407408,0)" xlink:href="#m"/><use transform="matrix(0.04938271604938272,0,0,0.04938271604938272,75.95061728395062,0)" xlink:href="#n"/></g></defs></g></svg>