<svg xmlns="http://www.w3.org/2000/svg" xmlns:xlink="http://www.w3.org/1999/xlink" xmlns:lucid="lucid" width="340" height="420"><g transform="translate(-660 -440)" lucid:page-tab-id="0_0"><path d="M660 446a6 6 0 0 1 6-6h328a6 6 0 0 1 6 6v408a6 6 0 0 1-6 6H666a6 6 0 0 1-6-6z" stroke="#000" stroke-opacity="0" fill="#fff"/><path d="M680 466a6 6 0 0 1 6-6h108.26a6 6 0 0 1 6 6v50.85a6 6 0 0 1-6 6H686a6 6 0 0 1-6-6z" stroke="#3a414a" fill="#fff"/><use xlink:href="#a" transform="matrix(1,0,0,1,685,465) translate(39.45061728395062 31.02777777777778)"/><path d="M740.13 523.85v10.05m0 10.06v20.1m0 10.07v20.1m0 10.06v20.1m0 10.06v20.1m0 10.07v10.09h-.04l-.02.02-.02.02v10.08m0 10.05V715m0 10.06v20.1m0 10.07v20.1m0 10.06v20.1m0 10.06v10.06" stroke="#3a414a" fill="none"/><path d="M740.6 523.86h-.95v-.5h.96z" stroke="#3a414a" stroke-width=".05" fill="#3a414a"/><path d="M740.03 825.6v.52" stroke="#3a414a" fill="none"/><path d="M780.5 601.65h-30.58v-.95h30.58zm60.96 0h-14.7v-.95h14.7z" stroke="#3a414a" stroke-width=".05" fill="#3a414a"/><path d="M749.93 601.65h-.5v-.95h.5z" stroke="#3a414a" stroke-width=".05" fill="#3a414a"/><path d="M856.23 601.17l-14.27 4.64v-9.26z" fill="#3a414a"/><path d="M857.76 601.17l-16.28 5.3v-10.6zm-15.33 3.98l12.26-3.98-12.27-3.98z" stroke="#3a414a" stroke-width=".05" fill="#3a414a"/><use xlink:href="#b" transform="matrix(1,0,0,1,780.4965955112956,590.5045487897139) translate(0 14.222222222222223)"/><path d="M858.34 566a6 6 0 0 1 6-6H972.6a6 6 0 0 1 6 6v50.85a6 6 0 0 1-6 6H864.34a6 6 0 0 1-6-6z" stroke="#3a414a" fill="#fff"/><use xlink:href="#c" transform="matrix(1,0,0,1,863.3424742179266,565) translate(39.45061728395062 31.02777777777778)"/><path d="M918.47 623.85v10.3m0 10.3v20.63m0 10.3V696m0 10.3v20.62m0 10.3v20.62m0 10.3v10.34h.04v.02h.02v13.35m0 13.3v13.33" stroke="#3a414a" fill="none"/><path d="M918.95 623.86H918v-.5h.95z" stroke="#3a414a" stroke-width=".05" fill="#3a414a"/><path d="M918.55 818.46v.52" stroke="#3a414a" fill="none"/><path d="M906.47 629a6 6 0 0 1 6-6h8.26a6 6 0 0 1 6 6v50a6 6 0 0 1-6 6h-8.26a6 6 0 0 1-6-6z" stroke="#3a414a" fill="#fff"/><path d="M905.47 679.5h-8.64v-.96h8.64zm-17.28 0h-17.3v-.96h17.3zm-25.94 0h-17.28v-.96h17.28zm-39.5 0h-5.38v-.96h5.38zm-15.7 0h-20.62v-.96h20.63zm-30.94 0h-10.3v-.96h10.3zm60.22 0h-3.7v-.96h3.7z" stroke="#3a414a" stroke-width=".05" fill="#3a414a"/><path d="M905.97 679.02l.04.47h-.54v-.96h.5z" fill="#3a414a"/><path stroke="#3a414a" stroke-width=".05" fill="#3a414a"/><path d="M765.3 683.65l-14.26-4.63 14.27-4.64z" fill="#3a414a"/><path d="M765.78 684.3l-16.28-5.28 16.28-5.3zm-13.2-5.28l12.25 3.98v-7.97z" stroke="#3a414a" stroke-width=".05" fill="#3a414a"/><use xlink:href="#d" transform="matrix(1,0,0,1,822.7587699013509,668.3498852641052) translate(0 14.222222222222223)"/><path d="M906.47 713a6 6 0 0 1 6-6h8.26a6 6 0 0 1 6 6v50a6 6 0 0 1-6 6h-8.26a6 6 0 0 1-6-6zM727.6 588.55a6 6 0 0 1 6-6h9.36a6 6 0 0 1 6 6v180.32a6 6 0 0 1-6 6h-9.37a6 6 0 0 1-6-6z" stroke="#3a414a" fill="#fff"/><path d="M792.36 723.33h-42.4v-.95h42.4zm97.23 0H831.6v-.95h57.97z" stroke="#3a414a" stroke-width=".05" fill="#3a414a"/><path d="M749.97 723.33h-.5v-.95h.5z" fill="#3a414a"/><path stroke="#3a414a" stroke-width=".05" fill="#3a414a"/><path d="M904.35 722.85l-14.26 4.64v-9.28z" fill="#3a414a"/><path d="M905.9 722.85l-16.3 5.3v-10.6zm-15.34 3.98l12.26-3.98-12.26-3.98z" stroke="#3a414a" stroke-width=".05" fill="#3a414a"/><use xlink:href="#e" transform="matrix(1,0,0,1,792.3615646693078,712.1861729150824) translate(0 14.222222222222223)"/><path d="M905.47 756.9h-8.64m-8.64 0h-17.3m-8.63 0H845m-8.65 0H817.4m-10.3 0h-20.63m-10.32 0h-10.3" stroke="#3a414a" fill="none"/><path d="M905.97 757.38h-.5v-.95h.5z" stroke="#3a414a" stroke-width=".05" fill="#3a414a"/><path d="M751.08 756.9l14.26-4.63v9.27z" stroke="#3a414a" fill="#3a414a"/><defs><path fill="#3a414a" d="M141 0L90-78 38 0H4l68-98-65-92h35l48 74 47-74h35l-64 92 68 98h-35" id="f"/><path fill="#3a414a" d="M33-154v-36h34v36H33zM33 0v-36h34V0H33" id="g"/><path fill="#3a414a" d="M195 0l-74-108L45 0H8l94-129-87-119h37l69 98 67-98h37l-84 118L233 0h-38" id="h"/><g id="a"><use transform="matrix(0.06172839506172839,0,0,0.06172839506172839,0,0)" xlink:href="#f"/><use transform="matrix(0.06172839506172839,0,0,0.06172839506172839,11.11111111111111,0)" xlink:href="#g"/><use transform="matrix(0.06172839506172839,0,0,0.06172839506172839,17.28395061728395,0)" xlink:href="#h"/><path fill="#3a414a" d="M-1.1 1.54h34.3v1.63H-1.1z"/></g><path fill="#333" d="M135-194c87-1 58 113 63 194h-50c-7-57 23-157-34-157-59 0-34 97-39 157H25l-1-190h47c2 12-1 28 3 38 12-26 28-41 61-42" id="i"/><path fill="#333" d="M185-48c-13 30-37 53-82 52C43 2 14-33 14-96s30-98 90-98c62 0 83 45 84 108H66c0 31 8 55 39 56 18 0 30-7 34-22zm-45-69c5-46-57-63-70-21-2 6-4 13-4 21h74" id="j"/><path fill="#333" d="M231 0h-52l-39-155L100 0H48L-1-190h46L77-45c9-52 24-97 36-145h53l37 145 32-145h46" id="k"/><path fill="#333" d="M67-93c0 74 22 123 53 168H70C40 30 18-18 18-93s22-123 52-168h50c-32 44-53 94-53 168" id="l"/><path fill="#333" d="M102-93c0 74-22 123-52 168H0C30 29 54-18 53-93c0-74-22-123-53-168h50c30 45 52 94 52 168" id="m"/><g id="b"><use transform="matrix(0.04938271604938272,0,0,0.04938271604938272,0,0)" xlink:href="#i"/><use transform="matrix(0.04938271604938272,0,0,0.04938271604938272,10.814814814814815,0)" xlink:href="#j"/><use transform="matrix(0.04938271604938272,0,0,0.04938271604938272,20.69135802469136,0)" xlink:href="#k"/><use transform="matrix(0.04938271604938272,0,0,0.04938271604938272,34.51851851851852,0)" xlink:href="#l"/><use transform="matrix(0.04938271604938272,0,0,0.04938271604938272,40.39506172839506,0)" xlink:href="#m"/></g><path fill="#3a414a" d="M179-190L93 31C79 59 56 82 12 73V49c39 6 53-20 64-50L1-190h34L92-34l54-156h33" id="n"/><path fill="#3a414a" d="M137-103V0h-34v-103L8-248h37l75 118 75-118h37" id="o"/><g id="c"><use transform="matrix(0.06172839506172839,0,0,0.06172839506172839,0,0)" xlink:href="#n"/><use transform="matrix(0.06172839506172839,0,0,0.06172839506172839,11.11111111111111,0)" xlink:href="#g"/><use transform="matrix(0.06172839506172839,0,0,0.06172839506172839,17.28395061728395,0)" xlink:href="#o"/><path fill="#3a414a" d="M-1.1 1.54h34.3v1.63H-1.1z"/></g><path fill="#333" d="M123 10C108 53 80 86 19 72V37c35 8 53-11 59-39L3-190h52l48 148c12-52 28-100 44-148h51" id="p"/><use transform="matrix(0.04938271604938272,0,0,0.04938271604938272,0,0)" xlink:href="#p" id="d"/><path fill="#333" d="M121-226c-27-7-43 5-38 36h38v33H83V0H34v-157H6v-33h28c-9-59 32-81 87-68v32" id="q"/><path fill="#333" d="M110-194c64 0 96 36 96 99 0 64-35 99-97 99-61 0-95-36-95-99 0-62 34-99 96-99zm-1 164c35 0 45-28 45-65 0-40-10-65-43-65-34 0-45 26-45 65 0 36 10 65 43 65" id="r"/><g id="e"><use transform="matrix(0.04938271604938272,0,0,0.04938271604938272,0,0)" xlink:href="#q"/><use transform="matrix(0.04938271604938272,0,0,0.04938271604938272,5.8765432098765435,0)" xlink:href="#r"/><use transform="matrix(0.04938271604938272,0,0,0.04938271604938272,16.691358024691358,0)" xlink:href="#r"/><use transform="matrix(0.04938271604938272,0,0,0.04938271604938272,27.50617283950617,0)" xlink:href="#l"/><use transform="matrix(0.04938271604938272,0,0,0.04938271604938272,33.382716049382715,0)" xlink:href="#m"/></g></defs></g></svg>