<svg xmlns="http://www.w3.org/2000/svg" xmlns:xlink="http://www.w3.org/1999/xlink" xmlns:lucid="lucid" width="325.83" height="420.5"><g transform="translate(1700 2820.500000012812)" lucid:page-tab-id="0_0"><path d="M-1540-2814a6 6 0 0 1 6-6h153.33a6 6 0 0 1 6 6v38a6 6 0 0 1-6 6H-1534a6 6 0 0 1-6-6z" stroke="#3a414a" fill="#fff"/><use xlink:href="#a" transform="matrix(1,0,0,1,-1535,-2815) translate(61.95061728395062 25.27777777777778)"/><path d="M-1454.67-2759.5v9.97m0 9.97v19.95m0 9.96v19.95m0 9.98v19.94m0 9.97v19.94m0 9.97v19.96m0 9.97v19.94m0 9.97v19.95m0 9.96v19.95m0 9.98v19.94m0 9.97v19.94m0 9.97v19.96m0 9.97v9.97M-1454.67-2759.5v-.5M-1454.67-2400.5v.5" stroke="#3a414a" fill="none"/><path d="M-1466.17-2713.67a6 6 0 0 1 6-6h6.67a6 6 0 0 1 6 6V-2466a6 6 0 0 1-6 6h-6.67a6 6 0 0 1-6-6z" stroke="#3a414a" fill="#fff"/><path d="M-1454.85-2683.33a6 6 0 0 1 6-6h6.67a6 6 0 0 1 6 6V-2506a6 6 0 0 1-6 6h-6.67a6 6 0 0 1-6-6z" stroke="#3a414a" fill="#fff"/><path d="M-1440-2634a6 6 0 0 1 6-6h6.67a6 6 0 0 1 6 6v79.05a6 6 0 0 1-6 6h-6.67a6 6 0 0 1-6-6z" stroke="#3a414a" fill="#fff"/><path d="M-1395.18-2673.4l-.08.98-.24 1-.4.94-.52.87-.67.76-.76.66-.87.54-.94.4-1 .23-1 .07h-27.14v-1h27.1l.88-.07.84-.2.8-.34.73-.45.65-.55.56-.65.45-.74.35-.8.2-.84.07-.88v-19.14h1zm-51.32-36.3v-1h31.2v1z" stroke="#3a414a" stroke-width=".05" fill="#3a414a"/><path d="M-1446.5-2709.7h-.5v-1h.5z" fill="#3a414a"/><path d="M-1446.46-2709.68h-.57v-1.05h.57zm-.5-1v.95h.45v-.95z" stroke="#3a414a" stroke-width=".05" fill="#3a414a"/><path d="M-1421.8-2659.8l-12.9-7.63 12.9-7.64z" fill="#3a414a"/><path d="M-1421.3-2658.92l-14.38-8.5 14.4-8.53zm-12.42-8.5l11.43 6.74v-13.5z" stroke="#3a414a" stroke-width=".05" fill="#3a414a"/><use xlink:href="#b" transform="matrix(1,0,0,1,-1415.3141863504225,-2713.93641640254) translate(0 14.222222222222223)"/><path d="M-1380.33-2628.65l-.08 1-.25 1-.4.93-.52.88-.67.77-.77.66-.88.53-.94.4-1 .22-1 .08h-27.14v-1h27.1l.9-.07.83-.2.8-.33.73-.45.65-.56.57-.65.45-.74.33-.8.2-.84.07-.9v-10.46h1zm-54.86-20.68l.02-1h24.88v1z" stroke="#3a414a" stroke-width=".05" fill="#3a414a"/><path d="M-1435.17-2649.33h-.5v-1h.5z" fill="#3a414a"/><path d="M-1435.15-2649.3h-.56v-1.05h.55zm-.5-1v.95h.45v-.95z" stroke="#3a414a" stroke-width=".05" fill="#3a414a"/><path d="M-1406.94-2615.03l-12.9-7.64 12.9-7.63z" fill="#3a414a"/><path d="M-1406.44-2614.15l-14.4-8.52 14.4-8.5zm-12.43-8.52l11.43 6.76v-13.53z" stroke="#3a414a" stroke-width=".05" fill="#3a414a"/><use xlink:href="#b" transform="matrix(1,0,0,1,-1410.296296296296,-2660.4934385288684) translate(0 14.222222222222223)"/><path d="M-1420.33-2557.33h11.16m11.17 0h11.17l.93.07.92.22.87.36.8.5.7.6.62.72.5.8.35.87.22.93.07.94v19.33l-.08.94-.23.9-.36.88-.48.8-.6.72-.73.6-.8.5-.88.37-.9.23-.95.07h-14m-14 0h-13.98" stroke="#3a414a" fill="none"/><path d="M-1420.32-2556.83h-.5v-1h.5z" stroke="#3a414a" stroke-width=".05" fill="#3a414a"/><path d="M-1434.7-2526l12.9-7.64v15.28z" stroke="#3a414a" fill="#3a414a"/><path d="M-1435.43-2504.3h11.17m11.17 0h11.17l.94.07.93.22.87.35.8.5.72.6.6.72.5.8.36.87.22.92.07.94v9.53m0 9.52v9.53l-.07.94-.22.9-.36.88-.5.8-.6.72-.72.6-.8.5-.87.37-.92.2-.93.08h-12.87m-12.88 0h-12.88" stroke="#3a414a" fill="none"/><path d="M-1435.4-2503.8h-.68l.08-.2.2-.8h.4z" stroke="#3a414a" stroke-width=".05" fill="#3a414a"/><path d="M-1446.45-2463.72l12.9-7.64v15.27z" stroke="#3a414a" fill="#3a414a"/><path d="M-1572.9-2714.46h-66.6v-1h66.6zm99.5 0h-60.23v-1h60.24z" stroke="#3a414a" stroke-width=".05" fill="#3a414a"/><path d="M-1639.5-2714.46h-.5v-1h.5z" fill="#3a414a"/><path d="M-1639.46-2714.44h-.57v-1.05h.57zm-.5-1v.95h.45v-.94z" stroke="#3a414a" stroke-width=".05" fill="#3a414a"/><path d="M-1467.5-2714.96l-12.9 7.63v-15.27z" fill="#3a414a"/><path d="M-1466.52-2714.96l-14.4 8.5v-17zm-13.4 6.76l11.43-6.76-11.4-6.76z" stroke="#3a414a" stroke-width=".05" fill="#3a414a"/><use xlink:href="#b" transform="matrix(1,0,0,1,-1572.890262465817,-2725.629667259949) translate(0 14.222222222222223)"/><path d="M-1700-2738.96a6 6 0 0 1 6-6h48a6 6 0 0 1 6 6v48a6 6 0 0 1-6 6h-48a6 6 0 0 1-6-6z" stroke="#000" stroke-opacity="0" fill="#fff"/><use xlink:href="#c" transform="matrix(1,0,0,1,-1695,-2739.9630005932827) translate(15.74074074074074 30.27777777777778)"/><path d="M-1633.13-2463.7h9.25m9.24 0h18.5m9.24 0h18.5m9.23 0h18.5m9.23 0h18.5m9.24 0h18.5m9.23 0h9.25" stroke="#3a414a" fill="none"/><path d="M-1639.02-2463.7l12.9-7.62v15.27z" stroke="#3a414a" fill="#3a414a"/><path d="M-1466.35-2464l.33.8h-.72v-1h.34z" stroke="#3a414a" stroke-width=".05" fill="#3a414a"/><path d="M-1700-2487.7a6 6 0 0 1 6-6h48a6 6 0 0 1 6 6v48a6 6 0 0 1-6 6h-48a6 6 0 0 1-6-6z" stroke="#000" stroke-opacity="0" fill="#fff"/><use xlink:href="#c" transform="matrix(1,0,0,1,-1695,-2488.6880413525496) translate(15.74074074074074 30.27777777777778)"/><defs><path fill="#3a414a" d="M141 0L90-78 38 0H4l68-98-65-92h35l48 74 47-74h35l-64 92 68 98h-35" id="d"/><path fill="#3a414a" d="M33-154v-36h34v36H33zM33 0v-36h34V0H33" id="e"/><path fill="#3a414a" d="M195 0l-74-108L45 0H8l94-129-87-119h37l69 98 67-98h37l-84 118L233 0h-38" id="f"/><g id="a"><use transform="matrix(0.06172839506172839,0,0,0.06172839506172839,0,0)" xlink:href="#d"/><use transform="matrix(0.06172839506172839,0,0,0.06172839506172839,11.11111111111111,0)" xlink:href="#e"/><use transform="matrix(0.06172839506172839,0,0,0.06172839506172839,17.28395061728395,0)" xlink:href="#f"/><path fill="#3a414a" d="M-1.1 1.54h34.3v1.63H-1.1z"/></g><path fill="#333" d="M121-226c-27-7-43 5-38 36h38v33H83V0H34v-157H6v-33h28c-9-59 32-81 87-68v32" id="g"/><path fill="#333" d="M110-194c64 0 96 36 96 99 0 64-35 99-97 99-61 0-95-36-95-99 0-62 34-99 96-99zm-1 164c35 0 45-28 45-65 0-40-10-65-43-65-34 0-45 26-45 65 0 36 10 65 43 65" id="h"/><path fill="#333" d="M67-93c0 74 22 123 53 168H70C40 30 18-18 18-93s22-123 52-168h50c-32 44-53 94-53 168" id="i"/><path fill="#333" d="M102-93c0 74-22 123-52 168H0C30 29 54-18 53-93c0-74-22-123-53-168h50c30 45 52 94 52 168" id="j"/><g id="b"><use transform="matrix(0.04938271604938272,0,0,0.04938271604938272,0,0)" xlink:href="#g"/><use transform="matrix(0.04938271604938272,0,0,0.04938271604938272,5.8765432098765435,0)" xlink:href="#h"/><use transform="matrix(0.04938271604938272,0,0,0.04938271604938272,16.691358024691358,0)" xlink:href="#h"/><use transform="matrix(0.04938271604938272,0,0,0.04938271604938272,27.50617283950617,0)" xlink:href="#i"/><use transform="matrix(0.04938271604938272,0,0,0.04938271604938272,33.382716049382715,0)" xlink:href="#j"/></g><path fill="#3a414a" d="M33 0v-38h34V0H33" id="k"/><g id="c"><use transform="matrix(0.06172839506172839,0,0,0.06172839506172839,0,0)" xlink:href="#k"/><use transform="matrix(0.06172839506172839,0,0,0.06172839506172839,6.172839506172839,0)" xlink:href="#k"/><use transform="matrix(0.06172839506172839,0,0,0.06172839506172839,12.345679012345679,0)" xlink:href="#k"/></g></defs></g></svg>