<svg xmlns="http://www.w3.org/2000/svg" xmlns:xlink="http://www.w3.org/1999/xlink" xmlns:lucid="lucid" width="606.33" height="540.5"><g transform="translate(1180.5011009850843 2160.501100985084)" lucid:page-tab-id="0_0"><path d="M-1160-2129.5v38.75M-1160-2129.5v-.5M-1160-2090.76v.5M-1159.78-2089.8l19.56 39.35M-1159.77-2089.8l-.23-.45M-1140.23-2050.46l.23.46M-1179.78-2050.45l19.56-39.35M-1179.77-2050.46l-.23.46M-1160.23-2089.8l.23-.45M-1179.65-2090.6l19.3-19.42M-1179.64-2090.6l-.36.35M-1160.36-2110l.36-.38M-1140.35-2090.6l-19.3-19.42M-1140.36-2090.6l.36.35M-1159.64-2110l-.36-.38" stroke="#3a414a" fill="none"/><path d="M-1140-2140c0 11.05-8.95 20-20 20s-20-8.95-20-20 8.95-20 20-20 20 8.95 20 20zM-1025.33-2154a6 6 0 0 1 6-6H-866a6 6 0 0 1 6 6v98a6 6 0 0 1-6 6h-153.33a6 6 0 0 1-6-6z" stroke="#3a414a" fill="#fff"/><use xlink:href="#a" transform="matrix(1,0,0,1,-1020.3333333333335,-2155) translate(61.95061728395062 55.27777777777778)"/><path d="M-740-2154a6 6 0 0 1 6-6h153.33a6 6 0 0 1 6 6v98a6 6 0 0 1-6 6H-734a6 6 0 0 1-6-6z" stroke="#3a414a" fill="#fff"/><use xlink:href="#b" transform="matrix(1,0,0,1,-735,-2155) translate(61.95061728395062 55.27777777777778)"/><path d="M-1160-1699v8.72m0 8.72v17.45m0 8.7v17.46m0 8.72v8.72" stroke="#3a414a" fill="none"/><path d="M-1159.5-1699h-1v-.5h1z" stroke="#3a414a" stroke-width=".05" fill="#3a414a"/><path d="M-1160-1620.5v.5M-1160-2039.5v11.5m0 11.5v11.5M-1160-2039.5v-.5" stroke="#3a414a" fill="none"/><path d="M-1159.5-2004.5h-1v-.5h1z" stroke="#3a414a" stroke-width=".05" fill="#3a414a"/><path d="M-940-2039.5v9.98m0 9.97v19.95m0 9.98v19.95m0 9.98v19.96m0 9.98v19.95m0 9.97v19.95m0 9.98v19.95m0 9.97v19.96m0 9.97v19.95m0 9.98v19.95m0 9.98v19.96m0 9.98v19.95m0 9.97v19.95m0 9.98v19.95m0 9.97v9.98M-940-2039.5v-.5M-940-1620.5v.5M-660-2049v10.2m0 10.2v20.4m0 10.2v20.42m0 10.2v20.4m0 10.2v20.4m0 10.2v20.42m0 10.2v20.4m0 10.2v20.4m0 10.2v20.42m0 10.2v20.4m0 10.2v20.4m0 10.22v20.4m0 10.2v20.4m0 10.2v20.4m0 10.22v10.2" stroke="#3a414a" fill="none"/><path d="M-659.5-2049h-1v-.5h1z" stroke="#3a414a" stroke-width=".05" fill="#3a414a"/><path d="M-660-1620.5v.5" stroke="#3a414a" fill="none"/><path d="M-1169.33-1998a6 6 0 0 1 6-6h6.66a6 6 0 0 1 6 6v292a6 6 0 0 1-6 6h-6.66a6 6 0 0 1-6-6zM-952-1948a6 6 0 0 1 6-6h6.67a6 6 0 0 1 6 6v192a6 6 0 0 1-6 6H-946a6 6 0 0 1-6-6zM-666.67-1908.33a6 6 0 0 1 6-6h6.67a6 6 0 0 1 6 6v112.66a6 6 0 0 1-6 6h-6.67a6 6 0 0 1-6-6z" stroke="#3a414a" fill="#fff"/><path d="M-1087.63-1922.17h-62.04v-1h62.04zm128.26 0h-89v-1h89z" stroke="#3a414a" stroke-width=".05" fill="#3a414a"/><path d="M-1149.65-1922.17h-.52v-1h.52z" fill="#3a414a"/><path d="M-1149.63-1922.14h-.56v-1.05h.57zm-.5-1v.95h.45v-.94z" stroke="#3a414a" stroke-width=".05" fill="#3a414a"/><path d="M-953.48-1922.67l-12.9 7.64v-15.27z" fill="#3a414a"/><path d="M-952.5-1922.67l-14.4 8.52v-17.03zm-13.4 6.76l11.44-6.77-11.43-6.76z" stroke="#3a414a" stroke-width=".05" fill="#3a414a"/><use xlink:href="#c" transform="matrix(1,0,0,1,-1087.6296296296296,-1933.333329394951) translate(0 14.222222222222223)"/><path d="M-819.68-1899.5h-112.65v-1h112.65zm145.64 0h-106.28v-1h106.28z" stroke="#3a414a" stroke-width=".05" fill="#3a414a"/><path d="M-932.32-1899.5h-.5v-1h.5z" fill="#3a414a"/><path d="M-932.3-1899.47h-.56v-1.06h.56zm-.5-1v.94h.45v-.94z" stroke="#3a414a" stroke-width=".05" fill="#3a414a"/><path d="M-668.15-1900l-12.9 7.64v-15.28z" fill="#3a414a"/><path d="M-667.17-1900l-14.4 8.5v-17zm-13.4 6.76l11.44-6.76-11.43-6.76z" stroke="#3a414a" stroke-width=".05" fill="#3a414a"/><use xlink:href="#d" transform="matrix(1,0,0,1,-819.6790459807876,-1910.6666666666663) translate(0 14.222222222222223)"/><path d="M-925.96-1800h9.57m9.57 0h19.14m9.57 0H-859m9.57 0h19.13m9.57 0h19.13m9.57 0h19.13m9.57 0h19.13m9.57 0h19.13m9.57 0h19.13m9.57 0h9.56" stroke="#3a414a" fill="none"/><path d="M-931.85-1800l12.9-7.64v15.28z" stroke="#3a414a" fill="#3a414a"/><path d="M-667.17-1799.5h-.5v-1h.5z" stroke="#3a414a" stroke-width=".05" fill="#3a414a"/><path d="M-1143.3-1760h10.58m10.57 0h21.14m10.57 0h21.14m10.58 0h21.14m10.58 0h21.14m10.57 0h21.16m10.57 0H-953" stroke="#3a414a" fill="none"/><path d="M-1149.18-1760l12.9-7.64v15.28z" stroke="#3a414a" fill="#3a414a"/><path d="M-952.5-1759.5h-.5v-1h.5z" stroke="#3a414a" stroke-width=".05" fill="#3a414a"/><defs><path fill="#3a414a" d="M141 0L90-78 38 0H4l68-98-65-92h35l48 74 47-74h35l-64 92 68 98h-35" id="e"/><path fill="#3a414a" d="M33-154v-36h34v36H33zM33 0v-36h34V0H33" id="f"/><path fill="#3a414a" d="M195 0l-74-108L45 0H8l94-129-87-119h37l69 98 67-98h37l-84 118L233 0h-38" id="g"/><g id="a"><use transform="matrix(0.06172839506172839,0,0,0.06172839506172839,0,0)" xlink:href="#e"/><use transform="matrix(0.06172839506172839,0,0,0.06172839506172839,11.11111111111111,0)" xlink:href="#f"/><use transform="matrix(0.06172839506172839,0,0,0.06172839506172839,17.28395061728395,0)" xlink:href="#g"/><path fill="#3a414a" d="M-1.1 1.54h34.3v1.63H-1.1z"/></g><path fill="#3a414a" d="M179-190L93 31C79 59 56 82 12 73V49c39 6 53-20 64-50L1-190h34L92-34l54-156h33" id="h"/><path fill="#3a414a" d="M137-103V0h-34v-103L8-248h37l75 118 75-118h37" id="i"/><g id="b"><use transform="matrix(0.06172839506172839,0,0,0.06172839506172839,0,0)" xlink:href="#h"/><use transform="matrix(0.06172839506172839,0,0,0.06172839506172839,11.11111111111111,0)" xlink:href="#f"/><use transform="matrix(0.06172839506172839,0,0,0.06172839506172839,17.28395061728395,0)" xlink:href="#i"/><path fill="#3a414a" d="M-1.1 1.54h34.3v1.63H-1.1z"/></g><path fill="#333" d="M121-226c-27-7-43 5-38 36h38v33H83V0H34v-157H6v-33h28c-9-59 32-81 87-68v32" id="j"/><path fill="#333" d="M110-194c64 0 96 36 96 99 0 64-35 99-97 99-61 0-95-36-95-99 0-62 34-99 96-99zm-1 164c35 0 45-28 45-65 0-40-10-65-43-65-34 0-45 26-45 65 0 36 10 65 43 65" id="k"/><path fill="#333" d="M67-93c0 74 22 123 53 168H70C40 30 18-18 18-93s22-123 52-168h50c-32 44-53 94-53 168" id="l"/><path fill="#333" d="M102-93c0 74-22 123-52 168H0C30 29 54-18 53-93c0-74-22-123-53-168h50c30 45 52 94 52 168" id="m"/><g id="c"><use transform="matrix(0.04938271604938272,0,0,0.04938271604938272,0,0)" xlink:href="#j"/><use transform="matrix(0.04938271604938272,0,0,0.04938271604938272,5.8765432098765435,0)" xlink:href="#k"/><use transform="matrix(0.04938271604938272,0,0,0.04938271604938272,16.691358024691358,0)" xlink:href="#k"/><use transform="matrix(0.04938271604938272,0,0,0.04938271604938272,27.50617283950617,0)" xlink:href="#l"/><use transform="matrix(0.04938271604938272,0,0,0.04938271604938272,33.382716049382715,0)" xlink:href="#m"/></g><path fill="#333" d="M135-194c52 0 70 43 70 98 0 56-19 99-73 100-30 1-46-15-58-35L72 0H24l1-261h50v104c11-23 29-37 60-37zM114-30c31 0 40-27 40-66 0-37-7-63-39-63s-41 28-41 65c0 36 8 64 40 64" id="n"/><path fill="#333" d="M133-34C117-15 103 5 69 4 32 3 11-16 11-54c-1-60 55-63 116-61 1-26-3-47-28-47-18 1-26 9-28 27l-52-2c7-38 36-58 82-57s74 22 75 68l1 82c-1 14 12 18 25 15v27c-30 8-71 5-69-32zm-48 3c29 0 43-24 42-57-32 0-66-3-65 30 0 17 8 27 23 27" id="o"/><path fill="#333" d="M135-150c-39-12-60 13-60 57V0H25l-1-190h47c2 13-1 29 3 40 6-28 27-53 61-41v41" id="p"/><g id="d"><use transform="matrix(0.04938271604938272,0,0,0.04938271604938272,0,0)" xlink:href="#n"/><use transform="matrix(0.04938271604938272,0,0,0.04938271604938272,10.814814814814815,0)" xlink:href="#o"/><use transform="matrix(0.04938271604938272,0,0,0.04938271604938272,20.69135802469136,0)" xlink:href="#p"/><use transform="matrix(0.04938271604938272,0,0,0.04938271604938272,27.604938271604947,0)" xlink:href="#l"/><use transform="matrix(0.04938271604938272,0,0,0.04938271604938272,33.48148148148149,0)" xlink:href="#m"/></g></defs></g></svg>