<svg xmlns="http://www.w3.org/2000/svg" xmlns:xlink="http://www.w3.org/1999/xlink" xmlns:lucid="lucid" width="760" height="280"><g transform="translate(-340 -200)" lucid:page-tab-id="0_0"><path d="M0 0h1500v500H0z" fill="#fff"/><path d="M340 206a6 6 0 0 1 6-6h748a6 6 0 0 1 6 6v268a6 6 0 0 1-6 6H346a6 6 0 0 1-6-6z" stroke="#000" stroke-opacity="0" stroke-width="2" fill="#fff"/><path d="M766.47 308.2l2.63-10.32 1.35-8.7.43-7.13-.2-5.95-.67-5.04-.98-4.3-1.23-3.74-1.44-3.25-1.6-2.86-1.74-2.5-1.87-2.22-2-1.96-2.1-1.7-2.2-1.48-2.35-1.25-2.44-1.04-2.54-.8-2.64-.55-2.72-.3-2.77-.05-2.82.2-2.8.5-2.8.75-2.73 1.03-2.65 1.3-2.53 1.55-2.4 1.8-2.27 2.07-2.1 2.32-1.92 2.57-1.73 2.84-1.53 3.13-1.3 3.48-1.02 3.83-.73 4.28-.35 4.78.12 5.4.73 6.2.4 1.92" stroke="#3a414a" stroke-linejoin="round" fill="none"/><path d="M766.47 308.18l-.12.5" stroke="#3a414a" fill="none"/><path d="M713.1 307.13l-8.44-12.4 8.9-2.6z" stroke="#3a414a" fill="#3a414a"/><use xlink:href="#a" transform="matrix(1,0,0,1,637.4677260158336,213.23311980599493) translate(0 14.222222222222223)"/><use xlink:href="#b" transform="matrix(1,0,0,1,637.4677260158336,213.23311980599493) translate(92.59259259259258 14.222222222222223)"/><use xlink:href="#c" transform="matrix(1,0,0,1,637.4677260158336,213.23311980599493) translate(107.90123456790123 14.222222222222223)"/><use xlink:href="#d" transform="matrix(1,0,0,1,637.4677260158336,213.23311980599493) translate(181.9753086419753 14.222222222222223)"/><path d="M761.46 375.47l4.63 13.2 2.3 10.4.85 8.15-.1 6.6-.75 5.42-1.18 4.58-1.5 3.9-1.8 3.4-2.05 2.94-2.27 2.58-2.5 2.23-2.72 1.9-2.96 1.6-3.17 1.26-3.37.9-3.54.5-3.64.1-3.67-.36-3.62-.77-3.48-1.2-3.28-1.56-3.05-1.93-2.78-2.23-2.48-2.55-2.2-2.85-1.86-3.16-1.56-3.5-1.22-3.9-.8-4.4-.34-4.98.3-5.77 1.17-6.8 2.43-8.17.5-1.2" stroke="#3a414a" stroke-linejoin="round" fill="none"/><path d="M761.46 375.48l-.17-.5" stroke="#3a414a" fill="none"/><path d="M718.07 376.45l-1.9 14.88-8.38-3.96z" stroke="#3a414a" fill="#3a414a"/><use xlink:href="#e" transform="matrix(1,0,0,1,680.4175301987557,449.0017248052344) translate(0 14.222222222222223)"/><path d="M781.3 326.25l.2-.3.54-.7.62-.76.7-.78.8-.8.88-.85 1.02-.88 1.17-.93 1.34-.98 1.56-1.04 1.8-1.1 2.13-1.15 2.5-1.23 2.97-1.32 3.56-1.4 4.3-1.5 5.23-1.58 6.4-1.63 7.84-1.66 9.57-1.6L848 302.6l13.6-1.13 15.32-.64h16.33l16.24.7 15.07 1.26 13.26 1.67 11.2 1.88 9.25 1.97 7.55 1.94 6.16 1.84 5.03 1.76 4.14 1.64 3.43 1.52.9.45" stroke="#3a414a" stroke-linejoin="round" fill="none"/><path d="M781.68 326.52l-.68.98v-1.46z" stroke="#3a414a" stroke-width=".05" fill="#3a414a"/><path d="M997.66 325.76l-14.4-4.18 5.2-7.67z" stroke="#3a414a" fill="#3a414a"/><use xlink:href="#f" transform="matrix(1,0,0,1,792.2559229130119,275.53413384762484) translate(0 14.222222222222223)"/><use xlink:href="#g" transform="matrix(1,0,0,1,792.2559229130119,275.53413384762484) translate(53.135802469135804 14.222222222222223)"/><path d="M998.64 351l-.6.58-1.07.96-1.23 1-1.4 1.03-1.6 1.1-1.83 1.14-2.13 1.22-2.5 1.28-2.9 1.34-3.48 1.42-4.13 1.5-4.93 1.55-5.96 1.6-7.2 1.64-8.73 1.58-10.5 1.46-12.47 1.2-14.38.77-15.92.2-16.66-.5-16.37-1.15-15.12-1.7-13.3-2.08-11.26-2.24-9.36-2.27-7.7-2.2-6.3-2.1-3.88-1.48" stroke="#3a414a" stroke-linejoin="round" fill="none"/><path d="M999 351.33l-.04.04-.66-.7.7-.66z" stroke="#3a414a" stroke-width=".05" fill="#3a414a"/><path d="M782.46 351.37l14.85 2.07-4.04 8.34z" stroke="#3a414a" fill="#3a414a"/><use xlink:href="#h" transform="matrix(1,0,0,1,876.3641893499016,377.47855356167486) translate(0 14.222222222222223)"/><path d="M500.3 324.85l.25-.38.62-.82.7-.83.77-.86.87-.9 1-.92 1.1-.96 1.28-1 1.44-1.05 1.66-1.1 1.9-1.15 2.22-1.2 2.58-1.3 3.02-1.33 3.56-1.4 4.23-1.48 5.02-1.5 6-1.55 7.16-1.5 8.48-1.44 9.92-1.24 11.35-.95 12.53-.52h13.23l13.24.56 12.6 1.06 11.43 1.44 10.02 1.7 8.56 1.82 7.23 1.85 6.05 1.84 5.07 1.77 4.26 1.7 3.6 1.6 2.36 1.17" stroke="#3a414a" stroke-linejoin="round" fill="none"/><path d="M500.68 325.1l-.68 1v-1.47z" stroke="#3a414a" stroke-width=".05" fill="#3a414a"/><path d="M697.67 324.4l-14.34-4.4 5.32-7.58z" stroke="#3a414a" fill="#3a414a"/><use xlink:href="#i" transform="matrix(1,0,0,1,561.9634917236631,274.29323580039255) translate(0 14.222222222222223)"/><path d="M698.64 351l-.74.72-1.23 1.1-1.38 1.1-1.57 1.18-1.76 1.2-2 1.25-2.3 1.3-2.65 1.36-3.05 1.4-3.54 1.46-4.13 1.5-4.82 1.5-5.67 1.54-6.65 1.5-7.8 1.42-9.08 1.26-10.43 1-11.7.64-12.75.16-13.35-.4-13.34-.94-12.73-1.44-11.7-1.82-10.4-2.07-9-2.18-7.73-2.22-6.55-2.2-5.56-2.1-.4-.17" stroke="#3a414a" stroke-linejoin="round" fill="none"/><path d="M699 351.33l-.04.04-.66-.7.7-.66z" stroke="#3a414a" stroke-width=".05" fill="#3a414a"/><path d="M501.45 351.44l14.83 2.23-4.14 8.3z" stroke="#3a414a" fill="#3a414a"/><use xlink:href="#j" transform="matrix(1,0,0,1,549.6357551499818,377.53844772431046) translate(0 14.222222222222223)"/><path d="M381.5 340h21.12" stroke="#3a414a" fill="none"/><path d="M381.52 340.48h-.58l.07-.47-.05-.48h.57z" stroke="#3a414a" stroke-width=".05" fill="#3a414a"/><path d="M417.38 340l-14.26 4.63v-9.26z" stroke="#3a414a" fill="#3a414a"/><path d="M380 340c0 5.52-4.48 10-10 10s-10-4.48-10-10 4.48-10 10-10 10 4.48 10 10z" stroke="#282c33" stroke-width="2"/><path d="M431 310c-6.63 0-12 5.37-12 12v36c0 6.63 5.37 12 12 12h56c6.63 0 12-5.37 12-12v-36c0-6.63-5.37-12-12-12z" stroke="#282c33" stroke-width="2" fill="#fff"/><use xlink:href="#k" transform="matrix(1,0,0,1,426.9993762803116,318) translate(1.7839506172839492 26.444444444444443)"/><path d="M712 310c-6.63 0-12 5.37-12 12v36c0 6.63 5.37 12 12 12h56c6.63 0 12-5.37 12-12v-36c0-6.63-5.37-12-12-12z" stroke="#282c33" stroke-width="2" fill="#fff"/><g><use xlink:href="#l" transform="matrix(1,0,0,1,708,318) translate(9.253086419753089 26.444444444444443)"/></g><path d="M1012 310c-6.63 0-12 5.37-12 12v36c0 6.63 5.37 12 12 12h56c6.63 0 12-5.37 12-12v-36c0-6.63-5.37-12-12-12z" stroke="#282c33" stroke-width="2" fill="#fff"/><g><use xlink:href="#m" transform="matrix(1,0,0,1,1008,318) translate(17.864197530864196 26.444444444444443)"/></g><defs><path fill="#3a414a" d="M135-194c53 0 70 44 70 98 0 56-19 98-73 100-31 1-45-17-59-34 3 33 2 69 2 105H25l-1-265h48c2 10 0 23 3 31 11-24 29-35 60-35zM114-30c33 0 39-31 40-66 0-38-9-64-40-64-56 0-55 130 0 130" id="n"/><path fill="#3a414a" d="M85 4C-2 5 27-109 22-190h50c7 57-23 150 33 157 60-5 35-97 40-157h50l1 190h-47c-2-12 1-28-3-38-12 25-28 42-61 42" id="o"/><path fill="#3a414a" d="M137-138c1-29-70-34-71-4 15 46 118 7 119 86 1 83-164 76-172 9l43-7c4 19 20 25 44 25 33 8 57-30 24-41C81-84 22-81 20-136c-2-80 154-74 161-7" id="p"/><path fill="#3a414a" d="M114-157C55-157 80-60 75 0H25v-261h50l-1 109c12-26 28-41 61-42 86-1 58 113 63 194h-50c-7-57 23-157-34-157" id="q"/><path fill="#3a414a" d="M35-132v-50h50v50H35zM35 0v-49h50V0H35" id="r"/><path fill="#3a414a" d="M20 75v-336h95v34H67V41h48v34H20" id="s"/><path fill="#3a414a" d="M25-224v-37h50v37H25zM25 0v-190h50V0H25" id="t"/><path fill="#3a414a" d="M12 0v-35l95-120H19v-35h142v35L67-36h103V0H12" id="u"/><path fill="#3a414a" d="M185-48c-13 30-37 53-82 52C43 2 14-33 14-96s30-98 90-98c62 0 83 45 84 108H66c0 31 8 55 39 56 18 0 30-7 34-22zm-45-69c5-46-57-63-70-21-2 6-4 13-4 21h74" id="v"/><g id="a"><use transform="matrix(0.04938271604938272,0,0,0.04938271604938272,0,0)" xlink:href="#n"/><use transform="matrix(0.04938271604938272,0,0,0.04938271604938272,10.814814814814815,0)" xlink:href="#o"/><use transform="matrix(0.04938271604938272,0,0,0.04938271604938272,21.62962962962963,0)" xlink:href="#p"/><use transform="matrix(0.04938271604938272,0,0,0.04938271604938272,31.506172839506174,0)" xlink:href="#q"/><use transform="matrix(0.04938271604938272,0,0,0.04938271604938272,42.32098765432099,0)" xlink:href="#r"/><use transform="matrix(0.04938271604938272,0,0,0.04938271604938272,48.19753086419753,0)" xlink:href="#s"/><use transform="matrix(0.04938271604938272,0,0,0.04938271604938272,54.074074074074076,0)" xlink:href="#p"/><use transform="matrix(0.04938271604938272,0,0,0.04938271604938272,63.95061728395062,0)" xlink:href="#t"/><use transform="matrix(0.04938271604938272,0,0,0.04938271604938272,68.88888888888889,0)" xlink:href="#u"/><use transform="matrix(0.04938271604938272,0,0,0.04938271604938272,77.77777777777777,0)" xlink:href="#v"/></g><path fill="#3a414a" d="M15-91v-56l181-69v40L49-119l147 57v40" id="w"/><use transform="matrix(0.04938271604938272,0,0,0.04938271604938272,0,0)" xlink:href="#w" id="b"/><path fill="#3a414a" d="M220-157c-53 9-28 100-34 157h-49v-107c1-27-5-49-29-50C55-147 81-57 75 0H25l-1-190h47c2 12-1 28 3 38 10-53 101-56 108 0 13-22 24-43 59-42 82 1 51 116 57 194h-49v-107c-1-25-5-48-29-50" id="x"/><path fill="#3a414a" d="M133-34C117-15 103 5 69 4 32 3 11-16 11-54c-1-60 55-63 116-61 1-26-3-47-28-47-18 1-26 9-28 27l-52-2c7-38 36-58 82-57s74 22 75 68l1 82c-1 14 12 18 25 15v27c-30 8-71 5-69-32zm-48 3c29 0 43-24 42-57-32 0-66-3-65 30 0 17 8 27 23 27" id="y"/><path fill="#3a414a" d="M144 0l-44-69L55 0H2l70-98-66-92h53l41 62 40-62h54l-67 91 71 99h-54" id="z"/><g id="c"><use transform="matrix(0.04938271604938272,0,0,0.04938271604938272,0,0)" xlink:href="#x"/><use transform="matrix(0.04938271604938272,0,0,0.04938271604938272,15.80246913580247,0)" xlink:href="#y"/><use transform="matrix(0.04938271604938272,0,0,0.04938271604938272,25.679012345679016,0)" xlink:href="#z"/><use transform="matrix(0.04938271604938272,0,0,0.04938271604938272,35.55555555555556,0)" xlink:href="#p"/><use transform="matrix(0.04938271604938272,0,0,0.04938271604938272,45.4320987654321,0)" xlink:href="#t"/><use transform="matrix(0.04938271604938272,0,0,0.04938271604938272,50.370370370370374,0)" xlink:href="#u"/><use transform="matrix(0.04938271604938272,0,0,0.04938271604938272,59.25925925925927,0)" xlink:href="#v"/></g><path fill="#3a414a" d="M14-72v-43h91v43H14" id="A"/><path fill="#3a414a" d="M23 0v-37h61v-169l-59 37v-38l62-41h46v211h57V0H23" id="B"/><path fill="#3a414a" d="M4 75V41h49v-268H4v-34h96V75H4" id="C"/><g id="d"><use transform="matrix(0.04938271604938272,0,0,0.04938271604938272,0,0)" xlink:href="#A"/><use transform="matrix(0.04938271604938272,0,0,0.04938271604938272,5.8765432098765435,0)" xlink:href="#B"/><use transform="matrix(0.04938271604938272,0,0,0.04938271604938272,15.753086419753087,0)" xlink:href="#C"/></g><path fill="#333" d="M135-194c53 0 70 44 70 98 0 56-19 98-73 100-31 1-45-17-59-34 3 33 2 69 2 105H25l-1-265h48c2 10 0 23 3 31 11-24 29-35 60-35zM114-30c33 0 39-31 40-66 0-38-9-64-40-64-56 0-55 130 0 130" id="D"/><path fill="#333" d="M110-194c64 0 96 36 96 99 0 64-35 99-97 99-61 0-95-36-95-99 0-62 34-99 96-99zm-1 164c35 0 45-28 45-65 0-40-10-65-43-65-34 0-45 26-45 65 0 36 10 65 43 65" id="E"/><path fill="#333" d="M35-132v-50h50v50H35zM35 0v-49h50V0H35" id="F"/><path fill="#333" d="M20 75v-336h95v34H67V41h48v34H20" id="G"/><path fill="#333" d="M137-138c1-29-70-34-71-4 15 46 118 7 119 86 1 83-164 76-172 9l43-7c4 19 20 25 44 25 33 8 57-30 24-41C81-84 22-81 20-136c-2-80 154-74 161-7" id="H"/><path fill="#333" d="M25-224v-37h50v37H25zM25 0v-190h50V0H25" id="I"/><path fill="#333" d="M12 0v-35l95-120H19v-35h142v35L67-36h103V0H12" id="J"/><path fill="#333" d="M185-48c-13 30-37 53-82 52C43 2 14-33 14-96s30-98 90-98c62 0 83 45 84 108H66c0 31 8 55 39 56 18 0 30-7 34-22zm-45-69c5-46-57-63-70-21-2 6-4 13-4 21h74" id="K"/><path fill="#333" d="M15-22v-40l146-57-146-57v-40l181 69v56" id="L"/><path fill="#333" d="M15-148v-39h180v39H15zm0 97v-39h180v39H15" id="M"/><path fill="#333" d="M23 0v-37h61v-169l-59 37v-38l62-41h46v211h57V0H23" id="N"/><path fill="#333" d="M4 75V41h49v-268H4v-34h96V75H4" id="O"/><g id="e"><use transform="matrix(0.04938271604938272,0,0,0.04938271604938272,0,0)" xlink:href="#D"/><use transform="matrix(0.04938271604938272,0,0,0.04938271604938272,10.814814814814815,0)" xlink:href="#E"/><use transform="matrix(0.04938271604938272,0,0,0.04938271604938272,21.62962962962963,0)" xlink:href="#D"/><use transform="matrix(0.04938271604938272,0,0,0.04938271604938272,32.44444444444444,0)" xlink:href="#F"/><use transform="matrix(0.04938271604938272,0,0,0.04938271604938272,38.32098765432099,0)" xlink:href="#G"/><use transform="matrix(0.04938271604938272,0,0,0.04938271604938272,44.19753086419753,0)" xlink:href="#H"/><use transform="matrix(0.04938271604938272,0,0,0.04938271604938272,54.074074074074076,0)" xlink:href="#I"/><use transform="matrix(0.04938271604938272,0,0,0.04938271604938272,59.01234567901235,0)" xlink:href="#J"/><use transform="matrix(0.04938271604938272,0,0,0.04938271604938272,67.90123456790124,0)" xlink:href="#K"/><use transform="matrix(0.04938271604938272,0,0,0.04938271604938272,77.77777777777779,0)" xlink:href="#L"/><use transform="matrix(0.04938271604938272,0,0,0.04938271604938272,88.14814814814815,0)" xlink:href="#M"/><use transform="matrix(0.04938271604938272,0,0,0.04938271604938272,98.51851851851852,0)" xlink:href="#N"/><use transform="matrix(0.04938271604938272,0,0,0.04938271604938272,108.39506172839508,0)" xlink:href="#O"/></g><path fill="#333" d="M85 4C-2 5 27-109 22-190h50c7 57-23 150 33 157 60-5 35-97 40-157h50l1 190h-47c-2-12 1-28-3-38-12 25-28 42-61 42" id="P"/><path fill="#333" d="M114-157C55-157 80-60 75 0H25v-261h50l-1 109c12-26 28-41 61-42 86-1 58 113 63 194h-50c-7-57 23-157-34-157" id="Q"/><g id="f"><use transform="matrix(0.04938271604938272,0,0,0.04938271604938272,0,0)" xlink:href="#D"/><use transform="matrix(0.04938271604938272,0,0,0.04938271604938272,10.814814814814815,0)" xlink:href="#P"/><use transform="matrix(0.04938271604938272,0,0,0.04938271604938272,21.62962962962963,0)" xlink:href="#H"/><use transform="matrix(0.04938271604938272,0,0,0.04938271604938272,31.506172839506174,0)" xlink:href="#Q"/><use transform="matrix(0.04938271604938272,0,0,0.04938271604938272,42.32098765432099,0)" xlink:href="#F"/></g><path fill="#333" d="M220-157c-53 9-28 100-34 157h-49v-107c1-27-5-49-29-50C55-147 81-57 75 0H25l-1-190h47c2 12-1 28 3 38 10-53 101-56 108 0 13-22 24-43 59-42 82 1 51 116 57 194h-49v-107c-1-25-5-48-29-50" id="R"/><path fill="#333" d="M133-34C117-15 103 5 69 4 32 3 11-16 11-54c-1-60 55-63 116-61 1-26-3-47-28-47-18 1-26 9-28 27l-52-2c7-38 36-58 82-57s74 22 75 68l1 82c-1 14 12 18 25 15v27c-30 8-71 5-69-32zm-48 3c29 0 43-24 42-57-32 0-66-3-65 30 0 17 8 27 23 27" id="S"/><path fill="#333" d="M144 0l-44-69L55 0H2l70-98-66-92h53l41 62 40-62h54l-67 91 71 99h-54" id="T"/><path fill="#333" d="M14-72v-43h91v43H14" id="U"/><g id="g"><use transform="matrix(0.04938271604938272,0,0,0.04938271604938272,0,0)" xlink:href="#G"/><use transform="matrix(0.04938271604938272,0,0,0.04938271604938272,5.8765432098765435,0)" xlink:href="#H"/><use transform="matrix(0.04938271604938272,0,0,0.04938271604938272,15.753086419753087,0)" xlink:href="#I"/><use transform="matrix(0.04938271604938272,0,0,0.04938271604938272,20.69135802469136,0)" xlink:href="#J"/><use transform="matrix(0.04938271604938272,0,0,0.04938271604938272,29.58024691358025,0)" xlink:href="#K"/><use transform="matrix(0.04938271604938272,0,0,0.04938271604938272,39.4567901234568,0)" xlink:href="#M"/><use transform="matrix(0.04938271604938272,0,0,0.04938271604938272,49.82716049382717,0)" xlink:href="#R"/><use transform="matrix(0.04938271604938272,0,0,0.04938271604938272,65.62962962962965,0)" xlink:href="#S"/><use transform="matrix(0.04938271604938272,0,0,0.04938271604938272,75.50617283950619,0)" xlink:href="#T"/><use transform="matrix(0.04938271604938272,0,0,0.04938271604938272,85.38271604938274,0)" xlink:href="#H"/><use transform="matrix(0.04938271604938272,0,0,0.04938271604938272,95.25925925925928,0)" xlink:href="#I"/><use transform="matrix(0.04938271604938272,0,0,0.04938271604938272,100.19753086419755,0)" xlink:href="#J"/><use transform="matrix(0.04938271604938272,0,0,0.04938271604938272,109.08641975308643,0)" xlink:href="#K"/><use transform="matrix(0.04938271604938272,0,0,0.04938271604938272,118.96296296296298,0)" xlink:href="#U"/><use transform="matrix(0.04938271604938272,0,0,0.04938271604938272,124.83950617283952,0)" xlink:href="#N"/><use transform="matrix(0.04938271604938272,0,0,0.04938271604938272,134.71604938271605,0)" xlink:href="#O"/></g><path fill="#3a414a" d="M110-194c64 0 96 36 96 99 0 64-35 99-97 99-61 0-95-36-95-99 0-62 34-99 96-99zm-1 164c35 0 45-28 45-65 0-40-10-65-43-65-34 0-45 26-45 65 0 36 10 65 43 65" id="V"/><g id="h"><use transform="matrix(0.04938271604938272,0,0,0.04938271604938272,0,0)" xlink:href="#n"/><use transform="matrix(0.04938271604938272,0,0,0.04938271604938272,10.814814814814815,0)" xlink:href="#V"/><use transform="matrix(0.04938271604938272,0,0,0.04938271604938272,21.62962962962963,0)" xlink:href="#n"/></g><g id="i"><use transform="matrix(0.04938271604938272,0,0,0.04938271604938272,0,0)" xlink:href="#n"/><use transform="matrix(0.04938271604938272,0,0,0.04938271604938272,10.814814814814815,0)" xlink:href="#o"/><use transform="matrix(0.04938271604938272,0,0,0.04938271604938272,21.62962962962963,0)" xlink:href="#p"/><use transform="matrix(0.04938271604938272,0,0,0.04938271604938272,31.506172839506174,0)" xlink:href="#q"/></g><g id="j"><use transform="matrix(0.04938271604938272,0,0,0.04938271604938272,0,0)" xlink:href="#D"/><use transform="matrix(0.04938271604938272,0,0,0.04938271604938272,10.814814814814815,0)" xlink:href="#E"/><use transform="matrix(0.04938271604938272,0,0,0.04938271604938272,21.62962962962963,0)" xlink:href="#D"/><use transform="matrix(0.04938271604938272,0,0,0.04938271604938272,32.44444444444444,0)" xlink:href="#F"/><use transform="matrix(0.04938271604938272,0,0,0.04938271604938272,38.32098765432099,0)" xlink:href="#G"/><use transform="matrix(0.04938271604938272,0,0,0.04938271604938272,44.19753086419753,0)" xlink:href="#H"/><use transform="matrix(0.04938271604938272,0,0,0.04938271604938272,54.074074074074076,0)" xlink:href="#I"/><use transform="matrix(0.04938271604938272,0,0,0.04938271604938272,59.01234567901235,0)" xlink:href="#J"/><use transform="matrix(0.04938271604938272,0,0,0.04938271604938272,67.90123456790124,0)" xlink:href="#K"/><use transform="matrix(0.04938271604938272,0,0,0.04938271604938272,77.77777777777779,0)" xlink:href="#M"/><use transform="matrix(0.04938271604938272,0,0,0.04938271604938272,88.14814814814815,0)" xlink:href="#N"/><use transform="matrix(0.04938271604938272,0,0,0.04938271604938272,98.0246913580247,0)" xlink:href="#O"/></g><path fill="#3a414a" d="M100-194c63 0 86 42 84 106H49c0 40 14 67 53 68 26 1 43-12 49-29l28 8c-11 28-37 45-77 45C44 4 14-33 15-96c1-61 26-98 85-98zm52 81c6-60-76-77-97-28-3 7-6 17-6 28h103" id="W"/><path fill="#3a414a" d="M210-169c-67 3-38 105-44 169h-31v-121c0-29-5-50-35-48C34-165 62-65 56 0H25l-1-190h30c1 10-1 24 2 32 10-44 99-50 107 0 11-21 27-35 58-36 85-2 47 119 55 194h-31v-121c0-29-5-49-35-48" id="X"/><path fill="#3a414a" d="M115-194c55 1 70 41 70 98S169 2 115 4C84 4 66-9 55-30l1 105H24l-1-265h31l2 30c10-21 28-34 59-34zm-8 174c40 0 45-34 45-75s-6-73-45-74c-42 0-51 32-51 76 0 43 10 73 51 73" id="Y"/><path fill="#3a414a" d="M59-47c-2 24 18 29 38 22v24C64 9 27 4 27-40v-127H5v-23h24l9-43h21v43h35v23H59v120" id="Z"/><path fill="#3a414a" d="M179-190L93 31C79 59 56 82 12 73V49c39 6 53-20 64-50L1-190h34L92-34l54-156h33" id="aa"/><g id="k"><use transform="matrix(0.06172839506172839,0,0,0.06172839506172839,0,0)" xlink:href="#W"/><use transform="matrix(0.06172839506172839,0,0,0.06172839506172839,12.345679012345679,0)" xlink:href="#X"/><use transform="matrix(0.06172839506172839,0,0,0.06172839506172839,30.80246913580247,0)" xlink:href="#Y"/><use transform="matrix(0.06172839506172839,0,0,0.06172839506172839,43.148148148148145,0)" xlink:href="#Z"/><use transform="matrix(0.06172839506172839,0,0,0.06172839506172839,49.32098765432099,0)" xlink:href="#aa"/></g><path fill="#3a414a" d="M101-234c-31-9-42 10-38 44h38v23H63V0H32v-167H5v-23h27c-7-52 17-82 69-68v24" id="ab"/><path fill="#3a414a" d="M24-231v-30h32v30H24zM24 0v-190h32V0H24" id="ac"/><path fill="#3a414a" d="M24 0v-261h32V0H24" id="ad"/><path fill="#3a414a" d="M85-194c31 0 48 13 60 33l-1-100h32l1 261h-30c-2-10 0-23-3-31C134-8 116 4 85 4 32 4 16-35 15-94c0-66 23-100 70-100zm9 24c-40 0-46 34-46 75 0 40 6 74 45 74 42 0 51-32 51-76 0-42-9-74-50-73" id="ae"/><g id="l"><use transform="matrix(0.06172839506172839,0,0,0.06172839506172839,0,0)" xlink:href="#ab"/><use transform="matrix(0.06172839506172839,0,0,0.06172839506172839,6.172839506172839,0)" xlink:href="#ac"/><use transform="matrix(0.06172839506172839,0,0,0.06172839506172839,11.049382716049383,0)" xlink:href="#ad"/><use transform="matrix(0.06172839506172839,0,0,0.06172839506172839,15.925925925925926,0)" xlink:href="#ad"/><use transform="matrix(0.06172839506172839,0,0,0.06172839506172839,20.80246913580247,0)" xlink:href="#W"/><use transform="matrix(0.06172839506172839,0,0,0.06172839506172839,33.148148148148145,0)" xlink:href="#ae"/></g><path fill="#3a414a" d="M84 4C-5 8 30-112 23-190h32v120c0 31 7 50 39 49 72-2 45-101 50-169h31l1 190h-30c-1-10 1-25-2-33-11 22-28 36-60 37" id="af"/><g id="m"><use transform="matrix(0.06172839506172839,0,0,0.06172839506172839,0,0)" xlink:href="#ab"/><use transform="matrix(0.06172839506172839,0,0,0.06172839506172839,6.172839506172839,0)" xlink:href="#af"/><use transform="matrix(0.06172839506172839,0,0,0.06172839506172839,18.51851851851852,0)" xlink:href="#ad"/><use transform="matrix(0.06172839506172839,0,0,0.06172839506172839,23.395061728395063,0)" xlink:href="#ad"/></g></defs></g></svg>