<svg xmlns="http://www.w3.org/2000/svg" xmlns:xlink="http://www.w3.org/1999/xlink" xmlns:lucid="lucid" width="140" height="113"><g transform="translate(-600 -580)" lucid:page-tab-id="0_0"><path d="M0 0h1500v1000H0z" fill="#fff"/><path d="M600 586a6 6 0 0 1 6-6h128a6 6 0 0 1 6 6v101a6 6 0 0 1-6 6H606a6 6 0 0 1-6-6z" stroke="#000" stroke-opacity="0" stroke-width="2" fill="#fff"/><path d="M620.5 600h98.6M620.5 600h-.5M701.8 610.18L719.02 600l-17.22-10.18M620.5 660h99M620.5 660h-.5M719.5 660h.5" stroke="#3a414a" fill="none"/><path d="M617 639a6 6 0 0 1 6-6h21a6 6 0 0 1 6 6v48a6 6 0 0 1-6 6h-21a6 6 0 0 1-6-6z" stroke="#000" stroke-opacity="0" stroke-width="2" fill="#fff" fill-opacity="0"/><use xlink:href="#a" transform="matrix(1,0,0,1,622,638) translate(4.0925925925925934 30.27777777777778)"/><defs><path fill="#3a414a" d="M195 0l-74-108L45 0H8l94-129-87-119h37l69 98 67-98h37l-84 118L233 0h-38" id="b"/><use transform="matrix(0.06172839506172839,0,0,0.06172839506172839,0,0)" xlink:href="#b" id="a"/></defs></g></svg>