<svg xmlns="http://www.w3.org/2000/svg" xmlns:xlink="http://www.w3.org/1999/xlink" xmlns:lucid="lucid" width="794" height="556"><g transform="translate(-302.99999997841167 61.000000015842105)" lucid:page-tab-id="0_0"><path d="M0-500h1500V500H0z" fill="#fff"/><path d="M529.85 320.4A8.74 8.74 0 0 0 538 326h112a6 6 0 0 1 6 6v156a6 6 0 0 1-6 6H326a6 6 0 0 1-6-6V306a6 6 0 0 1 6-6h190a8.74 8.74 0 0 1 8.15 5.6zM320 326h212" stroke="#282c33" stroke-width="2" fill="#fff"/><use xlink:href="#a" transform="matrix(1,0,0,1,328,300) translate(0 17.77777777777778)"/><path d="M356 366a6 6 0 0 1 6-6h84a6 6 0 0 1 6 6v55a6 6 0 0 1-6 6h-84a6 6 0 0 1-6-6z" stroke="#282c33" stroke-width="2" fill="#fff"/><use xlink:href="#b" transform="matrix(1,0,0,1,364.0000000000002,368) translate(32.592592592592595 29.944444444444443)"/><path d="M513.85-39.6A8.74 8.74 0 0 0 522-34h112a6 6 0 0 1 6 6v156a6 6 0 0 1-6 6H310a6 6 0 0 1-6-6V-54a6 6 0 0 1 6-6h190a8.74 8.74 0 0 1 8.15 5.6zM304-34h212" stroke="#282c33" stroke-width="2" fill="#fff"/><use xlink:href="#c" transform="matrix(1,0,0,1,311.9999999999998,-60) translate(0 17.77777777777778)"/><path d="M340 6a6 6 0 0 1 6-6h84a6 6 0 0 1 6 6v55a6 6 0 0 1-6 6h-84a6 6 0 0 1-6-6z" stroke="#282c33" stroke-width="2" fill="#fff"/><use xlink:href="#b" transform="matrix(1,0,0,1,348.0000000000001,8) translate(32.592592592592595 29.944444444444443)"/><path d="M488 26a6 6 0 0 1 6-6h84a6 6 0 0 1 6 6v55a6 6 0 0 1-6 6h-84a6 6 0 0 1-6-6z" stroke="#282c33" stroke-width="2" fill="#fff"/><use xlink:href="#d" transform="matrix(1,0,0,1,495.9999999999998,28) translate(32.592592592592595 29.944444444444443)"/><path d="M472 298.5v-9.06m0-9.05v-18.12m0-9.06v-18.1m0-9.06V208m0-9.02v-18.02m0-9v-18.03m0-9v-9.02" stroke="#3a414a" fill="none"/><path d="M472.48 299h-.96v-.5h.96z" stroke="#3a414a" stroke-width=".05" fill="#3a414a"/><path d="M482.18 153.2L472 135.98l-10.18 17.22" stroke="#3a414a" fill="none"/><use xlink:href="#e" transform="matrix(1,0,0,1,479.99999999999994,182.61686506154328) translate(0 14.222222222222223)"/><path d="M969.85 87.4A8.74 8.74 0 0 0 978 93h112a6 6 0 0 1 6 6v242a6 6 0 0 1-6 6H766a6 6 0 0 1-6-6V73a6 6 0 0 1 6-6h190a8.74 8.74 0 0 1 8.15 5.6zM760 93h212" stroke="#282c33" stroke-width="2" fill="#fff"/><use xlink:href="#a" transform="matrix(1,0,0,1,768,67) translate(0 17.77777777777778)"/><path d="M796 266a6 6 0 0 1 6-6h84a6 6 0 0 1 6 6v48a6 6 0 0 1-6 6h-84a6 6 0 0 1-6-6z" stroke="#282c33" stroke-width="2" fill="#fff"/><use xlink:href="#b" transform="matrix(1,0,0,1,804.0000000000002,268) translate(32.592592592592595 26.444444444444443)"/><path d="M796 133a6 6 0 0 1 6-6h84a6 6 0 0 1 6 6v55a6 6 0 0 1-6 6h-84a6 6 0 0 1-6-6z" stroke="#282c33" stroke-width="2" fill="#fff"/><use xlink:href="#f" transform="matrix(1,0,0,1,804.0000000000002,135) translate(19.660493827160494 29.944444444444443)"/><path d="M844 258.5v-51.87" stroke="#3a414a" fill="none"/><path d="M844.48 259h-.96v-.5h.96z" stroke="#3a414a" stroke-width=".05" fill="#3a414a"/><path d="M844 195.98l7.64 12.9h-15.28z" stroke="#3a414a" fill="#fff"/><path d="M960 266a6 6 0 0 1 6-6h84a6 6 0 0 1 6 6v48a6 6 0 0 1-6 6h-84a6 6 0 0 1-6-6z" stroke="#282c33" stroke-width="2" fill="#fff"/><use xlink:href="#d" transform="matrix(1,0,0,1,968,268) translate(32.592592592592595 26.444444444444443)"/><path d="M960 133a6 6 0 0 1 6-6h84a6 6 0 0 1 6 6v55a6 6 0 0 1-6 6h-84a6 6 0 0 1-6-6z" stroke="#282c33" stroke-width="2" fill="#fff"/><use xlink:href="#g" transform="matrix(1,0,0,1,968,135) translate(19.660493827160494 29.944444444444443)"/><path d="M1008 258.5v-51.87" stroke="#3a414a" fill="none"/><path d="M1008.48 259h-.96v-.5h.96z" stroke="#3a414a" stroke-width=".05" fill="#3a414a"/><path d="M1008 195.98l7.64 12.9h-15.28z" stroke="#3a414a" fill="#fff"/><defs><path fill="#3a414a" d="M140-251c80 0 125 45 125 126 0 70-33 111-92 124 6 28 34 38 68 31l-1 36C177 83 129 55 120 2 51-6 15-50 15-125c0-81 44-126 125-126zm-1 214c52 0 73-35 73-88 0-50-21-86-72-86-52 0-73 35-73 86s22 88 72 88" id="h"/><use transform="matrix(0.06172839506172839,0,0,0.06172839506172839,0,0)" xlink:href="#h" id="a"/><path fill="#3a414a" d="M205 0l-28-72H64L36 0H1l101-248h38L239 0h-34zm-38-99l-47-123c-12 45-31 82-46 123h93" id="i"/><use transform="matrix(0.06172839506172839,0,0,0.06172839506172839,0,0)" xlink:href="#i" id="b"/><path fill="#3a414a" d="M210 0H11v-37l134-170H24v-41h178v36L68-41h142V0" id="j"/><use transform="matrix(0.06172839506172839,0,0,0.06172839506172839,0,0)" xlink:href="#j" id="c"/><path fill="#3a414a" d="M160-131c35 5 61 23 61 61C221 17 115-2 30 0v-248c76 3 177-17 177 60 0 33-19 50-47 57zm-97-11c50-1 110 9 110-42 0-47-63-36-110-37v79zm0 115c55-2 124 14 124-45 0-56-70-42-124-44v89" id="k"/><use transform="matrix(0.06172839506172839,0,0,0.06172839506172839,0,0)" xlink:href="#k" id="d"/><path fill="#333" d="M15-91v-56l181-69v40L49-119l147 57v40" id="l"/><path fill="#333" d="M220-157c-53 9-28 100-34 157h-49v-107c1-27-5-49-29-50C55-147 81-57 75 0H25l-1-190h47c2 12-1 28 3 38 10-53 101-56 108 0 13-22 24-43 59-42 82 1 51 116 57 194h-49v-107c-1-25-5-48-29-50" id="m"/><path fill="#333" d="M185-48c-13 30-37 53-82 52C43 2 14-33 14-96s30-98 90-98c62 0 83 45 84 108H66c0 31 8 55 39 56 18 0 30-7 34-22zm-45-69c5-46-57-63-70-21-2 6-4 13-4 21h74" id="n"/><path fill="#333" d="M135-150c-39-12-60 13-60 57V0H25l-1-190h47c2 13-1 29 3 40 6-28 27-53 61-41v41" id="o"/><path fill="#333" d="M195-6C206 82 75 100 31 46c-4-6-6-13-8-21l49-6c3 16 16 24 34 25 40 0 42-37 40-79-11 22-30 35-61 35-53 0-70-43-70-97 0-56 18-96 73-97 30 0 46 14 59 34l2-30h47zm-90-29c32 0 41-27 41-63 0-35-9-62-40-62-32 0-39 29-40 63 0 36 9 62 39 62" id="p"/><path fill="#333" d="M15-22v-40l146-57-146-57v-40l181 69v56" id="q"/><g id="e"><use transform="matrix(0.04938271604938272,0,0,0.04938271604938272,0,0)" xlink:href="#l"/><use transform="matrix(0.04938271604938272,0,0,0.04938271604938272,10.370370370370372,0)" xlink:href="#l"/><use transform="matrix(0.04938271604938272,0,0,0.04938271604938272,20.740740740740744,0)" xlink:href="#m"/><use transform="matrix(0.04938271604938272,0,0,0.04938271604938272,36.543209876543216,0)" xlink:href="#n"/><use transform="matrix(0.04938271604938272,0,0,0.04938271604938272,46.41975308641976,0)" xlink:href="#o"/><use transform="matrix(0.04938271604938272,0,0,0.04938271604938272,53.333333333333336,0)" xlink:href="#p"/><use transform="matrix(0.04938271604938272,0,0,0.04938271604938272,64.14814814814815,0)" xlink:href="#n"/><use transform="matrix(0.04938271604938272,0,0,0.04938271604938272,74.0246913580247,0)" xlink:href="#q"/><use transform="matrix(0.04938271604938272,0,0,0.04938271604938272,84.39506172839506,0)" xlink:href="#q"/></g><path fill="#3a414a" d="M209 0H11v-25l151-195H24v-28h176v25L50-27h159V0" id="r"/><path fill="#3a414a" d="M33-154v-36h34v36H33zM33 0v-36h34V0H33" id="s"/><g id="f"><use transform="matrix(0.06172839506172839,0,0,0.06172839506172839,0,0)" xlink:href="#r"/><use transform="matrix(0.06172839506172839,0,0,0.06172839506172839,13.518518518518517,0)" xlink:href="#s"/><use transform="matrix(0.06172839506172839,0,0,0.06172839506172839,19.691358024691358,0)" xlink:href="#s"/><use transform="matrix(0.06172839506172839,0,0,0.06172839506172839,25.864197530864196,0)" xlink:href="#i"/></g><g id="g"><use transform="matrix(0.06172839506172839,0,0,0.06172839506172839,0,0)" xlink:href="#r"/><use transform="matrix(0.06172839506172839,0,0,0.06172839506172839,13.518518518518517,0)" xlink:href="#s"/><use transform="matrix(0.06172839506172839,0,0,0.06172839506172839,19.691358024691358,0)" xlink:href="#s"/><use transform="matrix(0.06172839506172839,0,0,0.06172839506172839,25.864197530864196,0)" xlink:href="#k"/></g></defs></g></svg>