<svg xmlns="http://www.w3.org/2000/svg" xmlns:xlink="http://www.w3.org/1999/xlink" xmlns:lucid="lucid" width="540" height="320"><g transform="translate(-800 -400)" lucid:page-tab-id="0_0"><path d="M800 406a6 6 0 0 1 6-6h528a6 6 0 0 1 6 6v308a6 6 0 0 1-6 6H806a6 6 0 0 1-6-6z" stroke="#000" stroke-opacity="0" fill="#fff"/><path d="M840 466a6 6 0 0 1 6-6h108a6 6 0 0 1 6 6v28a6 6 0 0 1-6 6H846a6 6 0 0 1-6-6z" stroke="#3a414a" fill="#fff"/><use xlink:href="#a" transform="matrix(1,0,0,1,845,465) translate(47.592592592592595 19.65277777777778)"/><path d="M1080 426a6 6 0 0 1 6-6h148a6 6 0 0 1 6 6v28a6 6 0 0 1-6 6h-148a6 6 0 0 1-6-6z" stroke="#3a414a" fill="#fff"/><use xlink:href="#b" transform="matrix(1,0,0,1,1085,425) translate(67.5925925925926 19.65277777777778)"/><path d="M1080 506a6 6 0 0 1 6-6h148a6 6 0 0 1 6 6v59.67a6 6 0 0 1-6 6h-148a6 6 0 0 1-6-6z" stroke="#3a414a" fill="#fff"/><use xlink:href="#c" transform="matrix(1,0,0,1,1085,505) translate(20.234567901234577 21.97222222222222)"/><use xlink:href="#d" transform="matrix(1,0,0,1,1085,505) translate(71.91358024691358 46.861111111111114)"/><path d="M840 621.83a6 6 0 0 1 6-6h108a6 6 0 0 1 6 6v28a6 6 0 0 1-6 6H846a6 6 0 0 1-6-6z" stroke="#3a414a" fill="#fff"/><use xlink:href="#e" transform="matrix(1,0,0,1,845,620.8333333333333) translate(30.987654320987655 19.65277777777778)"/><path d="M1000 621.83a6 6 0 0 1 6-6h108a6 6 0 0 1 6 6v28a6 6 0 0 1-6 6h-108a6 6 0 0 1-6-6z" stroke="#3a414a" fill="#fff"/><use xlink:href="#f" transform="matrix(1,0,0,1,1005,620.8333333333333) translate(47.592592592592595 19.65277777777778)"/><path d="M1180 621.83a6 6 0 0 1 6-6h108a6 6 0 0 1 6 6v28a6 6 0 0 1-6 6h-108a6 6 0 0 1-6-6z" stroke="#3a414a" fill="#fff"/><use xlink:href="#g" transform="matrix(1,0,0,1,1185,620.8333333333333) translate(47.592592592592595 19.65277777777778)"/><path d="M1240 614.83v-15.08l-.07-.94-.22-.9-.35-.87-.5-.8-.6-.72-.72-.6-.8-.5-.88-.36-.9-.22-.95-.07h-11.33m-11.34 0h-22.66m-11.34 0H1166l-.94-.07-.9-.22-.88-.36-.8-.5-.72-.6-.6-.72-.5-.8-.37-.88-.23-.9-.07-.95v-3.96" stroke="#3a414a" fill="none"/><path d="M1240.47 615.33h-.94v-.5h.94z" stroke="#3a414a" stroke-width=".05" fill="#3a414a"/><path d="M1160 573.15l7.64 12.9h-15.28z" stroke="#3a414a" fill="#fff"/><path d="M1060 614.83v-15.08l.07-.94.22-.9.35-.87.5-.8.6-.72.72-.6.8-.5.88-.36.9-.22.95-.07h9.78m9.78 0h19.55m9.8 0h19.54m9.78 0h9.78l.94-.07.9-.22.88-.36.8-.5.72-.6.6-.72.5-.8.37-.88.23-.9.07-.95v-3.96" stroke="#3a414a" fill="none"/><path d="M1060.47 615.33h-.94v-.5h.94z" stroke="#3a414a" stroke-width=".05" fill="#3a414a"/><path d="M1160 573.15l7.64 12.9h-15.28z" stroke="#3a414a" fill="#fff"/><path d="M961 480h8.83m8.84 0h17.66m8.84 0h8.83l.94-.07.9-.22.88-.35.8-.5.72-.6.6-.72.5-.8.37-.88.23-.9.07-.95v-7.2m0-7.2v-7.2l.07-.92.22-.92.35-.87.5-.8.6-.73.72-.6.8-.5.88-.36.9-.2.95-.1h12.37m12.37 0h12.38" stroke="#3a414a" fill="none"/><path d="M961 480.48h-.5v-.96h.5z" stroke="#3a414a" stroke-width=".05" fill="#3a414a"/><path d="M1077.88 446.4l-14.26 4.65v-9.27z" stroke="#3a414a" fill="#3a414a"/><path d="M900 614.83v-10.88m0-10.88V571.3m0-10.88v-21.77m0-10.88v-10.9" stroke="#3a414a" fill="none"/><path d="M900.48 615.33h-.96v-.5h.96z" stroke="#3a414a" stroke-width=".05" fill="#3a414a"/><path d="M900 502.12l4.63 14.26h-9.26z" stroke="#3a414a" fill="#3a414a"/><path d="M960.93 494.85H1014a6 6 0 0 1 6 6v28.98a6 6 0 0 0 6 6h37.12" stroke="#3a414a" fill="none"/><path d="M960.95 495.32h-.6l.07-.3.05-.65h.48z" stroke="#3a414a" stroke-width=".05" fill="#3a414a"/><path d="M1077.88 535.83l-14.26 4.64v-9.27z" stroke="#3a414a" fill="#3a414a"/><use xlink:href="#h" transform="matrix(1,0,0,1,1065.938453951296,505.86474508437567) translate(0 14.222222222222223)"/><path d="M900 656.83V668m0 11.17v11.16l.07.94.22.92.35.86.5.8.6.72.72.6.8.5.88.36.9.22.95.07h9.87m9.86 0h19.74m9.86 0h19.74m9.86 0h19.74m9.86 0h19.74m9.86 0h9.87l.94-.07.9-.22.88-.36.8-.5.72-.6.6-.72.5-.8.37-.87.23-.93.07-.94v-17.6" stroke="#3a414a" fill="none"/><path d="M900.48 656.85h-.96v-.52h.96z" stroke="#3a414a" stroke-width=".05" fill="#3a414a"/><path d="M1060 657.95l4.63 14.27h-9.27z" stroke="#3a414a" fill="#3a414a"/><path d="M900 656.83V668m0 11.17v11.16l.07.94.22.92.35.86.5.8.6.72.72.6.8.5.88.36.9.22.95.07h9.94m9.94 0h19.88m9.94 0h19.88m9.93 0h19.9m9.93 0h19.88m9.95 0h19.88m9.94 0h19.88m9.94 0h19.87m9.94 0h19.88m9.94 0h19.88m9.94 0h19.88m9.94 0h9.94l.94-.07.9-.22.88-.36.8-.5.72-.6.6-.72.5-.8.37-.87.23-.93.07-.94v-17.6" stroke="#3a414a" fill="none"/><path d="M900.48 656.85h-.96v-.52h.96z" stroke="#3a414a" stroke-width=".05" fill="#3a414a"/><path d="M1240 657.95l4.63 14.27h-9.27z" stroke="#3a414a" fill="#3a414a"/><defs><path fill="#3a414a" d="M195 0l-74-108L45 0H8l94-129-87-119h37l69 98 67-98h37l-84 118L233 0h-38" id="i"/><use transform="matrix(0.06172839506172839,0,0,0.06172839506172839,0,0)" xlink:href="#i" id="a"/><path fill="#3a414a" d="M137-103V0h-34v-103L8-248h37l75 118 75-118h37" id="j"/><use transform="matrix(0.06172839506172839,0,0,0.06172839506172839,0,0)" xlink:href="#j" id="b"/><path fill="#3a414a" d="M18-100v-36l175-74v27L42-118l151 64v27" id="k"/><path fill="#3a414a" d="M24-231v-30h32v30H24zM24 0v-190h32V0H24" id="l"/><path fill="#3a414a" d="M117-194c89-4 53 116 60 194h-32v-121c0-31-8-49-39-48C34-167 62-67 57 0H25l-1-190h30c1 10-1 24 2 32 11-22 29-35 61-36" id="m"/><path fill="#3a414a" d="M59-47c-2 24 18 29 38 22v24C64 9 27 4 27-40v-127H5v-23h24l9-43h21v43h35v23H59v120" id="n"/><path fill="#3a414a" d="M100-194c63 0 86 42 84 106H49c0 40 14 67 53 68 26 1 43-12 49-29l28 8c-11 28-37 45-77 45C44 4 14-33 15-96c1-61 26-98 85-98zm52 81c6-60-76-77-97-28-3 7-6 17-6 28h103" id="o"/><path fill="#3a414a" d="M114-163C36-179 61-72 57 0H25l-1-190h30c1 12-1 29 2 39 6-27 23-49 58-41v29" id="p"/><path fill="#3a414a" d="M101-234c-31-9-42 10-38 44h38v23H63V0H32v-167H5v-23h27c-7-52 17-82 69-68v24" id="q"/><path fill="#3a414a" d="M141-36C126-15 110 5 73 4 37 3 15-17 15-53c-1-64 63-63 125-63 3-35-9-54-41-54-24 1-41 7-42 31l-33-3c5-37 33-52 76-52 45 0 72 20 72 64v82c-1 20 7 32 28 27v20c-31 9-61-2-59-35zM48-53c0 20 12 33 32 33 41-3 63-29 60-74-43 2-92-5-92 41" id="r"/><path fill="#3a414a" d="M96-169c-40 0-48 33-48 73s9 75 48 75c24 0 41-14 43-38l32 2c-6 37-31 61-74 61-59 0-76-41-82-99-10-93 101-131 147-64 4 7 5 14 7 22l-32 3c-4-21-16-35-41-35" id="s"/><path fill="#3a414a" d="M18-27v-27l151-64-151-65v-27l175 74v36" id="t"/><g id="c"><use transform="matrix(0.049382716049382706,0,0,0.049382716049382706,0,0)" xlink:href="#k"/><use transform="matrix(0.049382716049382706,0,0,0.049382716049382706,10.370370370370368,0)" xlink:href="#k"/><use transform="matrix(0.049382716049382706,0,0,0.049382716049382706,20.740740740740737,0)" xlink:href="#l"/><use transform="matrix(0.049382716049382706,0,0,0.049382716049382706,24.64197530864197,0)" xlink:href="#m"/><use transform="matrix(0.049382716049382706,0,0,0.049382716049382706,34.51851851851851,0)" xlink:href="#n"/><use transform="matrix(0.049382716049382706,0,0,0.049382716049382706,39.456790123456784,0)" xlink:href="#o"/><use transform="matrix(0.049382716049382706,0,0,0.049382716049382706,49.33333333333333,0)" xlink:href="#p"/><use transform="matrix(0.049382716049382706,0,0,0.049382716049382706,55.20987654320988,0)" xlink:href="#q"/><use transform="matrix(0.049382716049382706,0,0,0.049382716049382706,60.148148148148145,0)" xlink:href="#r"/><use transform="matrix(0.049382716049382706,0,0,0.049382716049382706,70.02469135802468,0)" xlink:href="#s"/><use transform="matrix(0.049382716049382706,0,0,0.049382716049382706,78.91358024691357,0)" xlink:href="#o"/><use transform="matrix(0.049382716049382706,0,0,0.049382716049382706,88.79012345679011,0)" xlink:href="#t"/><use transform="matrix(0.049382716049382706,0,0,0.049382716049382706,99.16049382716048,0)" xlink:href="#t"/></g><path fill="#3a414a" d="M33 0v-248h34V0H33" id="u"/><use transform="matrix(0.06172839506172839,0,0,0.06172839506172839,0,0)" xlink:href="#u" id="d"/><path fill="#3a414a" d="M240 0l2-218c-23 76-54 145-80 218h-23L58-218 59 0H30v-248h44l77 211c21-75 51-140 76-211h43V0h-30" id="v"/><g id="e"><use transform="matrix(0.06172839506172839,0,0,0.06172839506172839,0,0)" xlink:href="#v"/><use transform="matrix(0.06172839506172839,0,0,0.06172839506172839,18.456790123456788,0)" xlink:href="#r"/><use transform="matrix(0.06172839506172839,0,0,0.06172839506172839,30.80246913580247,0)" xlink:href="#l"/><use transform="matrix(0.06172839506172839,0,0,0.06172839506172839,35.67901234567901,0)" xlink:href="#m"/></g><path fill="#3a414a" d="M205 0l-28-72H64L36 0H1l101-248h38L239 0h-34zm-38-99l-47-123c-12 45-31 82-46 123h93" id="w"/><use transform="matrix(0.06172839506172839,0,0,0.06172839506172839,0,0)" xlink:href="#w" id="f"/><path fill="#3a414a" d="M160-131c35 5 61 23 61 61C221 17 115-2 30 0v-248c76 3 177-17 177 60 0 33-19 50-47 57zm-97-11c50-1 110 9 110-42 0-47-63-36-110-37v79zm0 115c55-2 124 14 124-45 0-56-70-42-124-44v89" id="x"/><use transform="matrix(0.06172839506172839,0,0,0.06172839506172839,0,0)" xlink:href="#x" id="g"/><path fill="#333" d="M86-200l42-18 12 35-44 11 32 37-32 21-26-44-26 44-32-21 33-37-44-11 12-35 42 18-3-48h38" id="y"/><use transform="matrix(0.04938271604938272,0,0,0.04938271604938272,0,0)" xlink:href="#y" id="h"/></defs></g></svg>