<svg xmlns="http://www.w3.org/2000/svg" xmlns:xlink="http://www.w3.org/1999/xlink" xmlns:lucid="lucid" width="340" height="360"><g transform="translate(-660 -440)" lucid:page-tab-id="0_0"><path d="M660 446a6 6 0 0 1 6-6h328a6 6 0 0 1 6 6v348a6 6 0 0 1-6 6H666a6 6 0 0 1-6-6z" stroke="#000" stroke-opacity="0" fill="#fff"/><path d="M680 466a6 6 0 0 1 6-6h108.26a6 6 0 0 1 6 6v50.85a6 6 0 0 1-6 6H686a6 6 0 0 1-6-6z" stroke="#3a414a" fill="#fff"/><use xlink:href="#a" transform="matrix(1,0,0,1,685,465) translate(39.45061728395062 31.02777777777778)"/><path d="M740.13 523.85v9.8m0 9.83v19.62m0 9.8v19.64m0 9.82v19.62m0 9.8v9.87h-.02v.02h-.05v.02H740l-.02.02v9.84m0 9.83V681m0 9.8v19.63m0 9.82v19.62m0 9.82v9.8" stroke="#3a414a" fill="none"/><path d="M740.6 523.86h-.95v-.5h.96z" stroke="#3a414a" stroke-width=".05" fill="#3a414a"/><path d="M740 759.5v.5" stroke="#3a414a" fill="none"/><path d="M730 586a6 6 0 0 1 6-6h6.92a6 6 0 0 1 6 6v97.42a6 6 0 0 1-6 6H736a6 6 0 0 1-6-6z" stroke="#3a414a" fill="#fff"/><path d="M780.5 601.65h-30.58v-.95h30.58zm60.96 0h-14.7v-.95h14.7z" stroke="#3a414a" stroke-width=".05" fill="#3a414a"/><path d="M749.93 601.65h-.5v-.95h.5z" fill="#3a414a"/><path stroke="#3a414a" stroke-width=".05" fill="#3a414a"/><path d="M856.23 601.17l-14.27 4.64v-9.26z" fill="#3a414a"/><path d="M857.76 601.17l-16.28 5.3v-10.6zm-15.33 3.98l12.26-3.98-12.27-3.98z" stroke="#3a414a" stroke-width=".05" fill="#3a414a"/><use xlink:href="#b" transform="matrix(1,0,0,1,780.4965955112956,590.5045487897139) translate(0 14.222222222222223)"/><path d="M858.34 566a6 6 0 0 1 6-6H972.6a6 6 0 0 1 6 6v50.85a6 6 0 0 1-6 6H864.34a6 6 0 0 1-6-6z" stroke="#3a414a" fill="#fff"/><use xlink:href="#c" transform="matrix(1,0,0,1,863.3424742179266,565) translate(39.45061728395062 31.02777777777778)"/><path d="M918.47 623.85v10.3m0 10.28V665m0 10.3v20.6m0 10.28v20.58m0 10.3v10.3" stroke="#3a414a" fill="none"/><path d="M918.95 623.86H918v-.5h.95z" stroke="#3a414a" stroke-width=".05" fill="#3a414a"/><path d="M918.47 747.33v.5" stroke="#3a414a" fill="none"/><path d="M906.47 629a6 6 0 0 1 6-6h8.26a6 6 0 0 1 6 6v50a6 6 0 0 1-6 6h-8.26a6 6 0 0 1-6-6z" stroke="#3a414a" fill="#fff"/><path d="M905.47 679.5h-8.64v-.96h8.64zm-17.28 0h-17.3v-.96h17.3zm-25.94 0h-17.28v-.96h17.28zm-39.5 0h-5.38v-.96h5.38zm-15.7 0h-20.62v-.96h20.63zm-30.94 0h-10.3v-.96h10.3zm60.22 0h-3.7v-.96h3.7z" stroke="#3a414a" stroke-width=".05" fill="#3a414a"/><path d="M905.97 679.02l.04.47h-.54v-.96h.5z" fill="#3a414a"/><path stroke="#3a414a" stroke-width=".05" fill="#3a414a"/><path d="M765.3 683.65l-14.26-4.63 14.27-4.64z" fill="#3a414a"/><path d="M765.78 684.3l-16.28-5.28 16.28-5.3zm-13.2-5.28l12.25 3.98v-7.97z" stroke="#3a414a" stroke-width=".05" fill="#3a414a"/><use xlink:href="#d" transform="matrix(1,0,0,1,822.7587699013509,668.3498852641052) translate(0 14.222222222222223)"/><defs><path fill="#3a414a" d="M141 0L90-78 38 0H4l68-98-65-92h35l48 74 47-74h35l-64 92 68 98h-35" id="e"/><path fill="#3a414a" d="M33-154v-36h34v36H33zM33 0v-36h34V0H33" id="f"/><path fill="#3a414a" d="M195 0l-74-108L45 0H8l94-129-87-119h37l69 98 67-98h37l-84 118L233 0h-38" id="g"/><g id="a"><use transform="matrix(0.06172839506172839,0,0,0.06172839506172839,0,0)" xlink:href="#e"/><use transform="matrix(0.06172839506172839,0,0,0.06172839506172839,11.11111111111111,0)" xlink:href="#f"/><use transform="matrix(0.06172839506172839,0,0,0.06172839506172839,17.28395061728395,0)" xlink:href="#g"/><path fill="#3a414a" d="M-1.1 1.54h34.3v1.63H-1.1z"/></g><path fill="#333" d="M135-194c87-1 58 113 63 194h-50c-7-57 23-157-34-157-59 0-34 97-39 157H25l-1-190h47c2 12-1 28 3 38 12-26 28-41 61-42" id="h"/><path fill="#333" d="M185-48c-13 30-37 53-82 52C43 2 14-33 14-96s30-98 90-98c62 0 83 45 84 108H66c0 31 8 55 39 56 18 0 30-7 34-22zm-45-69c5-46-57-63-70-21-2 6-4 13-4 21h74" id="i"/><path fill="#333" d="M231 0h-52l-39-155L100 0H48L-1-190h46L77-45c9-52 24-97 36-145h53l37 145 32-145h46" id="j"/><path fill="#333" d="M67-93c0 74 22 123 53 168H70C40 30 18-18 18-93s22-123 52-168h50c-32 44-53 94-53 168" id="k"/><path fill="#333" d="M102-93c0 74-22 123-52 168H0C30 29 54-18 53-93c0-74-22-123-53-168h50c30 45 52 94 52 168" id="l"/><g id="b"><use transform="matrix(0.04938271604938272,0,0,0.04938271604938272,0,0)" xlink:href="#h"/><use transform="matrix(0.04938271604938272,0,0,0.04938271604938272,10.814814814814815,0)" xlink:href="#i"/><use transform="matrix(0.04938271604938272,0,0,0.04938271604938272,20.69135802469136,0)" xlink:href="#j"/><use transform="matrix(0.04938271604938272,0,0,0.04938271604938272,34.51851851851852,0)" xlink:href="#k"/><use transform="matrix(0.04938271604938272,0,0,0.04938271604938272,40.39506172839506,0)" xlink:href="#l"/></g><path fill="#3a414a" d="M179-190L93 31C79 59 56 82 12 73V49c39 6 53-20 64-50L1-190h34L92-34l54-156h33" id="m"/><path fill="#3a414a" d="M137-103V0h-34v-103L8-248h37l75 118 75-118h37" id="n"/><g id="c"><use transform="matrix(0.06172839506172839,0,0,0.06172839506172839,0,0)" xlink:href="#m"/><use transform="matrix(0.06172839506172839,0,0,0.06172839506172839,11.11111111111111,0)" xlink:href="#f"/><use transform="matrix(0.06172839506172839,0,0,0.06172839506172839,17.28395061728395,0)" xlink:href="#n"/><path fill="#3a414a" d="M-1.1 1.54h34.3v1.63H-1.1z"/></g><path fill="#333" d="M123 10C108 53 80 86 19 72V37c35 8 53-11 59-39L3-190h52l48 148c12-52 28-100 44-148h51" id="o"/><use transform="matrix(0.04938271604938272,0,0,0.04938271604938272,0,0)" xlink:href="#o" id="d"/></defs></g></svg>