<svg xmlns="http://www.w3.org/2000/svg" xmlns:xlink="http://www.w3.org/1999/xlink" xmlns:lucid="lucid" width="782" height="394.43"><g transform="translate(-978.9999999896721 -446.56575999488416)" lucid:page-tab-id="0_0"><path d="M500 0h1500v1000H500z" fill="#fff"/><path d="M980 453.57a6 6 0 0 1 6-6h768a6 6 0 0 1 6 6V834a6 6 0 0 1-6 6H986a6 6 0 0 1-6-6z" stroke="#282c33" stroke-width="2" fill="#fff"/><path d="M1600 453.57a6 6 0 0 1 6-6h148a6 6 0 0 1 6 6V514a6 6 0 0 1-6 6h-148a6 6 0 0 1-6-6z" stroke="#000" stroke-opacity="0" stroke-width="2" fill="#fff" fill-opacity="0"/><use xlink:href="#a" transform="matrix(1,0,0,1,1605,452.56576000000007) translate(43.46296296296296 37.46527777777778)"/><use xlink:href="#b" transform="matrix(1,0,0,1,1605,452.56576000000007) translate(95.19135802469137 37.46527777777778)"/><path d="M1600 773.57a6 6 0 0 1 6-6h148a6 6 0 0 1 6 6V834a6 6 0 0 1-6 6h-148a6 6 0 0 1-6-6z" stroke="#000" stroke-opacity="0" stroke-width="2" fill="#fff" fill-opacity="0"/><use xlink:href="#c" transform="matrix(1,0,0,1,1605,772.5657600000001) translate(32.96913580246914 37.46527777777778)"/><use xlink:href="#d" transform="matrix(1,0,0,1,1605,772.5657600000001) translate(105.68518518518518 37.46527777777778)"/><path d="M980 453.57a6 6 0 0 1 6-6h228a6 6 0 0 1 6 6v48a6 6 0 0 1-6 6H986a6 6 0 0 1-6-6z" stroke="#000" stroke-opacity="0" stroke-width="2" fill="#fff" fill-opacity="0"/><use xlink:href="#e" transform="matrix(1,0,0,1,984.9999999999999,452.56576000000007) translate(17.53086419753086 30.27777777777778)"/><use xlink:href="#f" transform="matrix(1,0,0,1,984.9999999999999,452.56576000000007) translate(87.83950617283949 30.27777777777778)"/><path d="M1060 466a6 6 0 0 1 6-6h628a6 6 0 0 1 6 6v308a6 6 0 0 1-6 6h-628a6 6 0 0 1-6-6z" stroke="#000" stroke-opacity="0" stroke-width="2" fill="#fff" fill-opacity="0"/><g><use xlink:href="#g" transform="matrix(1,0,0,1,1065,465) translate(0 116.35087555555556)"/><use xlink:href="#h" transform="matrix(1,0,0,1,1065,465) translate(40.50711617283951 116.35087555555556)"/><use xlink:href="#i" transform="matrix(1,0,0,1,1065,465) translate(79.66174098765433 116.35087555555556)"/><use xlink:href="#j" transform="matrix(1,0,0,1,1065,465) translate(0 145.5646888888889)"/><use xlink:href="#k" transform="matrix(1,0,0,1,1065,465) translate(86.49182234567901 145.5646888888889)"/><use xlink:href="#l" transform="matrix(1,0,0,1,1065,465) translate(124.29395580246913 145.5646888888889)"/><use xlink:href="#m" transform="matrix(1,0,0,1,1065,465) translate(241.75783024691358 145.5646888888889)"/><use xlink:href="#n" transform="matrix(1,0,0,1,1065,465) translate(286.32242049382717 145.5646888888889)"/><use xlink:href="#o" transform="matrix(1,0,0,1,1065,465) translate(383.3636754320988 145.5646888888889)"/><use xlink:href="#p" transform="matrix(1,0,0,1,1065,465) translate(522.3997870370371 145.5646888888889)"/><use xlink:href="#q" transform="matrix(1,0,0,1,1065,465) translate(0 174.77850222222222)"/><use xlink:href="#r" transform="matrix(1,0,0,1,1065,465) translate(40.50711617283951 174.77850222222222)"/><use xlink:href="#s" transform="matrix(1,0,0,1,1065,465) translate(81.08185691358025 174.77850222222222)"/><use xlink:href="#t" transform="matrix(1,0,0,1,1065,465) translate(116.179007654321 174.77850222222222)"/><use xlink:href="#u" transform="matrix(1,0,0,1,1065,465) translate(217.41298580246917 174.77850222222222)"/><use xlink:href="#v" transform="matrix(1,0,0,1,1065,465) translate(309.2471490123457 174.77850222222222)"/><use xlink:href="#w" transform="matrix(1,0,0,1,1065,465) translate(497.8520688888889 174.77850222222222)"/><use xlink:href="#x" transform="matrix(1,0,0,1,1065,465) translate(536.9390691358025 174.77850222222222)"/><use xlink:href="#y" transform="matrix(1,0,0,1,1065,465) translate(0 203.99231555555554)"/><use xlink:href="#z" transform="matrix(1,0,0,1,1065,465) translate(106.57631901234569 203.99231555555554)"/><use xlink:href="#A" transform="matrix(1,0,0,1,1065,465) translate(140.32097839506173 203.99231555555554)"/></g><defs><path fill="#3a414a" d="M30-248c87 1 191-15 191 75 0 78-77 80-158 76V0H30v-248zm33 125c57 0 124 11 124-50 0-59-68-47-124-48v98" id="B"/><path fill="#3a414a" d="M114-163C36-179 61-72 57 0H25l-1-190h30c1 12-1 29 2 39 6-27 23-49 58-41v29" id="C"/><path fill="#3a414a" d="M24-231v-30h32v30H24zM24 0v-190h32V0H24" id="D"/><path fill="#3a414a" d="M100-194c62-1 85 37 85 99 1 63-27 99-86 99S16-35 15-95c0-66 28-99 85-99zM99-20c44 1 53-31 53-75 0-43-8-75-51-75s-53 32-53 75 10 74 51 75" id="E"/><path fill="#3a414a" d="M33-154v-36h34v36H33zM33 0v-36h34V0H33" id="F"/><g id="a"><use transform="matrix(0.06172839506172839,0,0,0.06172839506172839,0,0)" xlink:href="#B"/><use transform="matrix(0.06172839506172839,0,0,0.06172839506172839,14.814814814814813,0)" xlink:href="#C"/><use transform="matrix(0.06172839506172839,0,0,0.06172839506172839,22.160493827160494,0)" xlink:href="#D"/><use transform="matrix(0.06172839506172839,0,0,0.06172839506172839,27.037037037037038,0)" xlink:href="#E"/><use transform="matrix(0.06172839506172839,0,0,0.06172839506172839,39.382716049382715,0)" xlink:href="#F"/></g><path fill="#3a414a" d="M101-251c82-7 93 87 43 132L82-64C71-53 59-42 53-27h129V0H18c2-99 128-94 128-182 0-28-16-43-45-43s-46 15-49 41l-32-3c6-41 34-60 81-64" id="G"/><use transform="matrix(0.06172839506172839,0,0,0.06172839506172839,0,0)" xlink:href="#G" id="b"/><path fill="#3a414a" d="M30-248c118-7 216 8 213 122C240-48 200 0 122 0H30v-248zM63-27c89 8 146-16 146-99s-60-101-146-95v194" id="H"/><path fill="#3a414a" d="M141-36C126-15 110 5 73 4 37 3 15-17 15-53c-1-64 63-63 125-63 3-35-9-54-41-54-24 1-41 7-42 31l-33-3c5-37 33-52 76-52 45 0 72 20 72 64v82c-1 20 7 32 28 27v20c-31 9-61-2-59-35zM48-53c0 20 12 33 32 33 41-3 63-29 60-74-43 2-92-5-92 41" id="I"/><path fill="#3a414a" d="M84 4C-5 8 30-112 23-190h32v120c0 31 7 50 39 49 72-2 45-101 50-169h31l1 190h-30c-1-10 1-25-2-33-11 22-28 36-60 37" id="J"/><path fill="#3a414a" d="M100-194c63 0 86 42 84 106H49c0 40 14 67 53 68 26 1 43-12 49-29l28 8c-11 28-37 45-77 45C44 4 14-33 15-96c1-61 26-98 85-98zm52 81c6-60-76-77-97-28-3 7-6 17-6 28h103" id="K"/><g id="c"><use transform="matrix(0.06172839506172839,0,0,0.06172839506172839,0,0)" xlink:href="#H"/><use transform="matrix(0.06172839506172839,0,0,0.06172839506172839,15.987654320987653,0)" xlink:href="#I"/><use transform="matrix(0.06172839506172839,0,0,0.06172839506172839,28.333333333333332,0)" xlink:href="#J"/><use transform="matrix(0.06172839506172839,0,0,0.06172839506172839,40.67901234567901,0)" xlink:href="#K"/><use transform="matrix(0.06172839506172839,0,0,0.06172839506172839,53.02469135802469,0)" xlink:href="#C"/><use transform="matrix(0.06172839506172839,0,0,0.06172839506172839,60.37037037037037,0)" xlink:href="#F"/></g><path fill="#3a414a" d="M155-56V0h-30v-56H8v-25l114-167h33v167h35v25h-35zm-30-156c-27 46-58 90-88 131h88v-131" id="L"/><use transform="matrix(0.06172839506172839,0,0,0.06172839506172839,0,0)" xlink:href="#L" id="d"/><path fill="#3a414a" d="M30 0v-248h187v28H63v79h144v27H63v87h162V0H30" id="M"/><path fill="#3a414a" d="M141 0L90-78 38 0H4l68-98-65-92h35l48 74 47-74h35l-64 92 68 98h-35" id="N"/><path fill="#3a414a" d="M115-194c55 1 70 41 70 98S169 2 115 4C84 4 66-9 55-30l1 105H24l-1-265h31l2 30c10-21 28-34 59-34zm-8 174c40 0 45-34 45-75s-6-73-45-74c-42 0-51 32-51 76 0 43 10 73 51 73" id="O"/><path fill="#3a414a" d="M59-47c-2 24 18 29 38 22v24C64 9 27 4 27-40v-127H5v-23h24l9-43h21v43h35v23H59v120" id="P"/><g id="e"><use transform="matrix(0.06172839506172839,0,0,0.06172839506172839,0,0)" xlink:href="#M"/><use transform="matrix(0.06172839506172839,0,0,0.06172839506172839,14.814814814814813,0)" xlink:href="#N"/><use transform="matrix(0.06172839506172839,0,0,0.06172839506172839,25.925925925925924,0)" xlink:href="#O"/><use transform="matrix(0.06172839506172839,0,0,0.06172839506172839,38.2716049382716,0)" xlink:href="#E"/><use transform="matrix(0.06172839506172839,0,0,0.06172839506172839,50.61728395061728,0)" xlink:href="#C"/><use transform="matrix(0.06172839506172839,0,0,0.06172839506172839,57.962962962962955,0)" xlink:href="#P"/></g><path fill="#3a414a" d="M205 0l-28-72H64L36 0H1l101-248h38L239 0h-34zm-38-99l-47-123c-12 45-31 82-46 123h93" id="Q"/><path fill="#3a414a" d="M85-194c31 0 48 13 60 33l-1-100h32l1 261h-30c-2-10 0-23-3-31C134-8 116 4 85 4 32 4 16-35 15-94c0-66 23-100 70-100zm9 24c-40 0-46 34-46 75 0 40 6 74 45 74 42 0 51-32 51-76 0-42-9-74-50-73" id="R"/><path fill="#3a414a" d="M135-143c-3-34-86-38-87 0 15 53 115 12 119 90S17 21 10-45l28-5c4 36 97 45 98 0-10-56-113-15-118-90-4-57 82-63 122-42 12 7 21 19 24 35" id="S"/><path fill="#3a414a" d="M117-194c89-4 53 116 60 194h-32v-121c0-31-8-49-39-48C34-167 62-67 57 0H25l-1-190h30c1 10-1 24 2 32 11-22 29-35 61-36" id="T"/><g id="f"><use transform="matrix(0.06172839506172839,0,0,0.06172839506172839,0,0)" xlink:href="#Q"/><use transform="matrix(0.06172839506172839,0,0,0.06172839506172839,14.814814814814813,0)" xlink:href="#R"/><use transform="matrix(0.06172839506172839,0,0,0.06172839506172839,27.160493827160494,0)" xlink:href="#C"/><use transform="matrix(0.06172839506172839,0,0,0.06172839506172839,34.50617283950617,0)" xlink:href="#K"/><use transform="matrix(0.06172839506172839,0,0,0.06172839506172839,46.85185185185185,0)" xlink:href="#S"/><use transform="matrix(0.06172839506172839,0,0,0.06172839506172839,57.96296296296296,0)" xlink:href="#S"/><use transform="matrix(0.06172839506172839,0,0,0.06172839506172839,69.07407407407408,0)" xlink:href="#R"/><use transform="matrix(0.06172839506172839,0,0,0.06172839506172839,81.41975308641976,0)" xlink:href="#I"/><use transform="matrix(0.06172839506172839,0,0,0.06172839506172839,93.76543209876544,0)" xlink:href="#P"/><use transform="matrix(0.06172839506172839,0,0,0.06172839506172839,99.93827160493828,0)" xlink:href="#K"/><use transform="matrix(0.06172839506172839,0,0,0.06172839506172839,112.28395061728396,0)" xlink:href="#T"/></g><path fill="#3a414a" d="M24 0v-261h32V0H24" id="U"/><g id="g"><use transform="matrix(0.06762456790123457,0,0,0.06762456790123457,0,0)" xlink:href="#Q"/><use transform="matrix(0.06762456790123457,0,0,0.06762456790123457,16.229896296296296,0)" xlink:href="#U"/><use transform="matrix(0.06762456790123457,0,0,0.06762456790123457,21.572237160493827,0)" xlink:href="#S"/></g><g id="h"><use transform="matrix(0.06762456790123457,0,0,0.06762456790123457,0,0)" xlink:href="#K"/><use transform="matrix(0.06762456790123457,0,0,0.06762456790123457,13.524913580246913,0)" xlink:href="#D"/><use transform="matrix(0.06762456790123457,0,0,0.06762456790123457,18.867254444444445,0)" xlink:href="#T"/></g><path fill="#3a414a" d="M147 0H94L2-248h55l64 206c17-72 42-137 63-206h54" id="V"/><path fill="#3a414a" d="M185-48c-13 30-37 53-82 52C43 2 14-33 14-96s30-98 90-98c62 0 83 45 84 108H66c0 31 8 55 39 56 18 0 30-7 34-22zm-45-69c5-46-57-63-70-21-2 6-4 13-4 21h74" id="W"/><path fill="#3a414a" d="M135-150c-39-12-60 13-60 57V0H25l-1-190h47c2 13-1 29 3 40 6-28 27-53 61-41v41" id="X"/><path fill="#3a414a" d="M115-3C79 11 28 4 28-45v-112H4v-33h27l15-45h31v45h36v33H77v99c-1 23 16 31 38 25v30" id="Y"/><path fill="#3a414a" d="M25-224v-37h50v37H25zM25 0v-190h50V0H25" id="Z"/><path fill="#3a414a" d="M135-194c52 0 70 43 70 98 0 56-19 99-73 100-30 1-46-15-58-35L72 0H24l1-261h50v104c11-23 29-37 60-37zM114-30c31 0 40-27 40-66 0-37-7-63-39-63s-41 28-41 65c0 36 8 64 40 64" id="aa"/><path fill="#3a414a" d="M137-138c1-29-70-34-71-4 15 46 118 7 119 86 1 83-164 76-172 9l43-7c4 19 20 25 44 25 33 8 57-30 24-41C81-84 22-81 20-136c-2-80 154-74 161-7" id="ab"/><path fill="#3a414a" d="M220-157c-53 9-28 100-34 157h-49v-107c1-27-5-49-29-50C55-147 81-57 75 0H25l-1-190h47c2 12-1 28 3 38 10-53 101-56 108 0 13-22 24-43 59-42 82 1 51 116 57 194h-49v-107c-1-25-5-48-29-50" id="ac"/><path fill="#3a414a" d="M133-34C117-15 103 5 69 4 32 3 11-16 11-54c-1-60 55-63 116-61 1-26-3-47-28-47-18 1-26 9-28 27l-52-2c7-38 36-58 82-57s74 22 75 68l1 82c-1 14 12 18 25 15v27c-30 8-71 5-69-32zm-48 3c29 0 43-24 42-57-32 0-66-3-65 30 0 17 8 27 23 27" id="ad"/><g id="i"><use transform="matrix(0.06762456790123457,0,0,0.06762456790123457,0,0)" xlink:href="#V"/><use transform="matrix(0.06762456790123457,0,0,0.06762456790123457,14.877404938271605,0)" xlink:href="#W"/><use transform="matrix(0.06762456790123457,0,0,0.06762456790123457,28.40231851851852,0)" xlink:href="#X"/><use transform="matrix(0.06762456790123457,0,0,0.06762456790123457,37.86975802469136,0)" xlink:href="#Y"/><use transform="matrix(0.06762456790123457,0,0,0.06762456790123457,45.917081604938275,0)" xlink:href="#X"/><use transform="matrix(0.06762456790123457,0,0,0.06762456790123457,55.38452111111111,0)" xlink:href="#Z"/><use transform="matrix(0.06762456790123457,0,0,0.06762456790123457,62.14697790123457,0)" xlink:href="#W"/><use transform="matrix(0.06762456790123457,0,0,0.06762456790123457,75.67189148148148,0)" xlink:href="#aa"/><use transform="matrix(0.06762456790123457,0,0,0.06762456790123457,90.48167185185186,0)" xlink:href="#ab"/><use transform="matrix(0.06762456790123457,0,0,0.06762456790123457,104.00658543209877,0)" xlink:href="#ac"/><use transform="matrix(0.06762456790123457,0,0,0.06762456790123457,125.64644716049384,0)" xlink:href="#Z"/><use transform="matrix(0.06762456790123457,0,0,0.06762456790123457,132.4089039506173,0)" xlink:href="#Y"/><use transform="matrix(0.06762456790123457,0,0,0.06762456790123457,140.4562275308642,0)" xlink:href="#ad"/><use transform="matrix(0.06762456790123457,0,0,0.06762456790123457,153.98114111111113,0)" xlink:href="#X"/><use transform="matrix(0.06762456790123457,0,0,0.06762456790123457,163.44858061728394,0)" xlink:href="#aa"/><use transform="matrix(0.06762456790123457,0,0,0.06762456790123457,178.2583609876543,0)" xlink:href="#W"/><use transform="matrix(0.06762456790123457,0,0,0.06762456790123457,191.7832745679012,0)" xlink:href="#Z"/><use transform="matrix(0.06762456790123457,0,0,0.06762456790123457,198.54573135802465,0)" xlink:href="#Y"/><use transform="matrix(0.06762456790123457,0,0,0.06762456790123457,206.59305493827154,0)" xlink:href="#W"/><use transform="matrix(0.06762456790123457,0,0,0.06762456790123457,220.11796851851847,0)" xlink:href="#X"/></g><path fill="#3a414a" d="M210-169c-67 3-38 105-44 169h-31v-121c0-29-5-50-35-48C34-165 62-65 56 0H25l-1-190h30c1 10-1 24 2 32 10-44 99-50 107 0 11-21 27-35 58-36 85-2 47 119 55 194h-31v-121c0-29-5-49-35-48" id="ae"/><path fill="#3a414a" d="M100-194c62-1 85 37 85 99 1 63-27 99-86 99S16-35 15-95c0-66 28-99 85-99zM99-20c44 1 53-31 53-75 0-43-8-75-51-75s-53 32-53 75 10 74 51 75zm22-194v-33h29v33h-29zm-69 0v-33h29v33H52" id="af"/><path fill="#3a414a" d="M96-169c-40 0-48 33-48 73s9 75 48 75c24 0 41-14 43-38l32 2c-6 37-31 61-74 61-59 0-76-41-82-99-10-93 101-131 147-64 4 7 5 14 7 22l-32 3c-4-21-16-35-41-35" id="ag"/><path fill="#3a414a" d="M106-169C34-169 62-67 57 0H25v-261h32l-1 103c12-21 28-36 61-36 89 0 53 116 60 194h-32v-121c2-32-8-49-39-48" id="ah"/><g id="j"><use transform="matrix(0.06762456790123457,0,0,0.06762456790123457,0,0)" xlink:href="#ae"/><use transform="matrix(0.06762456790123457,0,0,0.06762456790123457,20.219745802469138,0)" xlink:href="#af"/><use transform="matrix(0.06762456790123457,0,0,0.06762456790123457,33.74465938271605,0)" xlink:href="#ag"/><use transform="matrix(0.06762456790123457,0,0,0.06762456790123457,45.917081604938275,0)" xlink:href="#ah"/><use transform="matrix(0.06762456790123457,0,0,0.06762456790123457,59.44199518518519,0)" xlink:href="#P"/><use transform="matrix(0.06762456790123457,0,0,0.06762456790123457,66.20445197530864,0)" xlink:href="#K"/></g><g id="k"><use transform="matrix(0.06762456790123457,0,0,0.06762456790123457,0,0)" xlink:href="#D"/><use transform="matrix(0.06762456790123457,0,0,0.06762456790123457,5.342340864197531,0)" xlink:href="#ag"/><use transform="matrix(0.06762456790123457,0,0,0.06762456790123457,17.514763086419755,0)" xlink:href="#ah"/></g><path fill="#3a414a" d="M199 0l-22-63H83L61 0H9l90-248h61L250 0h-51zm-33-102l-36-108c-10 38-24 72-36 108h72" id="ai"/><path fill="#3a414a" d="M88-194c31-1 46 15 58 34l-1-101h50l1 261h-48c-2-10 0-23-3-31C134-8 116 4 84 4 32 4 16-41 15-95c0-56 19-97 73-99zm17 164c33 0 40-30 41-66 1-37-9-64-41-64s-38 30-39 65c0 43 13 65 39 65" id="aj"/><path fill="#3a414a" d="M135-194c87-1 58 113 63 194h-50c-7-57 23-157-34-157-59 0-34 97-39 157H25l-1-190h47c2 12-1 28 3 38 12-26 28-41 61-42" id="ak"/><g id="l"><use transform="matrix(0.06762456790123457,0,0,0.06762456790123457,0,0)" xlink:href="#ai"/><use transform="matrix(0.06762456790123457,0,0,0.06762456790123457,17.514763086419755,0)" xlink:href="#aj"/><use transform="matrix(0.06762456790123457,0,0,0.06762456790123457,32.324543456790124,0)" xlink:href="#X"/><use transform="matrix(0.06762456790123457,0,0,0.06762456790123457,41.79198296296296,0)" xlink:href="#W"/><use transform="matrix(0.06762456790123457,0,0,0.06762456790123457,55.31689654320988,0)" xlink:href="#ab"/><use transform="matrix(0.06762456790123457,0,0,0.06762456790123457,68.8418101234568,0)" xlink:href="#ab"/><use transform="matrix(0.06762456790123457,0,0,0.06762456790123457,82.36672370370371,0)" xlink:href="#W"/><use transform="matrix(0.06762456790123457,0,0,0.06762456790123457,95.89163728395063,0)" xlink:href="#ak"/></g><g id="m"><use transform="matrix(0.06762456790123457,0,0,0.06762456790123457,0,0)" xlink:href="#aj"/><use transform="matrix(0.06762456790123457,0,0,0.06762456790123457,14.80978037037037,0)" xlink:href="#W"/><use transform="matrix(0.06762456790123457,0,0,0.06762456790123457,28.334693950617286,0)" xlink:href="#X"/></g><path fill="#3a414a" d="M195 0l-88-114-31 24V0H24v-248h52v113l112-113h60L142-143 257 0h-62" id="al"/><path fill="#3a414a" d="M85 4C-2 5 27-109 22-190h50c7 57-23 150 33 157 60-5 35-97 40-157h50l1 190h-47c-2-12 1-28-3-38-12 25-28 42-61 42" id="am"/><g id="n"><use transform="matrix(0.06762456790123457,0,0,0.06762456790123457,0,0)" xlink:href="#al"/><use transform="matrix(0.06762456790123457,0,0,0.06762456790123457,17.514763086419755,0)" xlink:href="#am"/><use transform="matrix(0.06762456790123457,0,0,0.06762456790123457,32.324543456790124,0)" xlink:href="#ak"/><use transform="matrix(0.06762456790123457,0,0,0.06762456790123457,47.13432382716049,0)" xlink:href="#aj"/><use transform="matrix(0.06762456790123457,0,0,0.06762456790123457,61.94410419753087,0)" xlink:href="#W"/><use transform="matrix(0.06762456790123457,0,0,0.06762456790123457,75.46901777777778,0)" xlink:href="#ak"/></g><path fill="#3a414a" d="M144 0l-44-69L55 0H2l70-98-66-92h53l41 62 40-62h54l-67 91 71 99h-54" id="an"/><path fill="#3a414a" d="M135-194c53 0 70 44 70 98 0 56-19 98-73 100-31 1-45-17-59-34 3 33 2 69 2 105H25l-1-265h48c2 10 0 23 3 31 11-24 29-35 60-35zM114-30c33 0 39-31 40-66 0-38-9-64-40-64-56 0-55 130 0 130" id="ao"/><path fill="#3a414a" d="M110-194c64 0 96 36 96 99 0 64-35 99-97 99-61 0-95-36-95-99 0-62 34-99 96-99zm-1 164c35 0 45-28 45-65 0-40-10-65-43-65-34 0-45 26-45 65 0 36 10 65 43 65" id="ap"/><g id="o"><use transform="matrix(0.06762456790123457,0,0,0.06762456790123457,0,0)" xlink:href="#W"/><use transform="matrix(0.06762456790123457,0,0,0.06762456790123457,13.524913580246913,0)" xlink:href="#an"/><use transform="matrix(0.06762456790123457,0,0,0.06762456790123457,27.049827160493827,0)" xlink:href="#ao"/><use transform="matrix(0.06762456790123457,0,0,0.06762456790123457,41.859607530864196,0)" xlink:href="#ap"/><use transform="matrix(0.06762456790123457,0,0,0.06762456790123457,56.669387901234565,0)" xlink:href="#X"/><use transform="matrix(0.06762456790123457,0,0,0.06762456790123457,66.13682740740741,0)" xlink:href="#Y"/><use transform="matrix(0.06762456790123457,0,0,0.06762456790123457,74.18415098765432,0)" xlink:href="#Z"/><use transform="matrix(0.06762456790123457,0,0,0.06762456790123457,80.94660777777777,0)" xlink:href="#W"/><use transform="matrix(0.06762456790123457,0,0,0.06762456790123457,94.47152135802469,0)" xlink:href="#X"/><use transform="matrix(0.06762456790123457,0,0,0.06762456790123457,103.93896086419751,0)" xlink:href="#W"/><use transform="matrix(0.06762456790123457,0,0,0.06762456790123457,117.46387444444444,0)" xlink:href="#ak"/></g><path fill="#3a414a" d="M143 0L79-87 56-68V0H24v-261h32v163l83-92h37l-77 82L181 0h-38" id="aq"/><g id="p"><use transform="matrix(0.06762456790123457,0,0,0.06762456790123457,0,0)" xlink:href="#aq"/><use transform="matrix(0.06762456790123457,0,0,0.06762456790123457,12.172422222222222,0)" xlink:href="#af"/><use transform="matrix(0.06762456790123457,0,0,0.06762456790123457,25.697335802469134,0)" xlink:href="#T"/><use transform="matrix(0.06762456790123457,0,0,0.06762456790123457,39.22224938271604,0)" xlink:href="#T"/><use transform="matrix(0.06762456790123457,0,0,0.06762456790123457,52.74716296296295,0)" xlink:href="#K"/><use transform="matrix(0.06762456790123457,0,0,0.06762456790123457,66.27207654320988,0)" xlink:href="#T"/></g><g id="q"><use transform="matrix(0.06762456790123457,0,0,0.06762456790123457,0,0)" xlink:href="#J"/><use transform="matrix(0.06762456790123457,0,0,0.06762456790123457,13.524913580246913,0)" xlink:href="#ae"/></g><g id="r"><use transform="matrix(0.06762456790123457,0,0,0.06762456790123457,0,0)" xlink:href="#ab"/><use transform="matrix(0.06762456790123457,0,0,0.06762456790123457,13.524913580246913,0)" xlink:href="#Z"/><use transform="matrix(0.06762456790123457,0,0,0.06762456790123457,20.28737037037037,0)" xlink:href="#W"/></g><g id="s"><use transform="matrix(0.06762456790123457,0,0,0.06762456790123457,0,0)" xlink:href="#ad"/><use transform="matrix(0.06762456790123457,0,0,0.06762456790123457,13.524913580246913,0)" xlink:href="#ak"/></g><g id="t"><use transform="matrix(0.06762456790123457,0,0,0.06762456790123457,0,0)" xlink:href="#am"/><use transform="matrix(0.06762456790123457,0,0,0.06762456790123457,14.80978037037037,0)" xlink:href="#ak"/><use transform="matrix(0.06762456790123457,0,0,0.06762456790123457,29.61956074074074,0)" xlink:href="#ab"/><use transform="matrix(0.06762456790123457,0,0,0.06762456790123457,43.144474320987655,0)" xlink:href="#W"/><use transform="matrix(0.06762456790123457,0,0,0.06762456790123457,56.66938790123457,0)" xlink:href="#X"/><use transform="matrix(0.06762456790123457,0,0,0.06762456790123457,66.13682740740741,0)" xlink:href="#W"/><use transform="matrix(0.06762456790123457,0,0,0.06762456790123457,79.66174098765433,0)" xlink:href="#ak"/></g><path fill="#3a414a" d="M24-248c93 1 206-16 204 79-1 75-69 88-152 82V0H24v-248zm52 121c47 0 100 7 100-41 0-47-54-39-100-39v80" id="ar"/><g id="u"><use transform="matrix(0.06762456790123457,0,0,0.06762456790123457,0,0)" xlink:href="#ar"/><use transform="matrix(0.06762456790123457,0,0,0.06762456790123457,16.229896296296296,0)" xlink:href="#ad"/><use transform="matrix(0.06762456790123457,0,0,0.06762456790123457,29.75480987654321,0)" xlink:href="#X"/><use transform="matrix(0.06762456790123457,0,0,0.06762456790123457,39.22224938271605,0)" xlink:href="#Y"/><use transform="matrix(0.06762456790123457,0,0,0.06762456790123457,47.269572962962975,0)" xlink:href="#ak"/><use transform="matrix(0.06762456790123457,0,0,0.06762456790123457,62.07935333333334,0)" xlink:href="#W"/><use transform="matrix(0.06762456790123457,0,0,0.06762456790123457,75.60426691358025,0)" xlink:href="#X"/></g><path fill="#3a414a" d="M231 0h-52l-39-155L100 0H48L-1-190h46L77-45c9-52 24-97 36-145h53l37 145 32-145h46" id="as"/><g id="v"><use transform="matrix(0.06762456790123457,0,0,0.06762456790123457,0,0)" xlink:href="#ai"/><use transform="matrix(0.06762456790123457,0,0,0.06762456790123457,17.041391111111114,0)" xlink:href="#as"/><use transform="matrix(0.06762456790123457,0,0,0.06762456790123457,35.97627012345679,0)" xlink:href="#W"/><use transform="matrix(0.06762456790123457,0,0,0.06762456790123457,49.5011837037037,0)" xlink:href="#ab"/><use transform="matrix(0.06762456790123457,0,0,0.06762456790123457,63.02609728395062,0)" xlink:href="#ap"/><use transform="matrix(0.06762456790123457,0,0,0.06762456790123457,77.835877654321,0)" xlink:href="#ac"/><use transform="matrix(0.06762456790123457,0,0,0.06762456790123457,99.47573938271606,0)" xlink:href="#W"/><use transform="matrix(0.06762456790123457,0,0,0.06762456790123457,113.00065296296299,0)" xlink:href="#ar"/><use transform="matrix(0.06762456790123457,0,0,0.06762456790123457,129.23054925925928,0)" xlink:href="#X"/><use transform="matrix(0.06762456790123457,0,0,0.06762456790123457,138.69798876543211,0)" xlink:href="#Z"/><use transform="matrix(0.06762456790123457,0,0,0.06762456790123457,145.46044555555557,0)" xlink:href="#ak"/><use transform="matrix(0.06762456790123457,0,0,0.06762456790123457,160.27022592592593,0)" xlink:href="#Y"/><use transform="matrix(0.06762456790123457,0,0,0.06762456790123457,168.31754950617284,0)" xlink:href="#ab"/></g><path fill="#3a414a" d="M121-226c-27-7-43 5-38 36h38v33H83V0H34v-157H6v-33h28c-9-59 32-81 87-68v32" id="at"/><path fill="#3a414a" d="M85 4C-2 5 27-109 22-190h50c7 57-23 150 33 157 60-5 35-97 40-157h50l1 190h-47c-2-12 1-28-3-38-12 25-28 42-61 42zm44-215v-38h38v38h-38zm-76 0v-38h37v38H53" id="au"/><g id="w"><use transform="matrix(0.06762456790123457,0,0,0.06762456790123457,0,0)" xlink:href="#at"/><use transform="matrix(0.06762456790123457,0,0,0.06762456790123457,8.047323580246914,0)" xlink:href="#au"/><use transform="matrix(0.06762456790123457,0,0,0.06762456790123457,22.857103950617287,0)" xlink:href="#X"/></g><g id="x"><use transform="matrix(0.06762456790123457,0,0,0.06762456790123457,0,0)" xlink:href="#aj"/><use transform="matrix(0.06762456790123457,0,0,0.06762456790123457,14.80978037037037,0)" xlink:href="#ad"/><use transform="matrix(0.06762456790123457,0,0,0.06762456790123457,28.334693950617286,0)" xlink:href="#ab"/></g><path fill="#3a414a" d="M24 0v-248h52v208h133V0H24" id="av"/><path fill="#3a414a" d="M25 0v-261h50V0H25" id="aw"/><path fill="#3a414a" d="M195-6C206 82 75 100 31 46c-4-6-6-13-8-21l49-6c3 16 16 24 34 25 40 0 42-37 40-79-11 22-30 35-61 35-53 0-70-43-70-97 0-56 18-96 73-97 30 0 46 14 59 34l2-30h47zm-90-29c32 0 41-27 41-63 0-35-9-62-40-62-32 0-39 29-40 63 0 36 9 62 39 62" id="ax"/><g id="y"><use transform="matrix(0.06762456790123457,0,0,0.06762456790123457,0,0)" xlink:href="#av"/><use transform="matrix(0.06762456790123457,0,0,0.06762456790123457,14.80978037037037,0)" xlink:href="#ad"/><use transform="matrix(0.06762456790123457,0,0,0.06762456790123457,28.334693950617286,0)" xlink:href="#aa"/><use transform="matrix(0.06762456790123457,0,0,0.06762456790123457,43.144474320987655,0)" xlink:href="#W"/><use transform="matrix(0.06762456790123457,0,0,0.06762456790123457,56.66938790123457,0)" xlink:href="#aw"/><use transform="matrix(0.06762456790123457,0,0,0.06762456790123457,63.43184469135804,0)" xlink:href="#Z"/><use transform="matrix(0.06762456790123457,0,0,0.06762456790123457,70.19430148148149,0)" xlink:href="#ak"/><use transform="matrix(0.06762456790123457,0,0,0.06762456790123457,85.00408185185186,0)" xlink:href="#ax"/></g><path fill="#3a414a" d="M12 0v-35l95-120H19v-35h142v35L67-36h103V0H12" id="ay"/><g id="z"><use transform="matrix(0.06762456790123457,0,0,0.06762456790123457,0,0)" xlink:href="#ay"/><use transform="matrix(0.06762456790123457,0,0,0.06762456790123457,12.172422222222222,0)" xlink:href="#am"/></g><path fill="#3a414a" d="M33 0v-38h34V0H33" id="az"/><g id="A"><use transform="matrix(0.06762456790123457,0,0,0.06762456790123457,0,0)" xlink:href="#ab"/><use transform="matrix(0.06762456790123457,0,0,0.06762456790123457,13.524913580246913,0)" xlink:href="#W"/><use transform="matrix(0.06762456790123457,0,0,0.06762456790123457,27.049827160493827,0)" xlink:href="#ak"/><use transform="matrix(0.06762456790123457,0,0,0.06762456790123457,41.859607530864196,0)" xlink:href="#aj"/><use transform="matrix(0.06762456790123457,0,0,0.06762456790123457,56.669387901234565,0)" xlink:href="#W"/><use transform="matrix(0.06762456790123457,0,0,0.06762456790123457,70.19430148148147,0)" xlink:href="#ak"/><use transform="matrix(0.06762456790123457,0,0,0.06762456790123457,85.00408185185185,0)" xlink:href="#az"/></g></defs></g></svg>