<svg xmlns="http://www.w3.org/2000/svg" xmlns:xlink="http://www.w3.org/1999/xlink" xmlns:lucid="lucid" width="1080.84" height="680"><g transform="translate(-899.1550198025105 -420)" lucid:page-tab-id="0_0"><path d="M500 0h1500v1500H500z" fill="#fff"/><path d="M900 426a6 6 0 0 1 6-6h1068a6 6 0 0 1 6 6v668a6 6 0 0 1-6 6H906a6 6 0 0 1-6-6z" stroke="#000" stroke-opacity="0" stroke-width="2" fill="#fff"/><path d="M1140 446a6 6 0 0 1 6-6h548a6 6 0 0 1 6 6v608a6 6 0 0 1-6 6h-548a6 6 0 0 1-6-6z" stroke="#282c33" stroke-width="2" fill-opacity="0"/><use xlink:href="#a" transform="matrix(1,0,0,1,1148,448) translate(168.41975308641975 17.77777777777778)"/><path d="M959.75 639.75c0 10.9-8.84 19.75-19.75 19.75-10.9 0-19.75-8.84-19.75-19.75 0-10.9 8.84-19.75 19.75-19.75 10.9 0 19.75 8.84 19.75 19.75z" stroke="#282c33" stroke-width="2" fill="#fff"/><path d="M940 659.5v49.3a20.7 20.7 0 0 0 3.2 11.07L980 778m-40-63.2L900 778m0-98.75h80" stroke="#282c33" stroke-width="2" fill="none"/><path d="M900 626a6 6 0 0 1 6-6h68a6 6 0 0 1 6 6v168a6 6 0 0 1-6 6h-68a6 6 0 0 1-6-6z" fill="none"/><use xlink:href="#b" transform="matrix(1,0,0,1,820,778) translate(81.7283950617284 17.77777777777778)"/><path d="M1420 580c0 33.14-44.77 60-100 60s-100-26.86-100-60 44.77-60 100-60 100 26.86 100 60z" stroke="#282c33" stroke-width="2" fill="#fff"/><use xlink:href="#c" transform="matrix(1,0,0,1,1220,520) translate(53.05499999999999 51.9)"/><use xlink:href="#d" transform="matrix(1,0,0,1,1220,520) translate(121.005 51.9)"/><use xlink:href="#e" transform="matrix(1,0,0,1,1220,520) translate(26.07999999999999 73.5)"/><use xlink:href="#f" transform="matrix(1,0,0,1,1220,520) translate(126.98 73.5)"/><path d="M1899.75 639.75c0 10.9-8.84 19.75-19.75 19.75-10.9 0-19.75-8.84-19.75-19.75 0-10.9 8.84-19.75 19.75-19.75 10.9 0 19.75 8.84 19.75 19.75z" stroke="#282c33" stroke-width="2" fill="#fff"/><path d="M1880 659.5v49.3a20.7 20.7 0 0 0 3.2 11.07L1920 778m-40-63.2l-40 63.2m0-98.75h80" stroke="#282c33" stroke-width="2" fill="none"/><path d="M1840 626a6 6 0 0 1 6-6h68a6 6 0 0 1 6 6v168a6 6 0 0 1-6 6h-68a6 6 0 0 1-6-6z" fill="none"/><use xlink:href="#g" transform="matrix(1,0,0,1,1760,778) translate(67.68518518518519 17.77777777777778)"/><path d="M1520 780c0 33.14-44.77 60-100 60s-100-26.86-100-60 44.77-60 100-60 100 26.86 100 60z" stroke="#282c33" stroke-width="2" fill="#fff"/><use xlink:href="#h" transform="matrix(1,0,0,1,1320,720) translate(20.605 51.9)"/><use xlink:href="#i" transform="matrix(1,0,0,1,1320,720) translate(106.50500000000001 51.9)"/><use xlink:href="#j" transform="matrix(1,0,0,1,1320,720) translate(130.505 51.9)"/><use xlink:href="#k" transform="matrix(1,0,0,1,1320,720) translate(81.53 73.5)"/><path d="M1520 940c0 33.14-44.77 60-100 60s-100-26.86-100-60 44.77-60 100-60 100 26.86 100 60z" stroke="#282c33" stroke-width="2" fill="#fff"/><use xlink:href="#l" transform="matrix(1,0,0,1,1320,880) translate(30.579999999999995 51.9)"/><use xlink:href="#m" transform="matrix(1,0,0,1,1320,880) translate(52.55499999999999 73.5)"/><path d="M1218.53 580.17l-212.07 77.47" stroke="#3a414a" fill="none"/><path d="M1219 580v.5l-.32.12-.33-.9.66-.23z" stroke="#3a414a" stroke-width=".05" fill="#3a414a"/><path d="M1000.92 659.66l9.5-11.6 5.25 14.35z" stroke="#3a414a" fill="#3a414a"/><path d="M1006.67 701.67l305.66 76.66" stroke="#3a414a" fill="none"/><path d="M1000.95 700.24l14.38-4.27-3.7 14.82zM1318.05 779.76l-14.38 4.27 3.7-14.82z" stroke="#3a414a" fill="#3a414a"/><path d="M1819.6 700.3l-298.67 215.5M1819.58 700.3l.42-.3" stroke="#3a414a" fill="none"/><path d="M1516.15 919.25l6-13.75 8.94 12.38z" stroke="#3a414a" fill="#3a414a"/><path d="M1320.3 928.37L1006.1 763.2" stroke="#3a414a" fill="none"/><path d="M1320.9 928.15l-.17.53-.1.4-.55-.3.44-.84z" stroke="#3a414a" stroke-width=".05" fill="#3a414a"/><path d="M1000.87 760.46l14.98-.75-7.1 13.52z" stroke="#3a414a" fill="#3a414a"/><path d="M1660 580c0 33.14-44.77 60-100 60s-100-26.86-100-60 44.77-60 100-60 100 26.86 100 60z" stroke="#282c33" stroke-width="2" fill="#fff"/><g><use xlink:href="#n" transform="matrix(1,0,0,1,1460,520) translate(47.055 63.15)"/><use xlink:href="#o" transform="matrix(1,0,0,1,1460,520) translate(89.005 63.15)"/></g><path d="M1811.78 662.07l-146-68.83" stroke="#3a414a" fill="none"/><path d="M1817.1 664.58l-14.92 1.4 6.5-13.8zM1660.44 590.73l14.94-1.4-6.5 13.8z" stroke="#3a414a" fill="#3a414a"/><defs><path fill="#3a414a" d="M194 0L95-120 63-95V0H30v-248h33v124l119-124h40L117-140 236 0h-42" id="p"/><path fill="#3a414a" d="M84 4C-5 8 30-112 23-190h32v120c0 31 7 50 39 49 72-2 45-101 50-169h31l1 190h-30c-1-10 1-25-2-33-11 22-28 36-60 37" id="q"/><path fill="#3a414a" d="M114-163C36-179 61-72 57 0H25l-1-190h30c1 12-1 29 2 39 6-27 23-49 58-41v29" id="r"/><path fill="#3a414a" d="M135-143c-3-34-86-38-87 0 15 53 115 12 119 90S17 21 10-45l28-5c4 36 97 45 98 0-10-56-113-15-118-90-4-57 82-63 122-42 12 7 21 19 24 35" id="s"/><path fill="#3a414a" d="M205 0l-28-72H64L36 0H1l101-248h38L239 0h-34zm-38-99l-47-123c-12 45-31 82-46 123h93" id="t"/><path fill="#3a414a" d="M117-194c89-4 53 116 60 194h-32v-121c0-31-8-49-39-48C34-167 62-67 57 0H25l-1-190h30c1 10-1 24 2 32 11-22 29-35 61-36" id="u"/><path fill="#3a414a" d="M210-169c-67 3-38 105-44 169h-31v-121c0-29-5-50-35-48C34-165 62-65 56 0H25l-1-190h30c1 10-1 24 2 32 10-44 99-50 107 0 11-21 27-35 58-36 85-2 47 119 55 194h-31v-121c0-29-5-49-35-48" id="v"/><path fill="#3a414a" d="M100-194c63 0 86 42 84 106H49c0 40 14 67 53 68 26 1 43-12 49-29l28 8c-11 28-37 45-77 45C44 4 14-33 15-96c1-61 26-98 85-98zm52 81c6-60-76-77-97-28-3 7-6 17-6 28h103" id="w"/><path fill="#3a414a" d="M24 0v-261h32V0H24" id="x"/><path fill="#3a414a" d="M85-194c31 0 48 13 60 33l-1-100h32l1 261h-30c-2-10 0-23-3-31C134-8 116 4 85 4 32 4 16-35 15-94c0-66 23-100 70-100zm9 24c-40 0-46 34-46 75 0 40 6 74 45 74 42 0 51-32 51-76 0-42-9-74-50-73" id="y"/><path fill="#3a414a" d="M185-189c-5-48-123-54-124 2 14 75 158 14 163 119 3 78-121 87-175 55-17-10-28-26-33-46l33-7c5 56 141 63 141-1 0-78-155-14-162-118-5-82 145-84 179-34 5 7 8 16 11 25" id="z"/><path fill="#3a414a" d="M179-190L93 31C79 59 56 82 12 73V49c39 6 53-20 64-50L1-190h34L92-34l54-156h33" id="A"/><path fill="#3a414a" d="M59-47c-2 24 18 29 38 22v24C64 9 27 4 27-40v-127H5v-23h24l9-43h21v43h35v23H59v120" id="B"/><g id="a"><use transform="matrix(0.06172839506172839,0,0,0.06172839506172839,0,0)" xlink:href="#p"/><use transform="matrix(0.06172839506172839,0,0,0.06172839506172839,14.814814814814813,0)" xlink:href="#q"/><use transform="matrix(0.06172839506172839,0,0,0.06172839506172839,27.160493827160494,0)" xlink:href="#r"/><use transform="matrix(0.06172839506172839,0,0,0.06172839506172839,34.50617283950617,0)" xlink:href="#s"/><use transform="matrix(0.06172839506172839,0,0,0.06172839506172839,45.61728395061728,0)" xlink:href="#t"/><use transform="matrix(0.06172839506172839,0,0,0.06172839506172839,60.43209876543209,0)" xlink:href="#u"/><use transform="matrix(0.06172839506172839,0,0,0.06172839506172839,72.77777777777777,0)" xlink:href="#v"/><use transform="matrix(0.06172839506172839,0,0,0.06172839506172839,91.23456790123456,0)" xlink:href="#w"/><use transform="matrix(0.06172839506172839,0,0,0.06172839506172839,103.58024691358024,0)" xlink:href="#x"/><use transform="matrix(0.06172839506172839,0,0,0.06172839506172839,108.45679012345678,0)" xlink:href="#y"/><use transform="matrix(0.06172839506172839,0,0,0.06172839506172839,120.80246913580247,0)" xlink:href="#w"/><use transform="matrix(0.06172839506172839,0,0,0.06172839506172839,133.14814814814815,0)" xlink:href="#z"/><use transform="matrix(0.06172839506172839,0,0,0.06172839506172839,147.96296296296296,0)" xlink:href="#A"/><use transform="matrix(0.06172839506172839,0,0,0.06172839506172839,159.07407407407408,0)" xlink:href="#s"/><use transform="matrix(0.06172839506172839,0,0,0.06172839506172839,170.1851851851852,0)" xlink:href="#B"/><use transform="matrix(0.06172839506172839,0,0,0.06172839506172839,176.35802469135803,0)" xlink:href="#w"/><use transform="matrix(0.06172839506172839,0,0,0.06172839506172839,188.7037037037037,0)" xlink:href="#v"/></g><g id="b"><use transform="matrix(0.06172839506172839,0,0,0.06172839506172839,0,0)" xlink:href="#z"/><use transform="matrix(0.06172839506172839,0,0,0.06172839506172839,14.814814814814813,0)" xlink:href="#B"/><use transform="matrix(0.06172839506172839,0,0,0.06172839506172839,20.98765432098765,0)" xlink:href="#q"/><use transform="matrix(0.06172839506172839,0,0,0.06172839506172839,33.33333333333333,0)" xlink:href="#y"/><use transform="matrix(0.06172839506172839,0,0,0.06172839506172839,45.679012345679006,0)" xlink:href="#w"/><use transform="matrix(0.06172839506172839,0,0,0.06172839506172839,58.02469135802468,0)" xlink:href="#u"/><use transform="matrix(0.06172839506172839,0,0,0.06172839506172839,70.37037037037037,0)" xlink:href="#B"/></g><path d="M205 0l-28-72H64L36 0H1l101-248h38L239 0h-34zm-38-99l-47-123c-12 45-31 82-46 123h93" id="C"/><path d="M115-194c53 0 69 39 70 98 0 66-23 100-70 100C84 3 66-7 56-30L54 0H23l1-261h32v101c10-23 28-34 59-34zm-8 174c40 0 45-34 45-75 0-40-5-75-45-74-42 0-51 32-51 76 0 43 10 73 51 73" id="D"/><path d="M101-234c-31-9-42 10-38 44h38v23H63V0H32v-167H5v-23h27c-7-52 17-82 69-68v24" id="E"/><path d="M114-163C36-179 61-72 57 0H25l-1-190h30c1 12-1 29 2 39 6-27 23-49 58-41v29" id="F"/><path d="M141-36C126-15 110 5 73 4 37 3 15-17 15-53c-1-64 63-63 125-63 3-35-9-54-41-54-24 1-41 7-42 31l-33-3c5-37 33-52 76-52 45 0 72 20 72 64v82c-1 20 7 32 28 27v20c-31 9-61-2-59-35zM48-53c0 20 12 33 32 33 41-3 63-29 60-74-43 2-92-5-92 41" id="G"/><path d="M177-190C167-65 218 103 67 71c-23-6-38-20-44-43l32-5c15 47 100 32 89-28v-30C133-14 115 1 83 1 29 1 15-40 15-95c0-56 16-97 71-98 29-1 48 16 59 35 1-10 0-23 2-32h30zM94-22c36 0 50-32 50-73 0-42-14-75-50-75-39 0-46 34-46 75s6 73 46 73" id="H"/><path d="M100-194c63 0 86 42 84 106H49c0 40 14 67 53 68 26 1 43-12 49-29l28 8c-11 28-37 45-77 45C44 4 14-33 15-96c1-61 26-98 85-98zm52 81c6-60-76-77-97-28-3 7-6 17-6 28h103" id="I"/><g id="c"><use transform="matrix(0.05,0,0,0.05,0,0)" xlink:href="#C"/><use transform="matrix(0.05,0,0,0.05,12,0)" xlink:href="#D"/><use transform="matrix(0.05,0,0,0.05,22,0)" xlink:href="#E"/><use transform="matrix(0.05,0,0,0.05,27,0)" xlink:href="#F"/><use transform="matrix(0.05,0,0,0.05,32.95,0)" xlink:href="#G"/><use transform="matrix(0.05,0,0,0.05,42.95,0)" xlink:href="#H"/><use transform="matrix(0.05,0,0,0.05,52.95,0)" xlink:href="#I"/></g><path d="M85-194c31 0 48 13 60 33l-1-100h32l1 261h-30c-2-10 0-23-3-31C134-8 116 4 85 4 32 4 16-35 15-94c0-66 23-100 70-100zm9 24c-40 0-46 34-46 75 0 40 6 74 45 74 42 0 51-32 51-76 0-42-9-74-50-73" id="J"/><g id="d"><use transform="matrix(0.05,0,0,0.05,0,0)" xlink:href="#J"/><use transform="matrix(0.05,0,0,0.05,10,0)" xlink:href="#I"/><use transform="matrix(0.05,0,0,0.05,20,0)" xlink:href="#F"/></g><path d="M108 0H70L1-190h34L89-25l56-165h34" id="K"/><path d="M85 4C-4 8 31-112 24-190h32v120c0 31 7 50 39 49 72-2 45-101 50-169h31l1 190h-30c-1-10 1-25-2-33-11 22-28 36-60 37zm34-218v-33h29v33h-29zm-69 0v-33h29v33H50" id="L"/><path d="M117-194c89-4 53 116 60 194h-32v-121c0-31-8-49-39-48C34-167 62-67 57 0H25l-1-190h30c1 10-1 24 2 32 11-22 29-35 61-36" id="M"/><g id="e"><use transform="matrix(0.05,0,0,0.05,0,0)" xlink:href="#K"/><use transform="matrix(0.05,0,0,0.05,9,0)" xlink:href="#I"/><use transform="matrix(0.05,0,0,0.05,19,0)" xlink:href="#F"/><use transform="matrix(0.05,0,0,0.05,24.95,0)" xlink:href="#E"/><use transform="matrix(0.05,0,0,0.05,29.950000000000003,0)" xlink:href="#L"/><use transform="matrix(0.05,0,0,0.05,39.95,0)" xlink:href="#H"/><use transform="matrix(0.05,0,0,0.05,49.95,0)" xlink:href="#D"/><use transform="matrix(0.05,0,0,0.05,59.95,0)" xlink:href="#G"/><use transform="matrix(0.05,0,0,0.05,69.95,0)" xlink:href="#F"/><use transform="matrix(0.05,0,0,0.05,75.9,0)" xlink:href="#I"/><use transform="matrix(0.05,0,0,0.05,85.9,0)" xlink:href="#M"/></g><path d="M194 0L95-120 63-95V0H30v-248h33v124l119-124h40L117-140 236 0h-42" id="N"/><path d="M84 4C-5 8 30-112 23-190h32v120c0 31 7 50 39 49 72-2 45-101 50-169h31l1 190h-30c-1-10 1-25-2-33-11 22-28 36-60 37" id="O"/><path d="M135-143c-3-34-86-38-87 0 15 53 115 12 119 90S17 21 10-45l28-5c4 36 97 45 98 0-10-56-113-15-118-90-4-57 82-63 122-42 12 7 21 19 24 35" id="P"/><g id="f"><use transform="matrix(0.05,0,0,0.05,0,0)" xlink:href="#N"/><use transform="matrix(0.05,0,0,0.05,12,0)" xlink:href="#O"/><use transform="matrix(0.05,0,0,0.05,22,0)" xlink:href="#F"/><use transform="matrix(0.05,0,0,0.05,27.950000000000003,0)" xlink:href="#P"/><use transform="matrix(0.05,0,0,0.05,36.95,0)" xlink:href="#I"/></g><path fill="#3a414a" d="M240 0l2-218c-23 76-54 145-80 218h-23L58-218 59 0H30v-248h44l77 211c21-75 51-140 76-211h43V0h-30" id="Q"/><path fill="#3a414a" d="M24-231v-30h32v30H24zM24 0v-190h32V0H24" id="R"/><path fill="#3a414a" d="M141-36C126-15 110 5 73 4 37 3 15-17 15-53c-1-64 63-63 125-63 3-35-9-54-41-54-24 1-41 7-42 31l-33-3c5-37 33-52 76-52 45 0 72 20 72 64v82c-1 20 7 32 28 27v20c-31 9-61-2-59-35zM48-53c0 20 12 33 32 33 41-3 63-29 60-74-43 2-92-5-92 41" id="S"/><path fill="#3a414a" d="M115-194c53 0 69 39 70 98 0 66-23 100-70 100C84 3 66-7 56-30L54 0H23l1-261h32v101c10-23 28-34 59-34zm-8 174c40 0 45-34 45-75 0-40-5-75-45-74-42 0-51 32-51 76 0 43 10 73 51 73" id="T"/><g id="g"><use transform="matrix(0.06172839506172839,0,0,0.06172839506172839,0,0)" xlink:href="#Q"/><use transform="matrix(0.06172839506172839,0,0,0.06172839506172839,18.456790123456788,0)" xlink:href="#R"/><use transform="matrix(0.06172839506172839,0,0,0.06172839506172839,23.33333333333333,0)" xlink:href="#B"/><use transform="matrix(0.06172839506172839,0,0,0.06172839506172839,29.506172839506167,0)" xlink:href="#S"/><use transform="matrix(0.06172839506172839,0,0,0.06172839506172839,41.85185185185185,0)" xlink:href="#r"/><use transform="matrix(0.06172839506172839,0,0,0.06172839506172839,49.197530864197525,0)" xlink:href="#T"/><use transform="matrix(0.06172839506172839,0,0,0.06172839506172839,61.5432098765432,0)" xlink:href="#w"/><use transform="matrix(0.06172839506172839,0,0,0.06172839506172839,73.88888888888889,0)" xlink:href="#R"/><use transform="matrix(0.06172839506172839,0,0,0.06172839506172839,78.76543209876543,0)" xlink:href="#B"/><use transform="matrix(0.06172839506172839,0,0,0.06172839506172839,84.93827160493827,0)" xlink:href="#w"/><use transform="matrix(0.06172839506172839,0,0,0.06172839506172839,97.28395061728395,0)" xlink:href="#r"/></g><path d="M210-169c-67 3-38 105-44 169h-31v-121c0-29-5-50-35-48C34-165 62-65 56 0H25l-1-190h30c1 10-1 24 2 32 10-44 99-50 107 0 11-21 27-35 58-36 85-2 47 119 55 194h-31v-121c0-29-5-49-35-48" id="U"/><path d="M24 0v-261h32V0H24" id="V"/><g id="h"><use transform="matrix(0.05,0,0,0.05,0,0)" xlink:href="#C"/><use transform="matrix(0.05,0,0,0.05,12,0)" xlink:href="#M"/><use transform="matrix(0.05,0,0,0.05,22,0)" xlink:href="#U"/><use transform="matrix(0.05,0,0,0.05,36.95,0)" xlink:href="#I"/><use transform="matrix(0.05,0,0,0.05,46.95,0)" xlink:href="#V"/><use transform="matrix(0.05,0,0,0.05,50.900000000000006,0)" xlink:href="#J"/><use transform="matrix(0.05,0,0,0.05,60.900000000000006,0)" xlink:href="#I"/><use transform="matrix(0.05,0,0,0.05,70.9,0)" xlink:href="#M"/></g><path d="M9 0v-24l116-142H16v-24h144v24L44-24h123V0H9" id="W"/><g id="i"><use transform="matrix(0.05,0,0,0.05,0,0)" xlink:href="#W"/><use transform="matrix(0.05,0,0,0.05,9,0)" xlink:href="#O"/></g><path d="M24-231v-30h32v30H24zM24 0v-190h32V0H24" id="X"/><g id="j"><use transform="matrix(0.05,0,0,0.05,0,0)" xlink:href="#I"/><use transform="matrix(0.05,0,0,0.05,10,0)" xlink:href="#X"/><use transform="matrix(0.05,0,0,0.05,13.949999999999998,0)" xlink:href="#M"/><use transform="matrix(0.05,0,0,0.05,23.95,0)" xlink:href="#I"/><use transform="matrix(0.05,0,0,0.05,33.95,0)" xlink:href="#U"/></g><g id="k"><use transform="matrix(0.05,0,0,0.05,0,0)" xlink:href="#N"/><use transform="matrix(0.05,0,0,0.05,12,0)" xlink:href="#O"/><use transform="matrix(0.05,0,0,0.05,22,0)" xlink:href="#F"/><use transform="matrix(0.05,0,0,0.05,27.950000000000003,0)" xlink:href="#P"/></g><path d="M160-131c35 5 61 23 61 61C221 17 115-2 30 0v-248c76 3 177-17 177 60 0 33-19 50-47 57zm-97-11c50-1 110 9 110-42 0-47-63-36-110-37v79zm0 115c55-2 124 14 124-45 0-56-70-42-124-44v89" id="Y"/><path d="M96-169c-40 0-48 33-48 73s9 75 48 75c24 0 41-14 43-38l32 2c-6 37-31 61-74 61-59 0-76-41-82-99-10-93 101-131 147-64 4 7 5 14 7 22l-32 3c-4-21-16-35-41-35" id="Z"/><path d="M106-169C34-169 62-67 57 0H25v-261h32l-1 103c12-21 28-36 61-36 89 0 53 116 60 194h-32v-121c2-32-8-49-39-48" id="aa"/><path d="M59-47c-2 24 18 29 38 22v24C64 9 27 4 27-40v-127H5v-23h24l9-43h21v43h35v23H59v120" id="ab"/><g id="l"><use transform="matrix(0.05,0,0,0.05,0,0)" xlink:href="#Y"/><use transform="matrix(0.05,0,0,0.05,12,0)" xlink:href="#I"/><use transform="matrix(0.05,0,0,0.05,22,0)" xlink:href="#M"/><use transform="matrix(0.05,0,0,0.05,32,0)" xlink:href="#G"/><use transform="matrix(0.05,0,0,0.05,42,0)" xlink:href="#Z"/><use transform="matrix(0.05,0,0,0.05,51,0)" xlink:href="#aa"/><use transform="matrix(0.05,0,0,0.05,61,0)" xlink:href="#F"/><use transform="matrix(0.05,0,0,0.05,66.95,0)" xlink:href="#X"/><use transform="matrix(0.05,0,0,0.05,70.9,0)" xlink:href="#Z"/><use transform="matrix(0.05,0,0,0.05,79.9,0)" xlink:href="#aa"/><use transform="matrix(0.05,0,0,0.05,89.9,0)" xlink:href="#ab"/><use transform="matrix(0.05,0,0,0.05,94.9,0)" xlink:href="#X"/><use transform="matrix(0.05,0,0,0.05,98.85000000000001,0)" xlink:href="#H"/><use transform="matrix(0.05,0,0,0.05,108.85000000000001,0)" xlink:href="#O"/><use transform="matrix(0.05,0,0,0.05,118.85000000000001,0)" xlink:href="#M"/><use transform="matrix(0.05,0,0,0.05,128.85000000000002,0)" xlink:href="#H"/></g><path d="M143 0L79-87 56-68V0H24v-261h32v163l83-92h37l-77 82L181 0h-38" id="ac"/><g id="m"><use transform="matrix(0.05,0,0,0.05,0,0)" xlink:href="#K"/><use transform="matrix(0.05,0,0,0.05,9,0)" xlink:href="#I"/><use transform="matrix(0.05,0,0,0.05,19,0)" xlink:href="#F"/><use transform="matrix(0.05,0,0,0.05,24.95,0)" xlink:href="#P"/><use transform="matrix(0.05,0,0,0.05,33.95,0)" xlink:href="#Z"/><use transform="matrix(0.05,0,0,0.05,42.95,0)" xlink:href="#aa"/><use transform="matrix(0.05,0,0,0.05,52.95,0)" xlink:href="#X"/><use transform="matrix(0.05,0,0,0.05,56.900000000000006,0)" xlink:href="#Z"/><use transform="matrix(0.05,0,0,0.05,65.9,0)" xlink:href="#ac"/><use transform="matrix(0.05,0,0,0.05,74.9,0)" xlink:href="#I"/><use transform="matrix(0.05,0,0,0.05,84.9,0)" xlink:href="#M"/></g><g id="n"><use transform="matrix(0.05,0,0,0.05,0,0)" xlink:href="#N"/><use transform="matrix(0.05,0,0,0.05,12,0)" xlink:href="#O"/><use transform="matrix(0.05,0,0,0.05,22,0)" xlink:href="#F"/><use transform="matrix(0.05,0,0,0.05,27.950000000000003,0)" xlink:href="#P"/></g><g id="o"><use transform="matrix(0.05,0,0,0.05,0,0)" xlink:href="#G"/><use transform="matrix(0.05,0,0,0.05,10,0)" xlink:href="#M"/><use transform="matrix(0.05,0,0,0.05,20,0)" xlink:href="#V"/><use transform="matrix(0.05,0,0,0.05,23.95,0)" xlink:href="#I"/><use transform="matrix(0.05,0,0,0.05,33.95,0)" xlink:href="#H"/><use transform="matrix(0.05,0,0,0.05,43.95,0)" xlink:href="#I"/><use transform="matrix(0.05,0,0,0.05,53.95,0)" xlink:href="#M"/></g></defs></g></svg>