<svg xmlns="http://www.w3.org/2000/svg" xmlns:xlink="http://www.w3.org/1999/xlink" xmlns:lucid="lucid" width="752" height="401"><g transform="translate(-158.99999985967725 -318.99999995990777)" lucid:page-tab-id="0_0"><path d="M0 0h1000v1000H0z" fill="#fff"/><path d="M215.5 361.5c0 .28-.22.5-.5.5-.27 0-.5-.22-.5-.5s.23-.5.5-.5c.28 0 .5.22.5.5zm0 3.98c0 .27-.2.5-.5.5-.27 0-.5-.23-.5-.5 0-.28.23-.5.5-.5.3 0 .5.22.5.5zm0 3.98c0 .27-.2.5-.5.5-.26 0-.5-.23-.5-.5 0-.28.24-.5.5-.5.3 0 .5.22.5.5zm0 3.97c0 .28-.2.5-.5.5-.26 0-.5-.22-.5-.5 0-.27.24-.5.5-.5.3 0 .5.23.5.5zm0 3.98c0 .3-.2.5-.5.5-.26 0-.5-.2-.5-.5 0-.26.24-.5.5-.5.3 0 .5.24.5.5zm.02 4c0 .27-.23.5-.5.5-.28 0-.5-.23-.5-.5 0-.3.22-.5.5-.5.27 0 .5.2.5.5zm0 3.97c0 .27-.23.5-.5.5-.28 0-.5-.23-.5-.5 0-.28.22-.5.5-.5.27 0 .5.22.5.5zm0 3.97c0 .28-.23.5-.5.5-.28 0-.5-.22-.5-.5 0-.27.22-.5.5-.5.27 0 .5.23.5.5zm0 3.98c0 .28-.22.5-.5.5s-.5-.22-.5-.5c0-.27.22-.5.5-.5s.5.23.5.5zm0 3.98c0 .28-.22.5-.5.5-.27 0-.5-.22-.5-.5s.23-.5.5-.5c.28 0 .5.22.5.5zm0 3.98c0 .27-.22.5-.5.5-.27 0-.5-.23-.5-.5 0-.28.23-.5.5-.5.28 0 .5.22.5.5zm0 3.98c0 .27-.22.5-.5.5-.27 0-.5-.23-.5-.5 0-.28.23-.5.5-.5.28 0 .5.22.5.5zm0 3.97c0 .28-.22.5-.5.5-.27 0-.5-.22-.5-.5 0-.27.23-.5.5-.5.28 0 .5.23.5.5zm0 3.98c0 .3-.22.5-.5.5-.27 0-.5-.2-.5-.5 0-.26.23-.5.5-.5.28 0 .5.24.5.5zm0 4c0 .26-.2.5-.5.5-.27 0-.5-.24-.5-.5 0-.3.23-.5.5-.5.3 0 .5.2.5.5zm0 3.97c0 .27-.2.5-.5.5-.27 0-.5-.23-.5-.5 0-.28.23-.5.5-.5.3 0 .5.22.5.5zm0 3.97c0 .28-.2.5-.5.5-.26 0-.5-.22-.5-.5 0-.27.24-.5.5-.5.3 0 .5.23.5.5zm0 3.98c0 .28-.2.5-.5.5-.26 0-.5-.22-.5-.5 0-.27.24-.5.5-.5.3 0 .5.23.5.5zm.02 3.98c0 .28-.23.5-.5.5-.28 0-.5-.22-.5-.5s.22-.5.5-.5c.27 0 .5.22.5.5zm0 3.98c0 .27-.23.5-.5.5-.28 0-.5-.23-.5-.5 0-.28.22-.5.5-.5.27 0 .5.22.5.5zm0 3.98c0 .27-.22.5-.5.5s-.5-.23-.5-.5c0-.28.22-.5.5-.5s.5.22.5.5zm0 3.97c0 .28-.22.5-.5.5s-.5-.22-.5-.5c0-.27.22-.5.5-.5s.5.23.5.5zm0 3.98c0 .3-.22.5-.5.5-.27 0-.5-.2-.5-.5 0-.26.23-.5.5-.5.28 0 .5.24.5.5zm0 4c0 .26-.22.5-.5.5-.27 0-.5-.24-.5-.5 0-.3.23-.5.5-.5.28 0 .5.2.5.5zm0 3.97c0 .27-.22.5-.5.5-.27 0-.5-.23-.5-.5 0-.28.23-.5.5-.5.28 0 .5.22.5.5zm0 3.97c0 .28-.22.5-.5.5-.27 0-.5-.22-.5-.5 0-.27.23-.5.5-.5.28 0 .5.23.5.5zm0 3.98c0 .28-.22.5-.5.5-.27 0-.5-.22-.5-.5 0-.27.23-.5.5-.5.28 0 .5.23.5.5zm0 3.98c0 .28-.2.5-.5.5-.27 0-.5-.22-.5-.5s.23-.5.5-.5c.3 0 .5.22.5.5zm0 3.98c0 .27-.2.5-.5.5-.26 0-.5-.23-.5-.5 0-.28.24-.5.5-.5.3 0 .5.22.5.5zm0 3.98c0 .27-.2.5-.5.5-.26 0-.5-.23-.5-.5 0-.28.24-.5.5-.5.3 0 .5.22.5.5zm0 3.97c0 .28-.2.5-.5.5-.26 0-.5-.22-.5-.5 0-.27.24-.5.5-.5.3 0 .5.23.5.5zm.02 3.98c0 .3-.23.5-.5.5-.28 0-.5-.2-.5-.5 0-.26.22-.5.5-.5.27 0 .5.24.5.5zm0 4c0 .26-.23.5-.5.5-.28 0-.5-.24-.5-.5 0-.3.22-.5.5-.5.27 0 .5.2.5.5zm0 3.97c0 .27-.22.5-.5.5s-.5-.23-.5-.5c0-.28.22-.5.5-.5s.5.22.5.5zm0 3.97c0 .28-.22.5-.5.5s-.5-.22-.5-.5c0-.27.22-.5.5-.5s.5.23.5.5zm0 3.98c0 .28-.22.5-.5.5-.27 0-.5-.22-.5-.5 0-.27.23-.5.5-.5.28 0 .5.23.5.5zm0 3.98c0 .28-.22.5-.5.5-.27 0-.5-.22-.5-.5s.23-.5.5-.5c.28 0 .5.22.5.5zm0 3.98c0 .27-.22.5-.5.5-.27 0-.5-.23-.5-.5 0-.28.23-.5.5-.5.28 0 .5.22.5.5zm0 3.98c0 .27-.22.5-.5.5-.27 0-.5-.23-.5-.5 0-.28.23-.5.5-.5.28 0 .5.22.5.5zm0 3.97c0 .28-.22.5-.5.5-.27 0-.5-.22-.5-.5 0-.27.23-.5.5-.5.28 0 .5.23.5.5zm0 3.98c0 .3-.2.5-.5.5-.27 0-.5-.2-.5-.5 0-.26.23-.5.5-.5.3 0 .5.24.5.5zm0 4c0 .26-.2.5-.5.5-.27 0-.5-.24-.5-.5 0-.3.23-.5.5-.5.3 0 .5.2.5.5zm0 3.97c0 .27-.2.5-.5.5-.26 0-.5-.23-.5-.5 0-.28.24-.5.5-.5.3 0 .5.22.5.5zm0 3.97c0 .28-.2.5-.5.5-.26 0-.5-.22-.5-.5 0-.27.24-.5.5-.5.3 0 .5.23.5.5zm.02 3.98c0 .28-.23.5-.5.5-.28 0-.5-.22-.5-.5 0-.27.22-.5.5-.5.27 0 .5.23.5.5zm0 3.98c0 .28-.23.5-.5.5-.28 0-.5-.22-.5-.5s.22-.5.5-.5c.27 0 .5.22.5.5zm0 3.98c0 .27-.23.5-.5.5-.28 0-.5-.23-.5-.5 0-.28.22-.5.5-.5.27 0 .5.22.5.5zm0 3.98c0 .27-.22.5-.5.5s-.5-.23-.5-.5c0-.28.22-.5.5-.5s.5.22.5.5zm0 3.97c0 .28-.22.5-.5.5s-.5-.22-.5-.5c0-.27.22-.5.5-.5s.5.23.5.5zm0 3.98c0 .3-.22.5-.5.5-.27 0-.5-.2-.5-.5 0-.26.23-.5.5-.5.28 0 .5.24.5.5zm0 4c0 .26-.22.5-.5.5-.27 0-.5-.24-.5-.5 0-.3.23-.5.5-.5.28 0 .5.2.5.5zm0 3.97c0 .27-.22.5-.5.5-.27 0-.5-.23-.5-.5 0-.28.23-.5.5-.5.28 0 .5.22.5.5zm0 3.97c0 .28-.22.5-.5.5-.27 0-.5-.22-.5-.5 0-.27.23-.5.5-.5.28 0 .5.23.5.5zm0 3.98c0 .28-.22.5-.5.5-.27 0-.5-.22-.5-.5 0-.27.23-.5.5-.5.28 0 .5.23.5.5zm0 3.98c0 .28-.2.5-.5.5-.27 0-.5-.22-.5-.5s.23-.5.5-.5c.3 0 .5.22.5.5zm0 3.98c0 .27-.2.5-.5.5-.26 0-.5-.23-.5-.5 0-.28.24-.5.5-.5.3 0 .5.22.5.5zm0 3.98c0 .27-.2.5-.5.5-.26 0-.5-.23-.5-.5 0-.28.24-.5.5-.5.3 0 .5.22.5.5zm0 3.97c0 .28-.2.5-.5.5-.26 0-.5-.22-.5-.5 0-.27.24-.5.5-.5.3 0 .5.23.5.5zm.02 3.98c0 .3-.23.5-.5.5-.28 0-.5-.2-.5-.5 0-.27.22-.5.5-.5.27 0 .5.23.5.5zm0 4c0 .26-.22.5-.5.5s-.5-.24-.5-.5c0-.3.22-.5.5-.5s.5.2.5.5zm0 3.97c0 .27-.22.5-.5.5s-.5-.23-.5-.5c0-.28.22-.5.5-.5s.5.22.5.5zm0 3.97c0 .28-.22.5-.5.5s-.5-.22-.5-.5c0-.27.22-.5.5-.5s.5.23.5.5zm0 3.98c0 .28-.22.5-.5.5-.27 0-.5-.22-.5-.5 0-.27.23-.5.5-.5.28 0 .5.23.5.5zm0 3.98c0 .28-.22.5-.5.5-.27 0-.5-.22-.5-.5s.23-.5.5-.5c.28 0 .5.22.5.5zm0 3.98c0 .27-.22.5-.5.5-.27 0-.5-.23-.5-.5 0-.28.23-.5.5-.5.28 0 .5.22.5.5zm0 3.98c0 .27-.22.5-.5.5-.27 0-.5-.23-.5-.5 0-.28.23-.5.5-.5.28 0 .5.22.5.5zm0 3.97c0 .28-.22.5-.5.5-.27 0-.5-.22-.5-.5 0-.27.23-.5.5-.5.28 0 .5.23.5.5zm0 3.98c0 .3-.2.5-.5.5-.26 0-.5-.2-.5-.5 0-.26.24-.5.5-.5.3 0 .5.24.5.5zm0 4c0 .26-.2.5-.5.5-.26 0-.5-.24-.5-.5 0-.3.24-.5.5-.5.3 0 .5.2.5.5zm0 3.97c0 .27-.2.5-.5.5-.26 0-.5-.23-.5-.5 0-.28.24-.5.5-.5.3 0 .5.22.5.5zm.02 3.97c0 .28-.23.5-.5.5-.28 0-.5-.22-.5-.5 0-.27.22-.5.5-.5.27 0 .5.23.5.5zm0 3.98c0 .28-.23.5-.5.5-.28 0-.5-.22-.5-.5 0-.27.22-.5.5-.5.27 0 .5.23.5.5zm0 3.98c0 .28-.23.5-.5.5-.28 0-.5-.22-.5-.5s.22-.5.5-.5c.27 0 .5.22.5.5zm0 3.98c0 .27-.22.5-.5.5s-.5-.23-.5-.5c0-.28.22-.5.5-.5s.5.22.5.5zm0 3.98c0 .27-.22.5-.5.5s-.5-.23-.5-.5c0-.28.22-.5.5-.5s.5.22.5.5zm0 3.97c0 .28-.22.5-.5.5-.27 0-.5-.22-.5-.5 0-.27.23-.5.5-.5.28 0 .5.23.5.5zm0 3.98c0 .3-.22.5-.5.5-.27 0-.5-.2-.5-.5 0-.26.23-.5.5-.5.28 0 .5.24.5.5zm0 4c0 .27-.22.5-.5.5-.27 0-.5-.23-.5-.5 0-.3.23-.5.5-.5.28 0 .5.2.5.5zm0 3.97c0 .27-.22.5-.5.5-.27 0-.5-.23-.5-.5 0-.28.23-.5.5-.5.28 0 .5.22.5.5zm0 3.97c0 .28-.22.5-.5.5-.27 0-.5-.22-.5-.5 0-.27.23-.5.5-.5.28 0 .5.23.5.5zm0 3.98c0 .28-.2.5-.5.5-.27 0-.5-.22-.5-.5 0-.27.23-.5.5-.5.3 0 .5.23.5.5zm0 3.98c0 .28-.2.5-.5.5-.26 0-.5-.22-.5-.5s.24-.5.5-.5c.3 0 .5.22.5.5zm0 3.98c0 .27-.2.5-.5.5-.26 0-.5-.23-.5-.5 0-.28.24-.5.5-.5.3 0 .5.22.5.5zm0 3.98c0 .27-.2.5-.5.5-.26 0-.5-.23-.5-.5 0-.28.24-.5.5-.5.3 0 .5.22.5.5zm.02 3.97c0 .28-.23.5-.5.5-.28 0-.5-.22-.5-.5 0-.27.22-.5.5-.5.27 0 .5.23.5.5zm0 3.98c0 .3-.23.5-.5.5-.28 0-.5-.2-.5-.5 0-.26.22-.5.5-.5.27 0 .5.24.5.5zm0 4c0 .26-.22.5-.5.5s-.5-.24-.5-.5c0-.3.22-.5.5-.5s.5.2.5.5zm0 3.97c0 .27-.22.5-.5.5-.27 0-.5-.23-.5-.5 0-.28.23-.5.5-.5.28 0 .5.22.5.5zm0 3.97c0 .28-.22.5-.5.5-.27 0-.5-.22-.5-.5 0-.27.23-.5.5-.5.28 0 .5.23.5.5zm0 3.98c0 .28-.22.5-.5.5-.27 0-.5-.22-.5-.5 0-.27.23-.5.5-.5.28 0 .5.23.5.5zm0 3.98c0 .28-.22.5-.5.5-.27 0-.5-.22-.5-.5s.23-.5.5-.5c.28 0 .5.22.5.5z" fill="#3a414a"/><path d="M215.48 361.5h-.95v-.5h.95z" stroke="#3a414a" stroke-width=".05" fill="#3a414a"/><path d="M215.15 719.5v.5" stroke="#3a414a" fill="none"/><path d="M376.93 361.5c0 .28-.22.5-.5.5s-.5-.22-.5-.5.22-.5.5-.5.5.22.5.5zm0 4c0 .3-.22.5-.5.5s-.5-.2-.5-.5c0-.26.22-.5.5-.5s.5.24.5.5zm0 4.02c0 .28-.22.5-.5.5s-.5-.22-.5-.5c0-.27.22-.5.5-.5s.5.23.5.5zm0 4c0 .3-.22.5-.5.5s-.5-.2-.5-.5c0-.26.22-.5.5-.5s.5.24.5.5zm0 4.03c0 .27-.22.5-.5.5s-.5-.23-.5-.5c0-.28.22-.5.5-.5s.5.22.5.5zm0 4c0 .28-.22.5-.5.5s-.5-.22-.5-.5c0-.27.22-.5.5-.5s.5.23.5.5zm0 4.02c0 .27-.22.5-.5.5s-.5-.23-.5-.5c0-.28.22-.5.5-.5s.5.22.5.5zm0 4c0 .3-.22.5-.5.5s-.5-.2-.5-.5c0-.27.22-.5.5-.5s.5.23.5.5zm0 4.02c0 .27-.22.5-.5.5s-.5-.23-.5-.5c0-.3.22-.5.5-.5s.5.2.5.5zm0 4c0 .28-.22.5-.5.5s-.5-.22-.5-.5.22-.5.5-.5.5.22.5.5zm0 4c0 .3-.22.5-.5.5s-.5-.2-.5-.5c0-.26.22-.5.5-.5s.5.24.5.5zm0 4.02c0 .28-.22.5-.5.5s-.5-.22-.5-.5c0-.27.22-.5.5-.5s.5.23.5.5zm0 4c0 .3-.22.5-.5.5s-.5-.2-.5-.5c0-.26.22-.5.5-.5s.5.24.5.5zm0 4.03c0 .27-.22.5-.5.5s-.5-.23-.5-.5c0-.28.22-.5.5-.5s.5.22.5.5zm0 4c0 .28-.22.5-.5.5s-.5-.22-.5-.5c0-.27.22-.5.5-.5s.5.23.5.5zm0 4.02c0 .27-.22.5-.5.5s-.5-.23-.5-.5c0-.28.22-.5.5-.5s.5.22.5.5zm0 4c0 .3-.22.5-.5.5s-.5-.2-.5-.5c0-.27.22-.5.5-.5s.5.23.5.5zm0 4.02c0 .27-.22.5-.5.5s-.5-.23-.5-.5c0-.28.22-.5.5-.5s.5.22.5.5zm0 4c0 .28-.22.5-.5.5s-.5-.22-.5-.5c0-.27.22-.5.5-.5s.5.23.5.5zm0 4c0 .3-.22.5-.5.5s-.5-.2-.5-.5c0-.26.22-.5.5-.5s.5.24.5.5zm0 4.03c0 .27-.22.5-.5.5s-.5-.23-.5-.5c0-.28.22-.5.5-.5s.5.22.5.5zm0 4c0 .28-.22.5-.5.5s-.5-.22-.5-.5c0-.27.22-.5.5-.5s.5.23.5.5zm0 4.02c0 .27-.22.5-.5.5s-.5-.23-.5-.5c0-.28.22-.5.5-.5s.5.22.5.5zm0 4c0 .3-.22.5-.5.5s-.5-.2-.5-.5c0-.27.22-.5.5-.5s.5.23.5.5zm0 4.02c0 .28-.22.5-.5.5s-.5-.22-.5-.5.22-.5.5-.5.5.22.5.5zm0 4c0 .3-.22.5-.5.5s-.5-.2-.5-.5c0-.26.22-.5.5-.5s.5.24.5.5zm0 4.02c0 .27-.22.5-.5.5s-.5-.23-.5-.5c0-.28.22-.5.5-.5s.5.22.5.5zm0 4c0 .28-.22.5-.5.5s-.5-.22-.5-.5c0-.27.22-.5.5-.5s.5.23.5.5zm0 4c0 .3-.22.5-.5.5s-.5-.2-.5-.5c0-.26.22-.5.5-.5s.5.24.5.5zm0 4.03c0 .27-.22.5-.5.5s-.5-.23-.5-.5c0-.28.22-.5.5-.5s.5.22.5.5zm0 4c0 .28-.22.5-.5.5s-.5-.22-.5-.5c0-.27.22-.5.5-.5s.5.23.5.5zm0 4.02c0 .27-.22.5-.5.5s-.5-.23-.5-.5c0-.28.22-.5.5-.5s.5.22.5.5zm0 4c0 .3-.22.5-.5.5s-.5-.2-.5-.5c0-.27.22-.5.5-.5s.5.23.5.5zm0 4.02c0 .28-.22.5-.5.5s-.5-.22-.5-.5c0-.27.22-.5.5-.5s.5.23.5.5zm0 4c0 .3-.22.5-.5.5s-.5-.2-.5-.5c0-.26.22-.5.5-.5s.5.24.5.5zm0 4.02c0 .27-.22.5-.5.5s-.5-.23-.5-.5c0-.28.22-.5.5-.5s.5.22.5.5zm0 4c0 .28-.22.5-.5.5s-.5-.22-.5-.5c0-.27.22-.5.5-.5s.5.23.5.5zm0 4.02c0 .27-.22.5-.5.5s-.5-.23-.5-.5c0-.28.22-.5.5-.5s.5.22.5.5zm0 4c0 .28-.22.5-.5.5s-.5-.22-.5-.5c0-.27.22-.5.5-.5s.5.23.5.5zm0 4.02c0 .27-.22.5-.5.5s-.5-.23-.5-.5c0-.28.22-.5.5-.5s.5.22.5.5zm0 4c0 .3-.22.5-.5.5s-.5-.2-.5-.5c0-.27.22-.5.5-.5s.5.23.5.5zm0 4.02c0 .28-.22.5-.5.5s-.5-.22-.5-.5.22-.5.5-.5.5.22.5.5zm0 4c0 .3-.22.5-.5.5s-.5-.2-.5-.5c0-.26.22-.5.5-.5s.5.24.5.5zm0 4.02c0 .28-.22.5-.5.5s-.5-.22-.5-.5c0-.27.22-.5.5-.5s.5.23.5.5zm0 4c0 .3-.22.5-.5.5s-.5-.2-.5-.5c0-.26.22-.5.5-.5s.5.24.5.5zm0 4.03c0 .28-.22.5-.5.5s-.5-.22-.5-.5c0-.27.22-.5.5-.5s.5.23.5.5zm0 4.02c0 .27-.22.5-.5.5s-.5-.23-.5-.5c0-.28.22-.5.5-.5s.5.22.5.5zm0 4c0 .28-.22.5-.5.5s-.5-.22-.5-.5c0-.27.22-.5.5-.5s.5.23.5.5zm0 4.02c0 .28-.22.5-.5.5s-.5-.22-.5-.5.22-.5.5-.5.5.22.5.5zm0 4c0 .3-.22.5-.5.5s-.5-.2-.5-.5c0-.27.22-.5.5-.5s.5.23.5.5zm0 4.02c0 .28-.22.5-.5.5s-.5-.22-.5-.5c0-.27.22-.5.5-.5s.5.23.5.5zm0 4c0 .3-.22.5-.5.5s-.5-.2-.5-.5c0-.26.22-.5.5-.5s.5.24.5.5zm0 4.02c0 .28-.22.5-.5.5s-.5-.22-.5-.5c0-.27.22-.5.5-.5s.5.23.5.5zm0 4.02c0 .27-.22.5-.5.5s-.5-.23-.5-.5c0-.28.22-.5.5-.5s.5.22.5.5zm0 4c0 .28-.22.5-.5.5s-.5-.22-.5-.5c0-.27.22-.5.5-.5s.5.23.5.5zm0 4.02c0 .27-.22.5-.5.5s-.5-.23-.5-.5c0-.28.22-.5.5-.5s.5.22.5.5zm0 4c0 .28-.22.5-.5.5s-.5-.22-.5-.5c0-.27.22-.5.5-.5s.5.23.5.5zm0 4.02c0 .28-.22.5-.5.5s-.5-.22-.5-.5.22-.5.5-.5.5.22.5.5zm0 4c0 .3-.22.5-.5.5s-.5-.2-.5-.5c0-.26.22-.5.5-.5s.5.24.5.5zm0 4.02c0 .28-.22.5-.5.5s-.5-.22-.5-.5c0-.27.22-.5.5-.5s.5.23.5.5zm0 4c0 .3-.22.5-.5.5s-.5-.2-.5-.5c0-.26.22-.5.5-.5s.5.24.5.5zm0 4.02c0 .28-.22.5-.5.5s-.5-.22-.5-.5c0-.27.22-.5.5-.5s.5.23.5.5zm0 4.02c0 .27-.22.5-.5.5s-.5-.23-.5-.5c0-.28.22-.5.5-.5s.5.22.5.5zm0 4c0 .28-.22.5-.5.5s-.5-.22-.5-.5c0-.27.22-.5.5-.5s.5.23.5.5zm0 4.02c0 .27-.22.5-.5.5s-.5-.23-.5-.5c0-.28.22-.5.5-.5s.5.22.5.5zm0 4c0 .3-.22.5-.5.5s-.5-.2-.5-.5c0-.27.22-.5.5-.5s.5.23.5.5zm0 4.02c0 .28-.22.5-.5.5s-.5-.22-.5-.5c0-.27.22-.5.5-.5s.5.23.5.5zm0 4c0 .3-.22.5-.5.5s-.5-.2-.5-.5c0-.26.22-.5.5-.5s.5.24.5.5zm0 4.02c0 .28-.22.5-.5.5s-.5-.22-.5-.5c0-.27.22-.5.5-.5s.5.23.5.5zm0 4c0 .3-.22.5-.5.5s-.5-.2-.5-.5c0-.26.22-.5.5-.5s.5.24.5.5zm0 4.03c0 .26-.22.5-.5.5s-.5-.24-.5-.5c0-.3.22-.5.5-.5s.5.2.5.5zm0 4c0 .27-.22.5-.5.5s-.5-.23-.5-.5c0-.28.22-.5.5-.5s.5.22.5.5zm0 4c0 .3-.22.5-.5.5s-.5-.2-.5-.5c0-.27.22-.5.5-.5s.5.23.5.5zm0 4.02c0 .28-.22.5-.5.5s-.5-.22-.5-.5.22-.5.5-.5.5.22.5.5zm0 4c0 .3-.22.5-.5.5s-.5-.2-.5-.5c0-.27.22-.5.5-.5s.5.23.5.5zm0 4.02c0 .28-.22.5-.5.5s-.5-.22-.5-.5c0-.27.22-.5.5-.5s.5.23.5.5zm0 4c0 .3-.22.5-.5.5s-.5-.2-.5-.5c0-.26.22-.5.5-.5s.5.24.5.5zm0 4.02c0 .28-.22.5-.5.5s-.5-.22-.5-.5c0-.27.22-.5.5-.5s.5.23.5.5zm0 4.02c0 .27-.22.5-.5.5s-.5-.23-.5-.5c0-.28.22-.5.5-.5s.5.22.5.5zm0 4c0 .28-.22.5-.5.5s-.5-.22-.5-.5c0-.27.22-.5.5-.5s.5.23.5.5zm0 4.02c0 .27-.22.5-.5.5s-.5-.23-.5-.5c0-.28.22-.5.5-.5s.5.22.5.5zm0 4c0 .3-.22.5-.5.5s-.5-.2-.5-.5c0-.27.22-.5.5-.5s.5.23.5.5zm0 4.02c0 .28-.22.5-.5.5s-.5-.22-.5-.5c0-.27.22-.5.5-.5s.5.23.5.5zm0 4c0 .3-.22.5-.5.5s-.5-.2-.5-.5c0-.26.22-.5.5-.5s.5.24.5.5zm0 4.02c0 .28-.22.5-.5.5s-.5-.22-.5-.5c0-.27.22-.5.5-.5s.5.23.5.5zm0 4c0 .3-.22.5-.5.5s-.5-.2-.5-.5c0-.26.22-.5.5-.5s.5.24.5.5zm0 4.03c0 .27-.22.5-.5.5s-.5-.23-.5-.5c0-.28.22-.5.5-.5s.5.22.5.5zm0 4c0 .28-.22.5-.5.5s-.5-.22-.5-.5c0-.27.22-.5.5-.5s.5.23.5.5zm0 4.02c0 .26-.22.5-.5.5s-.5-.24-.5-.5c0-.3.22-.5.5-.5s.5.2.5.5zm0 4c0 .28-.22.5-.5.5s-.5-.22-.5-.5.22-.5.5-.5.5.22.5.5z" fill="#3a414a"/><path d="M376.9 361.5h-.94v-.5h.95z" stroke="#3a414a" stroke-width=".05" fill="#3a414a"/><path d="M376.43 718.5v.5" stroke="#3a414a" fill="none"/><path d="M536.25 361.5c0 .28-.22.5-.5.5s-.5-.22-.5-.5.22-.5.5-.5.5.22.5.5zm0 3.98c0 .27-.22.5-.5.5s-.5-.23-.5-.5c0-.28.22-.5.5-.5s.5.22.5.5zm0 3.98c0 .27-.22.5-.5.5s-.5-.23-.5-.5c0-.28.22-.5.5-.5s.5.22.5.5zm0 3.97c0 .28-.22.5-.5.5s-.5-.22-.5-.5c0-.27.22-.5.5-.5s.5.23.5.5zm0 3.98c0 .3-.22.5-.5.5s-.5-.2-.5-.5c0-.26.22-.5.5-.5s.5.24.5.5zm0 4c0 .27-.22.5-.5.5s-.5-.23-.5-.5c0-.3.22-.5.5-.5s.5.2.5.5zm0 3.97c0 .27-.22.5-.5.5s-.5-.23-.5-.5c0-.28.22-.5.5-.5s.5.22.5.5zm0 3.97c0 .28-.22.5-.5.5s-.5-.22-.5-.5c0-.27.22-.5.5-.5s.5.23.5.5zm0 3.98c0 .28-.22.5-.5.5s-.5-.22-.5-.5c0-.27.22-.5.5-.5s.5.23.5.5zm0 3.98c0 .28-.22.5-.5.5s-.5-.22-.5-.5.22-.5.5-.5.5.22.5.5zm0 3.98c0 .27-.22.5-.5.5s-.5-.23-.5-.5c0-.28.22-.5.5-.5s.5.22.5.5zm0 3.98c0 .27-.22.5-.5.5s-.5-.23-.5-.5c0-.28.22-.5.5-.5s.5.22.5.5zm0 3.97c0 .28-.22.5-.5.5s-.5-.22-.5-.5c0-.27.22-.5.5-.5s.5.23.5.5zm0 3.98c0 .3-.22.5-.5.5s-.5-.2-.5-.5c0-.26.22-.5.5-.5s.5.24.5.5zm0 4c0 .26-.22.5-.5.5s-.5-.24-.5-.5c0-.3.22-.5.5-.5s.5.2.5.5zm0 3.97c0 .27-.22.5-.5.5s-.5-.23-.5-.5c0-.28.22-.5.5-.5s.5.22.5.5zm0 3.97c0 .28-.22.5-.5.5s-.5-.22-.5-.5c0-.27.22-.5.5-.5s.5.23.5.5zm0 3.98c0 .28-.22.5-.5.5s-.5-.22-.5-.5c0-.27.22-.5.5-.5s.5.23.5.5zm0 3.98c0 .28-.22.5-.5.5s-.5-.22-.5-.5.22-.5.5-.5.5.22.5.5zm0 3.98c0 .27-.22.5-.5.5s-.5-.23-.5-.5c0-.28.22-.5.5-.5s.5.22.5.5zm0 3.98c0 .27-.22.5-.5.5s-.5-.23-.5-.5c0-.28.22-.5.5-.5s.5.22.5.5zm0 3.97c0 .28-.22.5-.5.5s-.5-.22-.5-.5c0-.27.22-.5.5-.5s.5.23.5.5zm0 3.98c0 .3-.22.5-.5.5s-.5-.2-.5-.5c0-.26.22-.5.5-.5s.5.24.5.5zm0 4c0 .26-.22.5-.5.5s-.5-.24-.5-.5c0-.3.22-.5.5-.5s.5.2.5.5zm0 3.97c0 .27-.22.5-.5.5s-.5-.23-.5-.5c0-.28.22-.5.5-.5s.5.22.5.5zm0 3.97c0 .28-.22.5-.5.5s-.5-.22-.5-.5c0-.27.22-.5.5-.5s.5.23.5.5zm0 3.98c0 .28-.22.5-.5.5s-.5-.22-.5-.5c0-.27.22-.5.5-.5s.5.23.5.5zm0 3.98c0 .28-.22.5-.5.5s-.5-.22-.5-.5.22-.5.5-.5.5.22.5.5zm0 3.98c0 .27-.22.5-.5.5s-.5-.23-.5-.5c0-.28.22-.5.5-.5s.5.22.5.5zm0 3.98c0 .27-.22.5-.5.5s-.5-.23-.5-.5c0-.28.22-.5.5-.5s.5.22.5.5zm0 3.97c0 .28-.22.5-.5.5s-.5-.22-.5-.5c0-.27.22-.5.5-.5s.5.23.5.5zm0 3.98c0 .3-.22.5-.5.5s-.5-.2-.5-.5c0-.26.22-.5.5-.5s.5.24.5.5zm0 4c0 .26-.22.5-.5.5s-.5-.24-.5-.5c0-.3.22-.5.5-.5s.5.2.5.5zm0 3.97c0 .27-.22.5-.5.5s-.5-.23-.5-.5c0-.28.22-.5.5-.5s.5.22.5.5zm0 3.97c0 .28-.22.5-.5.5s-.5-.22-.5-.5c0-.27.22-.5.5-.5s.5.23.5.5zm0 3.98c0 .28-.22.5-.5.5s-.5-.22-.5-.5c0-.27.22-.5.5-.5s.5.23.5.5zm0 3.98c0 .28-.22.5-.5.5s-.5-.22-.5-.5.22-.5.5-.5.5.22.5.5zm0 3.98c0 .27-.22.5-.5.5s-.5-.23-.5-.5c0-.28.22-.5.5-.5s.5.22.5.5zm0 3.98c0 .27-.22.5-.5.5s-.5-.23-.5-.5c0-.28.22-.5.5-.5s.5.22.5.5zm0 3.97c0 .28-.22.5-.5.5s-.5-.22-.5-.5c0-.27.22-.5.5-.5s.5.23.5.5zm0 3.98c0 .3-.22.5-.5.5s-.5-.2-.5-.5c0-.26.22-.5.5-.5s.5.24.5.5zm0 4c0 .26-.22.5-.5.5s-.5-.24-.5-.5c0-.3.22-.5.5-.5s.5.2.5.5zm0 3.97c0 .27-.22.5-.5.5s-.5-.23-.5-.5c0-.28.22-.5.5-.5s.5.22.5.5zm0 3.97c0 .28-.22.5-.5.5s-.5-.22-.5-.5c0-.27.22-.5.5-.5s.5.23.5.5zm0 3.98c0 .28-.22.5-.5.5s-.5-.22-.5-.5c0-.27.22-.5.5-.5s.5.23.5.5zm0 3.98c0 .28-.22.5-.5.5s-.5-.22-.5-.5.22-.5.5-.5.5.22.5.5zm0 3.98c0 .27-.22.5-.5.5s-.5-.23-.5-.5c0-.28.22-.5.5-.5s.5.22.5.5zm0 3.98c0 .27-.22.5-.5.5s-.5-.23-.5-.5c0-.28.22-.5.5-.5s.5.22.5.5zm0 3.97c0 .28-.22.5-.5.5s-.5-.22-.5-.5c0-.27.22-.5.5-.5s.5.23.5.5zm0 3.98c0 .3-.22.5-.5.5s-.5-.2-.5-.5c0-.26.22-.5.5-.5s.5.24.5.5zm0 4c0 .26-.22.5-.5.5s-.5-.24-.5-.5c0-.3.22-.5.5-.5s.5.2.5.5zm0 3.97c0 .27-.22.5-.5.5s-.5-.23-.5-.5c0-.28.22-.5.5-.5s.5.22.5.5zm0 3.97c0 .28-.22.5-.5.5s-.5-.22-.5-.5c0-.27.22-.5.5-.5s.5.23.5.5zm0 3.98c0 .28-.22.5-.5.5s-.5-.22-.5-.5c0-.27.22-.5.5-.5s.5.23.5.5zm0 3.98c0 .28-.22.5-.5.5s-.5-.22-.5-.5.22-.5.5-.5.5.22.5.5zm0 3.98c0 .27-.22.5-.5.5s-.5-.23-.5-.5c0-.28.22-.5.5-.5s.5.22.5.5zm0 3.98c0 .27-.22.5-.5.5s-.5-.23-.5-.5c0-.28.22-.5.5-.5s.5.22.5.5zm0 3.97c0 .28-.22.5-.5.5s-.5-.22-.5-.5c0-.27.22-.5.5-.5s.5.23.5.5zm0 3.98c0 .3-.22.5-.5.5s-.5-.2-.5-.5c0-.27.22-.5.5-.5s.5.23.5.5zm0 4c0 .26-.22.5-.5.5s-.5-.24-.5-.5c0-.3.22-.5.5-.5s.5.2.5.5zm0 3.97c0 .27-.22.5-.5.5s-.5-.23-.5-.5c0-.28.22-.5.5-.5s.5.22.5.5zm0 3.97c0 .28-.22.5-.5.5s-.5-.22-.5-.5c0-.27.22-.5.5-.5s.5.23.5.5zm0 3.98c0 .28-.22.5-.5.5s-.5-.22-.5-.5c0-.27.22-.5.5-.5s.5.23.5.5zm0 3.98c0 .28-.22.5-.5.5s-.5-.22-.5-.5.22-.5.5-.5.5.22.5.5zm0 3.98c0 .27-.22.5-.5.5s-.5-.23-.5-.5c0-.28.22-.5.5-.5s.5.22.5.5zm0 3.98c0 .27-.22.5-.5.5s-.5-.23-.5-.5c0-.28.22-.5.5-.5s.5.22.5.5zm0 3.97c0 .28-.22.5-.5.5s-.5-.22-.5-.5c0-.27.22-.5.5-.5s.5.23.5.5zm0 3.98c0 .3-.22.5-.5.5s-.5-.2-.5-.5c0-.26.22-.5.5-.5s.5.24.5.5zm0 4c0 .26-.22.5-.5.5s-.5-.24-.5-.5c0-.3.22-.5.5-.5s.5.2.5.5zm0 3.97c0 .27-.22.5-.5.5s-.5-.23-.5-.5c0-.28.22-.5.5-.5s.5.22.5.5zm0 3.97c0 .28-.22.5-.5.5s-.5-.22-.5-.5c0-.27.22-.5.5-.5s.5.23.5.5zm0 3.98c0 .28-.22.5-.5.5s-.5-.22-.5-.5c0-.27.22-.5.5-.5s.5.23.5.5zm0 3.98c0 .28-.22.5-.5.5s-.5-.22-.5-.5.22-.5.5-.5.5.22.5.5zm0 3.98c0 .27-.22.5-.5.5s-.5-.23-.5-.5c0-.28.22-.5.5-.5s.5.22.5.5zm0 3.98c0 .27-.22.5-.5.5s-.5-.23-.5-.5c0-.28.22-.5.5-.5s.5.22.5.5zm0 3.97c0 .28-.22.5-.5.5s-.5-.22-.5-.5c0-.27.22-.5.5-.5s.5.23.5.5zm0 3.98c0 .3-.22.5-.5.5s-.5-.2-.5-.5c0-.26.22-.5.5-.5s.5.24.5.5zm0 4c0 .27-.22.5-.5.5s-.5-.23-.5-.5c0-.3.22-.5.5-.5s.5.2.5.5zm0 3.97c0 .27-.22.5-.5.5s-.5-.23-.5-.5c0-.28.22-.5.5-.5s.5.22.5.5zm0 3.97c0 .28-.22.5-.5.5s-.5-.22-.5-.5c0-.27.22-.5.5-.5s.5.23.5.5zm0 3.98c0 .28-.22.5-.5.5s-.5-.22-.5-.5c0-.27.22-.5.5-.5s.5.23.5.5zm0 3.98c0 .28-.22.5-.5.5s-.5-.22-.5-.5.22-.5.5-.5.5.22.5.5zm0 3.98c0 .27-.22.5-.5.5s-.5-.23-.5-.5c0-.28.22-.5.5-.5s.5.22.5.5zm0 3.98c0 .27-.22.5-.5.5s-.5-.23-.5-.5c0-.28.22-.5.5-.5s.5.22.5.5zm0 3.97c0 .28-.22.5-.5.5s-.5-.22-.5-.5c0-.27.22-.5.5-.5s.5.23.5.5zm0 3.98c0 .3-.22.5-.5.5s-.5-.2-.5-.5c0-.26.22-.5.5-.5s.5.24.5.5zm0 4c0 .26-.22.5-.5.5s-.5-.24-.5-.5c0-.3.22-.5.5-.5s.5.2.5.5zm0 3.97c0 .27-.22.5-.5.5s-.5-.23-.5-.5c0-.28.22-.5.5-.5s.5.22.5.5zm0 3.97c0 .28-.22.5-.5.5s-.5-.22-.5-.5c0-.27.22-.5.5-.5s.5.23.5.5zm0 3.98c0 .28-.22.5-.5.5s-.5-.22-.5-.5c0-.27.22-.5.5-.5s.5.23.5.5zm0 3.98c0 .28-.22.5-.5.5s-.5-.22-.5-.5.22-.5.5-.5.5.22.5.5z" fill="#3a414a"/><path d="M536.23 361.5h-.96v-.5h.96z" stroke="#3a414a" stroke-width=".05" fill="#3a414a"/><path d="M535.75 719.5v.5" stroke="#3a414a" fill="none"/><path d="M697 581.5c0 .28-.2.5-.5.5-.26 0-.5-.22-.5-.5s.24-.5.5-.5c.3 0 .5.22.5.5zm.1 3.94c0 .28-.2.5-.5.5-.26 0-.5-.22-.5-.5 0-.27.24-.5.5-.5.3 0 .5.23.5.5zm.1 3.95c0 .26-.2.5-.5.5-.27 0-.5-.24-.5-.5 0-.3.23-.5.5-.5.3 0 .5.2.5.5zm.1 3.93c0 .27-.2.5-.5.5-.27 0-.5-.23-.5-.5 0-.28.23-.5.5-.5.3 0 .5.22.5.5zm.1 3.94c0 .28-.2.5-.5.5-.27 0-.5-.22-.5-.5 0-.27.23-.5.5-.5.3 0 .5.23.5.5zm.1 3.94c0 .3-.22.5-.5.5-.27 0-.5-.2-.5-.5 0-.26.23-.5.5-.5.28 0 .5.24.5.5zm.1 3.96c0 .27-.22.5-.5.5-.27 0-.5-.23-.5-.5 0-.28.23-.5.5-.5.28 0 .5.22.5.5zm.1 3.94c0 .28-.22.5-.5.5-.27 0-.5-.22-.5-.5s.23-.5.5-.5c.28 0 .5.22.5.5zm.1 3.94c0 .28-.22.5-.5.5-.27 0-.5-.22-.5-.5 0-.27.23-.5.5-.5.28 0 .5.23.5.5zm.1 3.95c0 .26-.22.5-.5.5-.27 0-.5-.24-.5-.5 0-.3.23-.5.5-.5.28 0 .5.2.5.5zm.1 3.93c0 .28-.22.5-.5.5-.27 0-.5-.22-.5-.5s.23-.5.5-.5c.28 0 .5.22.5.5zm.1 3.94c0 .28-.22.5-.5.5-.27 0-.5-.22-.5-.5 0-.27.23-.5.5-.5.28 0 .5.23.5.5zm.1 3.94c0 .3-.22.5-.5.5-.27 0-.5-.2-.5-.5 0-.26.23-.5.5-.5.28 0 .5.24.5.5zm.1 3.96c0 .27-.22.5-.5.5-.27 0-.5-.23-.5-.5 0-.28.23-.5.5-.5.28 0 .5.22.5.5zm.1 3.94c0 .28-.22.5-.5.5-.27 0-.5-.22-.5-.5s.23-.5.5-.5c.28 0 .5.22.5.5zm.1 3.94c0 .28-.22.5-.5.5-.27 0-.5-.22-.5-.5 0-.27.23-.5.5-.5.28 0 .5.23.5.5zm.1 3.95c0 .26-.22.5-.5.5-.27 0-.5-.24-.5-.5 0-.3.23-.5.5-.5.28 0 .5.2.5.5zm.1 3.93c0 .27-.22.5-.5.5s-.5-.23-.5-.5c0-.28.22-.5.5-.5s.5.22.5.5zm.1 3.94c0 .28-.22.5-.5.5s-.5-.22-.5-.5c0-.27.22-.5.5-.5s.5.23.5.5zm.1 3.94c0 .3-.23.5-.5.5-.28 0-.5-.2-.5-.5 0-.26.22-.5.5-.5.27 0 .5.24.5.5zm.1 3.96c0 .27-.23.5-.5.5-.28 0-.5-.23-.5-.5 0-.28.22-.5.5-.5.27 0 .5.22.5.5zm.1 3.94c0 .28-.23.5-.5.5-.28 0-.5-.22-.5-.5s.22-.5.5-.5c.27 0 .5.22.5.5zm.1 3.94c0 .28-.23.5-.5.5-.28 0-.5-.22-.5-.5 0-.27.22-.5.5-.5.27 0 .5.23.5.5zm.1 3.95c0 .26-.23.5-.5.5-.28 0-.5-.24-.5-.5 0-.3.22-.5.5-.5.27 0 .5.2.5.5zm.1 3.93c0 .27-.23.5-.5.5-.28 0-.5-.23-.5-.5 0-.28.22-.5.5-.5.27 0 .5.22.5.5zm.1 3.94c0 .28-.23.5-.5.5-.28 0-.5-.22-.5-.5s.22-.5.5-.5c.27 0 .5.22.5.5zm.1 3.94c0 .3-.23.5-.5.5-.28 0-.5-.2-.5-.5 0-.26.22-.5.5-.5.27 0 .5.24.5.5zm.1 3.96c0 .27-.23.5-.5.5-.28 0-.5-.23-.5-.5 0-.28.22-.5.5-.5.27 0 .5.22.5.5zm.1 3.94c0 .28-.23.5-.5.5-.28 0-.5-.22-.5-.5s.22-.5.5-.5c.27 0 .5.22.5.5zm.1 3.94c0 .28-.23.5-.5.5-.28 0-.5-.22-.5-.5 0-.27.22-.5.5-.5.27 0 .5.23.5.5zm.1 3.95c0 .26-.23.5-.5.5-.28 0-.5-.24-.5-.5 0-.3.22-.5.5-.5.27 0 .5.2.5.5zm.1 3.93c0 .27-.23.5-.5.5-.3 0-.5-.23-.5-.5 0-.28.2-.5.5-.5.27 0 .5.22.5.5zm.1 3.94c0 .28-.23.5-.5.5-.3 0-.5-.22-.5-.5 0-.27.2-.5.5-.5.27 0 .5.23.5.5zm.1 3.94c0 .3-.23.5-.5.5-.3 0-.5-.2-.5-.5 0-.26.2-.5.5-.5.27 0 .5.24.5.5zm.1 3.96c0 .27-.24.5-.5.5-.3 0-.5-.23-.5-.5 0-.28.2-.5.5-.5.26 0 .5.22.5.5zm.1 3.94c0 .28-.24.5-.5.5-.3 0-.5-.22-.5-.5s.2-.5.5-.5c.26 0 .5.22.5.5z" fill="#3a414a"/><path d="M697 581.5l-.96.02V581h.94z" stroke="#3a414a" stroke-width=".05" fill="#3a414a"/><path d="M700 719.5v.5" stroke="#3a414a" fill="none"/><path d="M697 361.5c0 .28-.22.5-.5.5s-.5-.22-.5-.5.22-.5.5-.5.5.22.5.5zm0 4.03c0 .28-.22.5-.5.5s-.5-.22-.5-.5.22-.5.5-.5.5.22.5.5zm0 4.03c0 .27-.22.5-.5.5s-.5-.23-.5-.5c0-.28.22-.5.5-.5s.5.22.5.5zm0 4.03c0 .26-.22.5-.5.5s-.5-.24-.5-.5c0-.3.22-.5.5-.5s.5.2.5.5zm0 4.02c0 .27-.22.5-.5.5s-.5-.23-.5-.5c0-.28.22-.5.5-.5s.5.22.5.5zm0 4.03c0 .27-.22.5-.5.5s-.5-.23-.5-.5c0-.28.22-.5.5-.5s.5.22.5.5zm0 4.03c0 .27-.22.5-.5.5s-.5-.23-.5-.5c0-.28.22-.5.5-.5s.5.22.5.5zm0 4.03c0 .28-.22.5-.5.5s-.5-.22-.5-.5c0-.27.22-.5.5-.5s.5.23.5.5zm0 4.04c0 .27-.22.5-.5.5s-.5-.23-.5-.5c0-.28.22-.5.5-.5s.5.22.5.5zm0 4.02c0 .28-.22.5-.5.5s-.5-.22-.5-.5c0-.27.22-.5.5-.5s.5.23.5.5zm0 4.03c0 .27-.22.5-.5.5s-.5-.23-.5-.5c0-.28.22-.5.5-.5s.5.22.5.5zm0 4.02c0 .28-.22.5-.5.5s-.5-.22-.5-.5c0-.27.22-.5.5-.5s.5.23.5.5zm0 4.03c0 .28-.22.5-.5.5s-.5-.22-.5-.5c0-.27.22-.5.5-.5s.5.23.5.5zm0 4.03c0 .28-.22.5-.5.5s-.5-.22-.5-.5c0-.27.22-.5.5-.5s.5.23.5.5zm0 4.03c0 .3-.22.5-.5.5s-.5-.2-.5-.5c0-.26.22-.5.5-.5s.5.24.5.5zm0 4.04c0 .28-.22.5-.5.5s-.5-.22-.5-.5c0-.27.22-.5.5-.5s.5.23.5.5zm0 4.03c0 .28-.22.5-.5.5s-.5-.22-.5-.5.22-.5.5-.5.5.22.5.5zm0 4.03c0 .28-.22.5-.5.5s-.5-.22-.5-.5.22-.5.5-.5.5.22.5.5zm0 4.03c0 .28-.22.5-.5.5s-.5-.22-.5-.5.22-.5.5-.5.5.22.5.5zm0 4.03c0 .27-.22.5-.5.5s-.5-.23-.5-.5c0-.28.22-.5.5-.5s.5.22.5.5zm0 4.03c0 .26-.22.5-.5.5s-.5-.24-.5-.5c0-.3.22-.5.5-.5s.5.2.5.5zm0 4.02c0 .27-.22.5-.5.5s-.5-.23-.5-.5c0-.28.22-.5.5-.5s.5.22.5.5zm0 4.03c0 .27-.22.5-.5.5s-.5-.23-.5-.5c0-.28.22-.5.5-.5s.5.22.5.5zm0 4.03c0 .27-.22.5-.5.5s-.5-.23-.5-.5c0-.28.22-.5.5-.5s.5.22.5.5zm0 4.03c0 .28-.22.5-.5.5s-.5-.22-.5-.5c0-.27.22-.5.5-.5s.5.23.5.5zm0 4.04c0 .27-.22.5-.5.5s-.5-.23-.5-.5c0-.28.22-.5.5-.5s.5.22.5.5zm0 4.02c0 .28-.22.5-.5.5s-.5-.22-.5-.5c0-.27.22-.5.5-.5s.5.23.5.5zm0 4.03c0 .27-.22.5-.5.5s-.5-.23-.5-.5c0-.28.22-.5.5-.5s.5.22.5.5zm0 4.02c0 .28-.22.5-.5.5s-.5-.22-.5-.5c0-.27.22-.5.5-.5s.5.23.5.5zm0 4.03c0 .28-.22.5-.5.5s-.5-.22-.5-.5c0-.27.22-.5.5-.5s.5.23.5.5zm0 4.03c0 .28-.22.5-.5.5s-.5-.22-.5-.5c0-.27.22-.5.5-.5s.5.23.5.5zm0 4.03c0 .3-.22.5-.5.5s-.5-.2-.5-.5c0-.26.22-.5.5-.5s.5.24.5.5zm0 4.04c0 .28-.22.5-.5.5s-.5-.22-.5-.5c0-.27.22-.5.5-.5s.5.23.5.5zm0 4.03c0 .28-.22.5-.5.5s-.5-.22-.5-.5.22-.5.5-.5.5.22.5.5z" fill="#3a414a"/><path d="M696.98 361.5H696v-.5h.96zM696.98 499H696v-.5h.96z" stroke="#3a414a" stroke-width=".05" fill="#3a414a"/><path d="M855.5 361.5c0 .28-.22.5-.5.5s-.5-.22-.5-.5.22-.5.5-.5.5.22.5.5zm0 3.98c0 .27-.22.5-.5.5s-.5-.23-.5-.5c0-.28.22-.5.5-.5s.5.22.5.5zm0 3.98c0 .27-.22.5-.5.5s-.5-.23-.5-.5c0-.28.22-.5.5-.5s.5.22.5.5zm0 3.97c0 .28-.22.5-.5.5s-.5-.22-.5-.5c0-.27.22-.5.5-.5s.5.23.5.5zm0 3.98c0 .3-.22.5-.5.5s-.5-.2-.5-.5c0-.26.22-.5.5-.5s.5.24.5.5zm0 4c0 .27-.22.5-.5.5s-.5-.23-.5-.5c0-.3.22-.5.5-.5s.5.2.5.5zm0 3.97c0 .27-.22.5-.5.5s-.5-.23-.5-.5c0-.28.22-.5.5-.5s.5.22.5.5zm0 3.97c0 .28-.22.5-.5.5s-.5-.22-.5-.5c0-.27.22-.5.5-.5s.5.23.5.5zm0 3.98c0 .28-.22.5-.5.5s-.5-.22-.5-.5c0-.27.22-.5.5-.5s.5.23.5.5zm0 3.98c0 .28-.22.5-.5.5s-.5-.22-.5-.5.22-.5.5-.5.5.22.5.5zm0 3.98c0 .27-.22.5-.5.5s-.5-.23-.5-.5c0-.28.22-.5.5-.5s.5.22.5.5zm0 3.98c0 .27-.22.5-.5.5s-.5-.23-.5-.5c0-.28.22-.5.5-.5s.5.22.5.5zm0 3.97c0 .28-.22.5-.5.5s-.5-.22-.5-.5c0-.27.22-.5.5-.5s.5.23.5.5zm0 3.98c0 .3-.22.5-.5.5s-.5-.2-.5-.5c0-.26.22-.5.5-.5s.5.24.5.5zm0 4c0 .26-.22.5-.5.5s-.5-.24-.5-.5c0-.3.22-.5.5-.5s.5.2.5.5zm0 3.97c0 .27-.22.5-.5.5s-.5-.23-.5-.5c0-.28.22-.5.5-.5s.5.22.5.5zm0 3.97c0 .28-.22.5-.5.5s-.5-.22-.5-.5c0-.27.22-.5.5-.5s.5.23.5.5zm0 3.98c0 .28-.22.5-.5.5s-.5-.22-.5-.5c0-.27.22-.5.5-.5s.5.23.5.5zm0 3.98c0 .28-.22.5-.5.5s-.5-.22-.5-.5.22-.5.5-.5.5.22.5.5zm0 3.98c0 .27-.22.5-.5.5s-.5-.23-.5-.5c0-.28.22-.5.5-.5s.5.22.5.5zm0 3.98c0 .27-.22.5-.5.5s-.5-.23-.5-.5c0-.28.22-.5.5-.5s.5.22.5.5zm0 3.97c0 .28-.22.5-.5.5s-.5-.22-.5-.5c0-.27.22-.5.5-.5s.5.23.5.5zm0 3.98c0 .3-.22.5-.5.5s-.5-.2-.5-.5c0-.26.22-.5.5-.5s.5.24.5.5zm0 4c0 .26-.22.5-.5.5s-.5-.24-.5-.5c0-.3.22-.5.5-.5s.5.2.5.5zm0 3.97c0 .27-.22.5-.5.5s-.5-.23-.5-.5c0-.28.22-.5.5-.5s.5.22.5.5zm0 3.97c0 .28-.22.5-.5.5s-.5-.22-.5-.5c0-.27.22-.5.5-.5s.5.23.5.5zm0 3.98c0 .28-.22.5-.5.5s-.5-.22-.5-.5c0-.27.22-.5.5-.5s.5.23.5.5zm0 3.98c0 .28-.22.5-.5.5s-.5-.22-.5-.5.22-.5.5-.5.5.22.5.5zm0 3.98c0 .27-.22.5-.5.5s-.5-.23-.5-.5c0-.28.22-.5.5-.5s.5.22.5.5zm0 3.98c0 .27-.22.5-.5.5s-.5-.23-.5-.5c0-.28.22-.5.5-.5s.5.22.5.5zm0 3.97c0 .28-.22.5-.5.5s-.5-.22-.5-.5c0-.27.22-.5.5-.5s.5.23.5.5zm0 3.98c0 .3-.22.5-.5.5s-.5-.2-.5-.5c0-.26.22-.5.5-.5s.5.24.5.5zm0 4c0 .26-.22.5-.5.5s-.5-.24-.5-.5c0-.3.22-.5.5-.5s.5.2.5.5zm0 3.97c0 .27-.22.5-.5.5s-.5-.23-.5-.5c0-.28.22-.5.5-.5s.5.22.5.5zm0 3.97c0 .28-.22.5-.5.5s-.5-.22-.5-.5c0-.27.22-.5.5-.5s.5.23.5.5zm0 3.98c0 .28-.22.5-.5.5s-.5-.22-.5-.5c0-.27.22-.5.5-.5s.5.23.5.5zm0 3.98c0 .28-.22.5-.5.5s-.5-.22-.5-.5.22-.5.5-.5.5.22.5.5zm0 3.98c0 .27-.22.5-.5.5s-.5-.23-.5-.5c0-.28.22-.5.5-.5s.5.22.5.5zm0 3.98c0 .27-.22.5-.5.5s-.5-.23-.5-.5c0-.28.22-.5.5-.5s.5.22.5.5zm0 3.97c0 .28-.22.5-.5.5s-.5-.22-.5-.5c0-.27.22-.5.5-.5s.5.23.5.5zm0 3.98c0 .3-.22.5-.5.5s-.5-.2-.5-.5c0-.26.22-.5.5-.5s.5.24.5.5zm0 4c0 .26-.22.5-.5.5s-.5-.24-.5-.5c0-.3.22-.5.5-.5s.5.2.5.5zm0 3.97c0 .27-.22.5-.5.5s-.5-.23-.5-.5c0-.28.22-.5.5-.5s.5.22.5.5zm0 3.97c0 .28-.22.5-.5.5s-.5-.22-.5-.5c0-.27.22-.5.5-.5s.5.23.5.5zm0 3.98c0 .28-.22.5-.5.5s-.5-.22-.5-.5c0-.27.22-.5.5-.5s.5.23.5.5zm0 3.98c0 .28-.22.5-.5.5s-.5-.22-.5-.5.22-.5.5-.5.5.22.5.5zm0 3.98c0 .27-.22.5-.5.5s-.5-.23-.5-.5c0-.28.22-.5.5-.5s.5.22.5.5zm0 3.98c0 .27-.22.5-.5.5s-.5-.23-.5-.5c0-.28.22-.5.5-.5s.5.22.5.5zm0 3.97c0 .28-.22.5-.5.5s-.5-.22-.5-.5c0-.27.22-.5.5-.5s.5.23.5.5zm0 3.98c0 .3-.22.5-.5.5s-.5-.2-.5-.5c0-.26.22-.5.5-.5s.5.24.5.5zm0 4c0 .26-.22.5-.5.5s-.5-.24-.5-.5c0-.3.22-.5.5-.5s.5.2.5.5zm0 3.97c0 .27-.22.5-.5.5s-.5-.23-.5-.5c0-.28.22-.5.5-.5s.5.22.5.5zm0 3.97c0 .28-.22.5-.5.5s-.5-.22-.5-.5c0-.27.22-.5.5-.5s.5.23.5.5zm0 3.98c0 .28-.22.5-.5.5s-.5-.22-.5-.5c0-.27.22-.5.5-.5s.5.23.5.5zm0 3.98c0 .28-.22.5-.5.5s-.5-.22-.5-.5.22-.5.5-.5.5.22.5.5zm0 3.98c0 .27-.22.5-.5.5s-.5-.23-.5-.5c0-.28.22-.5.5-.5s.5.22.5.5zm0 3.98c0 .27-.22.5-.5.5s-.5-.23-.5-.5c0-.28.22-.5.5-.5s.5.22.5.5zm0 3.97c0 .28-.22.5-.5.5s-.5-.22-.5-.5c0-.27.22-.5.5-.5s.5.23.5.5zm0 3.98c0 .3-.22.5-.5.5s-.5-.2-.5-.5c0-.27.22-.5.5-.5s.5.23.5.5zm0 4c0 .26-.22.5-.5.5s-.5-.24-.5-.5c0-.3.22-.5.5-.5s.5.2.5.5zm0 3.97c0 .27-.22.5-.5.5s-.5-.23-.5-.5c0-.28.22-.5.5-.5s.5.22.5.5zm0 3.97c0 .28-.22.5-.5.5s-.5-.22-.5-.5c0-.27.22-.5.5-.5s.5.23.5.5zm0 3.98c0 .28-.22.5-.5.5s-.5-.22-.5-.5c0-.27.22-.5.5-.5s.5.23.5.5zm0 3.98c0 .28-.22.5-.5.5s-.5-.22-.5-.5.22-.5.5-.5.5.22.5.5zm0 3.98c0 .27-.22.5-.5.5s-.5-.23-.5-.5c0-.28.22-.5.5-.5s.5.22.5.5zm0 3.98c0 .27-.22.5-.5.5s-.5-.23-.5-.5c0-.28.22-.5.5-.5s.5.22.5.5zm0 3.97c0 .28-.22.5-.5.5s-.5-.22-.5-.5c0-.27.22-.5.5-.5s.5.23.5.5zm0 3.98c0 .3-.22.5-.5.5s-.5-.2-.5-.5c0-.26.22-.5.5-.5s.5.24.5.5zm0 4c0 .26-.22.5-.5.5s-.5-.24-.5-.5c0-.3.22-.5.5-.5s.5.2.5.5zm0 3.97c0 .27-.22.5-.5.5s-.5-.23-.5-.5c0-.28.22-.5.5-.5s.5.22.5.5zm0 3.97c0 .28-.22.5-.5.5s-.5-.22-.5-.5c0-.27.22-.5.5-.5s.5.23.5.5zm0 3.98c0 .28-.22.5-.5.5s-.5-.22-.5-.5c0-.27.22-.5.5-.5s.5.23.5.5zm0 3.98c0 .28-.22.5-.5.5s-.5-.22-.5-.5.22-.5.5-.5.5.22.5.5zm0 3.98c0 .27-.22.5-.5.5s-.5-.23-.5-.5c0-.28.22-.5.5-.5s.5.22.5.5zm0 3.98c0 .27-.22.5-.5.5s-.5-.23-.5-.5c0-.28.22-.5.5-.5s.5.22.5.5zm0 3.97c0 .28-.22.5-.5.5s-.5-.22-.5-.5c0-.27.22-.5.5-.5s.5.23.5.5zm0 3.98c0 .3-.22.5-.5.5s-.5-.2-.5-.5c0-.26.22-.5.5-.5s.5.24.5.5zm0 4c0 .27-.22.5-.5.5s-.5-.23-.5-.5c0-.3.22-.5.5-.5s.5.2.5.5zm0 3.97c0 .27-.22.5-.5.5s-.5-.23-.5-.5c0-.28.22-.5.5-.5s.5.22.5.5zm0 3.97c0 .28-.22.5-.5.5s-.5-.22-.5-.5c0-.27.22-.5.5-.5s.5.23.5.5zm0 3.98c0 .28-.22.5-.5.5s-.5-.22-.5-.5c0-.27.22-.5.5-.5s.5.23.5.5zm0 3.98c0 .28-.22.5-.5.5s-.5-.22-.5-.5.22-.5.5-.5.5.22.5.5zm0 3.98c0 .27-.22.5-.5.5s-.5-.23-.5-.5c0-.28.22-.5.5-.5s.5.22.5.5zm0 3.98c0 .27-.22.5-.5.5s-.5-.23-.5-.5c0-.28.22-.5.5-.5s.5.22.5.5zm0 3.97c0 .28-.22.5-.5.5s-.5-.22-.5-.5c0-.27.22-.5.5-.5s.5.23.5.5zm0 3.98c0 .3-.22.5-.5.5s-.5-.2-.5-.5c0-.26.22-.5.5-.5s.5.24.5.5zm0 4c0 .26-.22.5-.5.5s-.5-.24-.5-.5c0-.3.22-.5.5-.5s.5.2.5.5zm0 3.97c0 .27-.22.5-.5.5s-.5-.23-.5-.5c0-.28.22-.5.5-.5s.5.22.5.5zm0 3.97c0 .28-.22.5-.5.5s-.5-.22-.5-.5c0-.27.22-.5.5-.5s.5.23.5.5zm0 3.98c0 .28-.22.5-.5.5s-.5-.22-.5-.5c0-.27.22-.5.5-.5s.5.23.5.5z" fill="#3a414a"/><path d="M855.48 361.5h-.96v-.5h.96z" stroke="#3a414a" stroke-width=".05" fill="#3a414a"/><path d="M855 719.5v.5" stroke="#3a414a" fill="none"/><path d="M160 326a6 6 0 0 1 6-6h98a6 6 0 0 1 6 6v28a6 6 0 0 1-6 6h-98a6 6 0 0 1-6-6z" stroke="#282c33" stroke-width="2" fill="#fff"/><use xlink:href="#a" transform="matrix(1,0,0,1,165,325) translate(21.69753086419753 19.65277777777778)"/><path d="M320 326a6 6 0 0 1 6-6h98a6 6 0 0 1 6 6v28a6 6 0 0 1-6 6h-98a6 6 0 0 1-6-6z" stroke="#282c33" stroke-width="2" fill="#fff"/><use xlink:href="#b" transform="matrix(1,0,0,1,325,325) translate(7.438271604938272 19.65277777777778)"/><path d="M480 326a6 6 0 0 1 6-6h98a6 6 0 0 1 6 6v28a6 6 0 0 1-6 6h-98a6 6 0 0 1-6-6z" stroke="#282c33" stroke-width="2" fill="#fff"/><use xlink:href="#c" transform="matrix(1,0,0,1,485,325) translate(21.604938271604937 19.65277777777778)"/><use xlink:href="#d" transform="matrix(1,0,0,1,485,325) translate(63.58024691358025 19.65277777777778)"/><path d="M640 326a6 6 0 0 1 6-6h98a6 6 0 0 1 6 6v28a6 6 0 0 1-6 6h-98a6 6 0 0 1-6-6z" stroke="#282c33" stroke-width="2" fill="#fff"/><use xlink:href="#c" transform="matrix(1,0,0,1,645,325) translate(21.604938271604937 19.65277777777778)"/><use xlink:href="#e" transform="matrix(1,0,0,1,645,325) translate(63.58024691358025 19.65277777777778)"/><path d="M800 326a6 6 0 0 1 6-6h98a6 6 0 0 1 6 6v28a6 6 0 0 1-6 6h-98a6 6 0 0 1-6-6z" stroke="#282c33" stroke-width="2" fill="#fff"/><use xlink:href="#c" transform="matrix(1,0,0,1,805,325) translate(21.01851851851852 19.65277777777778)"/><use xlink:href="#f" transform="matrix(1,0,0,1,805,325) translate(62.99382716049383 19.65277777777778)"/><path d="M200 426a6 6 0 0 1 6-6h21a6 6 0 0 1 6 6v259.5a6 6 0 0 1-6 6h-21a6 6 0 0 1-6-6zM358.5 426a6 6 0 0 1 6-6h21a6 6 0 0 1 6 6v259.5a6 6 0 0 1-6 6h-21a6 6 0 0 1-6-6zM520 426a6 6 0 0 1 6-6h21a6 6 0 0 1 6 6v68a6 6 0 0 1-6 6h-21a6 6 0 0 1-6-6zM680 506a6 6 0 0 1 6-6h21a6 6 0 0 1 6 6v68a6 6 0 0 1-6 6h-21a6 6 0 0 1-6-6zM840 617.5a6 6 0 0 1 6-6h21a6 6 0 0 1 6 6V674a6 6 0 0 1-6 6h-21a6 6 0 0 1-6-6z" stroke="#282c33" stroke-width="2" fill="#fff"/><path d="M234.5 431h106.62" stroke="#3a414a" fill="none"/><path d="M234.5 431.48h-.5v-.96h.5z" stroke="#3a414a" stroke-width=".05" fill="#3a414a"/><path d="M355.88 431l-14.26 4.63v-9.26z" stroke="#3a414a" fill="#3a414a"/><path d="M357 675H250.38" stroke="#3a414a" fill="none"/><path d="M357.5 675.48h-.5v-.96h.5z" stroke="#3a414a" stroke-width=".05" fill="#3a414a"/><path d="M235.62 675l14.26-4.63v9.26z" stroke="#3a414a" fill="#3a414a"/><path d="M393 444h109.62" stroke="#3a414a" fill="none"/><path d="M393 444.48h-.5v-.96h.5z" stroke="#3a414a" stroke-width=".05" fill="#3a414a"/><path d="M517.38 444l-14.26 4.63v-9.26z" stroke="#3a414a" fill="#3a414a"/><path d="M518.5 485H408.88" stroke="#3a414a" fill="none"/><path d="M519 485.48h-.5v-.96h.5z" stroke="#3a414a" stroke-width=".05" fill="#3a414a"/><path d="M394.12 485l14.26-4.63v9.26z" stroke="#3a414a" fill="#3a414a"/><path d="M393 519h269.62" stroke="#3a414a" fill="none"/><path d="M393 519.48h-.5v-.96h.5z" stroke="#3a414a" stroke-width=".05" fill="#3a414a"/><path d="M677.38 519l-14.26 4.63v-9.26z" stroke="#3a414a" fill="#3a414a"/><path d="M678.5 565H408.88" stroke="#3a414a" fill="none"/><path d="M679 565.48h-.5v-.96h.5z" stroke="#3a414a" stroke-width=".05" fill="#3a414a"/><path d="M394.12 565l14.26-4.63v9.26z" stroke="#3a414a" fill="#3a414a"/><path d="M393 631l429.62-2.7" stroke="#3a414a" fill="none"/><path d="M393.02 631.47h-.52v-.95h.5z" stroke="#3a414a" stroke-width=".05" fill="#3a414a"/><path d="M837.38 628.2l-14.23 4.73-.06-9.27z" stroke="#3a414a" fill="#3a414a"/><path d="M838.5 664H408.88" stroke="#3a414a" fill="none"/><path d="M839 664.48h-.5v-.96h.5z" stroke="#3a414a" stroke-width=".05" fill="#3a414a"/><path d="M394.12 664l14.26-4.63v9.26z" stroke="#3a414a" fill="#3a414a"/><defs><path fill="#3a414a" d="M212-179c-10-28-35-45-73-45-59 0-87 40-87 99 0 60 29 101 89 101 43 0 62-24 78-52l27 14C228-24 195 4 139 4 59 4 22-46 18-125c-6-104 99-153 187-111 19 9 31 26 39 46" id="g"/><path fill="#3a414a" d="M24 0v-261h32V0H24" id="h"/><path fill="#3a414a" d="M24-231v-30h32v30H24zM24 0v-190h32V0H24" id="i"/><path fill="#3a414a" d="M100-194c63 0 86 42 84 106H49c0 40 14 67 53 68 26 1 43-12 49-29l28 8c-11 28-37 45-77 45C44 4 14-33 15-96c1-61 26-98 85-98zm52 81c6-60-76-77-97-28-3 7-6 17-6 28h103" id="j"/><path fill="#3a414a" d="M117-194c89-4 53 116 60 194h-32v-121c0-31-8-49-39-48C34-167 62-67 57 0H25l-1-190h30c1 10-1 24 2 32 11-22 29-35 61-36" id="k"/><path fill="#3a414a" d="M59-47c-2 24 18 29 38 22v24C64 9 27 4 27-40v-127H5v-23h24l9-43h21v43h35v23H59v120" id="l"/><g id="a"><use transform="matrix(0.06172839506172839,0,0,0.06172839506172839,0,0)" xlink:href="#g"/><use transform="matrix(0.06172839506172839,0,0,0.06172839506172839,15.987654320987653,0)" xlink:href="#h"/><use transform="matrix(0.06172839506172839,0,0,0.06172839506172839,20.864197530864196,0)" xlink:href="#i"/><use transform="matrix(0.06172839506172839,0,0,0.06172839506172839,25.74074074074074,0)" xlink:href="#j"/><use transform="matrix(0.06172839506172839,0,0,0.06172839506172839,38.08641975308642,0)" xlink:href="#k"/><use transform="matrix(0.06172839506172839,0,0,0.06172839506172839,50.432098765432094,0)" xlink:href="#l"/></g><path fill="#3a414a" d="M63-220v92h138v28H63V0H30v-248h175v28H63" id="m"/><path fill="#3a414a" d="M141-36C126-15 110 5 73 4 37 3 15-17 15-53c-1-64 63-63 125-63 3-35-9-54-41-54-24 1-41 7-42 31l-33-3c5-37 33-52 76-52 45 0 72 20 72 64v82c-1 20 7 32 28 27v20c-31 9-61-2-59-35zM48-53c0 20 12 33 32 33 41-3 63-29 60-74-43 2-92-5-92 41" id="n"/><path fill="#3a414a" d="M135-143c-3-34-86-38-87 0 15 53 115 12 119 90S17 21 10-45l28-5c4 36 97 45 98 0-10-56-113-15-118-90-4-57 82-63 122-42 12 7 21 19 24 35" id="o"/><path fill="#3a414a" d="M85-194c31 0 48 13 60 33l-1-100h32l1 261h-30c-2-10 0-23-3-31C134-8 116 4 85 4 32 4 16-35 15-94c0-66 23-100 70-100zm9 24c-40 0-46 34-46 75 0 40 6 74 45 74 42 0 51-32 51-76 0-42-9-74-50-73" id="p"/><g id="b"><use transform="matrix(0.06172839506172839,0,0,0.06172839506172839,0,0)" xlink:href="#m"/><use transform="matrix(0.06172839506172839,0,0,0.06172839506172839,13.518518518518517,0)" xlink:href="#n"/><use transform="matrix(0.06172839506172839,0,0,0.06172839506172839,25.864197530864196,0)" xlink:href="#o"/><use transform="matrix(0.06172839506172839,0,0,0.06172839506172839,36.9753086419753,0)" xlink:href="#o"/><use transform="matrix(0.06172839506172839,0,0,0.06172839506172839,48.08641975308642,0)" xlink:href="#n"/><use transform="matrix(0.06172839506172839,0,0,0.06172839506172839,60.432098765432094,0)" xlink:href="#p"/><use transform="matrix(0.06172839506172839,0,0,0.06172839506172839,72.77777777777777,0)" xlink:href="#j"/></g><path fill="#3a414a" d="M205 0l-28-72H64L36 0H1l101-248h38L239 0h-34zm-38-99l-47-123c-12 45-31 82-46 123h93" id="q"/><path fill="#3a414a" d="M30-248c87 1 191-15 191 75 0 78-77 80-158 76V0H30v-248zm33 125c57 0 124 11 124-50 0-59-68-47-124-48v98" id="r"/><path fill="#3a414a" d="M33 0v-248h34V0H33" id="s"/><g id="c"><use transform="matrix(0.06172839506172839,0,0,0.06172839506172839,0,0)" xlink:href="#q"/><use transform="matrix(0.06172839506172839,0,0,0.06172839506172839,14.814814814814813,0)" xlink:href="#r"/><use transform="matrix(0.06172839506172839,0,0,0.06172839506172839,29.629629629629626,0)" xlink:href="#s"/></g><use transform="matrix(0.06172839506172839,0,0,0.06172839506172839,0,0)" xlink:href="#q" id="d"/><path fill="#3a414a" d="M160-131c35 5 61 23 61 61C221 17 115-2 30 0v-248c76 3 177-17 177 60 0 33-19 50-47 57zm-97-11c50-1 110 9 110-42 0-47-63-36-110-37v79zm0 115c55-2 124 14 124-45 0-56-70-42-124-44v89" id="t"/><use transform="matrix(0.06172839506172839,0,0,0.06172839506172839,0,0)" xlink:href="#t" id="e"/><use transform="matrix(0.06172839506172839,0,0,0.06172839506172839,0,0)" xlink:href="#g" id="f"/></defs></g></svg>