<svg xmlns="http://www.w3.org/2000/svg" xmlns:xlink="http://www.w3.org/1999/xlink" xmlns:lucid="lucid" width="1061" height="262"><g transform="translate(-380 -338.9999999734525)" lucid:page-tab-id="0_0"><path d="M0 0h1500v1000H0z" fill="#fff"/><path d="M1124.26 466.96c0 9.56-8.03 17.3-17.94 17.3-9.9 0-17.95-7.74-17.95-17.3s8.04-17.3 17.95-17.3c9.9 0 17.94 7.74 17.94 17.3z" stroke="#282c33" stroke-width="2" fill="#fff"/><path d="M1080 453.42a6 6 0 0 1 6-6h40.63a6 6 0 0 1 6 6v7.54a6 6 0 0 1-6 6H1086a6 6 0 0 1-6-6z" stroke="#fff" stroke-width="2" fill="#fff"/><path d="M500 546a6 6 0 0 1 6-6h148a6 6 0 0 1 6 6v48a6 6 0 0 1-6 6H506a6 6 0 0 1-6-6z" stroke="#282c33" stroke-width="2" fill="#fff"/><use xlink:href="#a" transform="matrix(1,0,0,1,512,552) translate(60.592592592592595 22.27777777777778)"/><path d="M760 546a6 6 0 0 1 6-6h148a6 6 0 0 1 6 6v48a6 6 0 0 1-6 6H766a6 6 0 0 1-6-6z" stroke="#282c33" stroke-width="2" fill="#fff"/><use xlink:href="#b" transform="matrix(1,0,0,1,772,552) translate(60.592592592592595 22.27777777777778)"/><path d="M620 346a6 6 0 0 1 6-6h148a6 6 0 0 1 6 6v48a6 6 0 0 1-6 6H626a6 6 0 0 1-6-6z" stroke="#282c33" stroke-width="2" fill="#fff"/><use xlink:href="#c" transform="matrix(1,0,0,1,632,352) translate(60.00617283950617 22.27777777777778)"/><path d="M748.78 401.42c0 .27-.23.5-.5.5-.28 0-.5-.23-.5-.5 0-.28.22-.5.5-.5.27 0 .5.22.5.5zm2.22 3.33c0 .28-.22.5-.5.5-.27 0-.5-.22-.5-.5 0-.27.23-.5.5-.5.28 0 .5.23.5.5zm2.23 3.34c0 .27-.23.5-.5.5-.28 0-.5-.23-.5-.5 0-.3.22-.5.5-.5.27 0 .5.2.5.5zm2.22 3.33c0 .27-.22.5-.5.5-.27 0-.5-.23-.5-.5 0-.28.23-.5.5-.5.28 0 .5.22.5.5zm2.23 3.33c0 .28-.23.5-.5.5-.28 0-.5-.22-.5-.5 0-.27.22-.5.5-.5.27 0 .5.23.5.5zm2.22 3.34c0 .28-.22.5-.5.5-.27 0-.5-.22-.5-.5 0-.27.23-.5.5-.5.28 0 .5.23.5.5zm2.23 3.34c0 .28-.23.5-.5.5-.28 0-.5-.22-.5-.5s.22-.5.5-.5c.27 0 .5.22.5.5zm2.22 3.34c0 .27-.22.5-.5.5-.27 0-.5-.23-.5-.5 0-.28.23-.5.5-.5.28 0 .5.22.5.5zm2.23 3.33c0 .3-.23.5-.5.5-.28 0-.5-.2-.5-.5 0-.26.22-.5.5-.5.27 0 .5.24.5.5zm2.22 3.35c0 .28-.22.5-.5.5-.27 0-.5-.22-.5-.5 0-.27.23-.5.5-.5.28 0 .5.23.5.5zm2.23 3.34c0 .26-.23.5-.5.5-.28 0-.5-.24-.5-.5 0-.3.22-.5.5-.5.27 0 .5.2.5.5zm2.22 3.33c0 .27-.22.5-.5.5s-.5-.23-.5-.5c0-.28.22-.5.5-.5s.5.22.5.5zm2.23 3.33c0 .28-.23.5-.5.5-.28 0-.5-.22-.5-.5 0-.27.22-.5.5-.5.27 0 .5.23.5.5zm2.22 3.34c0 .28-.22.5-.5.5s-.5-.22-.5-.5.22-.5.5-.5.5.22.5.5zm2.22 3.34c0 .27-.22.5-.5.5-.27 0-.5-.23-.5-.5 0-.28.23-.5.5-.5.28 0 .5.22.5.5zm2.23 3.34c0 .27-.22.5-.5.5s-.5-.23-.5-.5c0-.28.22-.5.5-.5s.5.22.5.5zm2.23 3.33c0 .3-.23.5-.5.5-.28 0-.5-.2-.5-.5 0-.26.22-.5.5-.5.27 0 .5.24.5.5zm2.22 3.35c0 .28-.22.5-.5.5s-.5-.22-.5-.5.22-.5.5-.5.5.22.5.5zm2.22 3.34c0 .26-.22.5-.5.5-.27 0-.5-.24-.5-.5 0-.3.23-.5.5-.5.28 0 .5.2.5.5zm2.23 3.32c0 .28-.22.5-.5.5s-.5-.22-.5-.5c0-.27.22-.5.5-.5s.5.23.5.5zm2.22 3.34c0 .28-.22.5-.5.5-.27 0-.5-.22-.5-.5s.23-.5.5-.5c.28 0 .5.22.5.5zm2.23 3.34c0 .27-.23.5-.5.5-.28 0-.5-.23-.5-.5 0-.28.22-.5.5-.5.27 0 .5.22.5.5zm2.22 3.34c0 .27-.22.5-.5.5-.27 0-.5-.23-.5-.5 0-.28.23-.5.5-.5.28 0 .5.22.5.5zm2.23 3.33c0 .28-.23.5-.5.5-.28 0-.5-.22-.5-.5 0-.27.22-.5.5-.5.27 0 .5.23.5.5zm2.22 3.34c0 .3-.22.5-.5.5-.27 0-.5-.2-.5-.5 0-.27.23-.5.5-.5.28 0 .5.23.5.5zm2.23 3.35c0 .27-.23.5-.5.5-.28 0-.5-.23-.5-.5 0-.28.22-.5.5-.5.27 0 .5.22.5.5zm2.22 3.33c0 .28-.22.5-.5.5-.27 0-.5-.22-.5-.5 0-.27.23-.5.5-.5.28 0 .5.23.5.5zm2.23 3.34c0 .28-.23.5-.5.5-.28 0-.5-.22-.5-.5 0-.27.22-.5.5-.5.27 0 .5.23.5.5zm2.22 3.34c0 .27-.22.5-.5.5-.27 0-.5-.23-.5-.5 0-.28.23-.5.5-.5.28 0 .5.22.5.5zm2.23 3.34c0 .27-.23.5-.5.5-.28 0-.5-.23-.5-.5 0-.28.22-.5.5-.5.27 0 .5.22.5.5zm2.22 3.33c0 .28-.22.5-.5.5-.27 0-.5-.22-.5-.5 0-.27.23-.5.5-.5.28 0 .5.23.5.5zm2.23 3.34c0 .28-.23.5-.5.5-.28 0-.5-.22-.5-.5 0-.27.22-.5.5-.5.27 0 .5.23.5.5zm2.22 3.34c0 .28-.22.5-.5.5-.27 0-.5-.22-.5-.5 0-.27.23-.5.5-.5.28 0 .5.23.5.5zm2.23 3.35c0 .27-.23.5-.5.5-.28 0-.5-.23-.5-.5 0-.28.22-.5.5-.5.27 0 .5.22.5.5zm2.22 3.33c0 .28-.22.5-.5.5-.27 0-.5-.22-.5-.5 0-.27.23-.5.5-.5.28 0 .5.23.5.5zm2.23 3.34c0 .28-.23.5-.5.5-.28 0-.5-.22-.5-.5s.22-.5.5-.5c.27 0 .5.22.5.5zm2.22 3.34c0 .27-.22.5-.5.5-.27 0-.5-.23-.5-.5 0-.28.23-.5.5-.5.28 0 .5.22.5.5zm2.23 3.34c0 .27-.23.5-.5.5-.28 0-.5-.23-.5-.5 0-.28.22-.5.5-.5.27 0 .5.22.5.5zm2.22 3.33c0 .28-.22.5-.5.5s-.5-.22-.5-.5c0-.27.22-.5.5-.5s.5.23.5.5zm2.23 3.34c0 .27-.23.5-.5.5-.28 0-.5-.23-.5-.5 0-.28.22-.5.5-.5.27 0 .5.22.5.5zm2.22 3.34c0 .28-.22.5-.5.5-.27 0-.5-.22-.5-.5 0-.27.23-.5.5-.5.28 0 .5.23.5.5z" fill="#3a414a"/><path d="M748.68 401.16l-.8.53-.45-.7h1.14z" stroke="#3a414a" stroke-width=".05" fill="#3a414a"/><path d="M821.43 529.5l18.03 8.68-1.08-19.97" stroke="#3a414a" fill="none"/><path d="M759 570c0 .28-.22.5-.5.5s-.5-.22-.5-.5.22-.5.5-.5.5.22.5.5zm-4.02 0c0 .28-.23.5-.5.5-.28 0-.5-.22-.5-.5s.22-.5.5-.5c.27 0 .5.22.5.5zm-4.03 0c0 .28-.22.5-.5.5s-.5-.22-.5-.5.22-.5.5-.5.5.22.5.5zm-4.02 0c0 .28-.23.5-.5.5-.28 0-.5-.22-.5-.5s.22-.5.5-.5c.27 0 .5.22.5.5zm-4.03 0c0 .28-.22.5-.5.5-.27 0-.5-.22-.5-.5s.23-.5.5-.5c.28 0 .5.22.5.5zm-4.02 0c0 .28-.23.5-.5.5-.28 0-.5-.22-.5-.5s.22-.5.5-.5c.27 0 .5.22.5.5zm-4.03 0c0 .28-.22.5-.5.5-.27 0-.5-.22-.5-.5s.23-.5.5-.5c.28 0 .5.22.5.5zm-4.02 0c0 .28-.23.5-.5.5-.28 0-.5-.22-.5-.5s.22-.5.5-.5c.27 0 .5.22.5.5zm-4.03 0c0 .28-.22.5-.5.5-.27 0-.5-.22-.5-.5s.23-.5.5-.5c.28 0 .5.22.5.5zm-4.02 0c0 .28-.23.5-.5.5-.28 0-.5-.22-.5-.5s.22-.5.5-.5c.27 0 .5.22.5.5zm-4.03 0c0 .28-.22.5-.5.5-.27 0-.5-.22-.5-.5s.23-.5.5-.5c.28 0 .5.22.5.5zm-4.02 0c0 .28-.23.5-.5.5-.28 0-.5-.22-.5-.5s.22-.5.5-.5c.27 0 .5.22.5.5zm-4.02 0c0 .28-.22.5-.5.5-.27 0-.5-.22-.5-.5s.23-.5.5-.5c.28 0 .5.22.5.5zm-4.02 0c0 .28-.22.5-.5.5s-.5-.22-.5-.5.22-.5.5-.5.5.22.5.5zm-4.02 0c0 .28-.23.5-.5.5-.28 0-.5-.22-.5-.5s.22-.5.5-.5c.27 0 .5.22.5.5zm-4.03 0c0 .28-.22.5-.5.5-.27 0-.5-.22-.5-.5s.23-.5.5-.5c.28 0 .5.22.5.5zm-4.02 0c0 .28-.22.5-.5.5-.27 0-.5-.22-.5-.5s.23-.5.5-.5c.28 0 .5.22.5.5zm-4.02 0c0 .28-.22.5-.5.5s-.5-.22-.5-.5.22-.5.5-.5.5.22.5.5zm-4.02 0c0 .28-.23.5-.5.5-.28 0-.5-.22-.5-.5s.22-.5.5-.5c.27 0 .5.22.5.5zm-4.03 0c0 .28-.22.5-.5.5-.27 0-.5-.22-.5-.5s.23-.5.5-.5c.28 0 .5.22.5.5zm-4.02 0c0 .28-.22.5-.5.5-.27 0-.5-.22-.5-.5s.23-.5.5-.5c.28 0 .5.22.5.5zm-4.02 0c0 .28-.22.5-.5.5-.27 0-.5-.22-.5-.5s.23-.5.5-.5c.28 0 .5.22.5.5zm-4.02 0c0 .28-.23.5-.5.5-.28 0-.5-.22-.5-.5s.22-.5.5-.5c.27 0 .5.22.5.5zm-4.03 0c0 .28-.22.5-.5.5-.27 0-.5-.22-.5-.5s.23-.5.5-.5c.28 0 .5.22.5.5z" fill="#3a414a"/><path d="M759 570.48h-.5v-.96h.5z" stroke="#3a414a" stroke-width=".05" fill="#3a414a"/><path d="M679.2 559.82L661.98 570l17.22 10.18" stroke="#3a414a" fill="none"/><path d="M580.77 538.58c0 .27-.23.5-.5.5-.28 0-.5-.23-.5-.5 0-.28.22-.5.5-.5.27 0 .5.22.5.5zm2.14-3.42c0 .27-.2.5-.5.5-.26 0-.5-.23-.5-.5 0-.28.24-.5.5-.5.3 0 .5.22.5.5zm2.16-3.42c0 .27-.22.5-.5.5-.27 0-.5-.23-.5-.5 0-.28.23-.5.5-.5.28 0 .5.22.5.5zm2.15-3.42c0 .27-.2.5-.5.5-.27 0-.5-.23-.5-.5 0-.28.23-.5.5-.5.3 0 .5.22.5.5zm2.16-3.42c0 .27-.23.5-.5.5-.28 0-.5-.23-.5-.5 0-.28.22-.5.5-.5.27 0 .5.22.5.5zm2.15-3.42c0 .27-.22.5-.5.5-.27 0-.5-.23-.5-.5 0-.28.23-.5.5-.5.28 0 .5.22.5.5zm2.15-3.42c0 .27-.22.5-.5.5-.27 0-.5-.23-.5-.5 0-.28.23-.5.5-.5.28 0 .5.22.5.5zm2.15-3.42c0 .27-.22.5-.5.5-.27 0-.5-.23-.5-.5 0-.28.23-.5.5-.5.28 0 .5.22.5.5zm2.15-3.43c0 .3-.22.5-.5.5s-.5-.2-.5-.5c0-.26.22-.5.5-.5s.5.24.5.5zm2.15-3.4c0 .27-.23.5-.5.5-.28 0-.5-.23-.5-.5 0-.28.22-.5.5-.5.27 0 .5.22.5.5zm2.14-3.43c0 .28-.22.5-.5.5-.27 0-.5-.22-.5-.5 0-.27.23-.5.5-.5.28 0 .5.23.5.5zm2.15-3.42c0 .28-.23.5-.5.5-.28 0-.5-.22-.5-.5 0-.27.22-.5.5-.5.27 0 .5.23.5.5zm2.14-3.4c0 .26-.22.5-.5.5-.27 0-.5-.24-.5-.5 0-.3.23-.5.5-.5.28 0 .5.2.5.5zm2.15-3.44c0 .3-.24.5-.5.5-.3 0-.5-.2-.5-.5 0-.26.2-.5.5-.5.26 0 .5.24.5.5zm2.14-3.4c0 .27-.23.5-.5.5-.28 0-.5-.23-.5-.5 0-.28.22-.5.5-.5.27 0 .5.22.5.5zm2.14-3.43c0 .28-.22.5-.5.5-.27 0-.5-.22-.5-.5 0-.27.23-.5.5-.5.28 0 .5.23.5.5zm2.15-3.42c0 .28-.22.5-.5.5-.27 0-.5-.22-.5-.5 0-.27.23-.5.5-.5.28 0 .5.23.5.5zm2.15-3.42c0 .28-.22.5-.5.5-.27 0-.5-.22-.5-.5 0-.27.23-.5.5-.5.28 0 .5.23.5.5zm2.15-3.42c0 .3-.22.5-.5.5s-.5-.2-.5-.5c0-.26.22-.5.5-.5s.5.24.5.5zm2.15-3.4c0 .27-.23.5-.5.5-.28 0-.5-.23-.5-.5 0-.28.22-.5.5-.5.27 0 .5.22.5.5zm2.14-3.43c0 .28-.22.5-.5.5-.27 0-.5-.22-.5-.5 0-.27.23-.5.5-.5.28 0 .5.23.5.5zm2.15-3.42c0 .28-.22.5-.5.5-.27 0-.5-.22-.5-.5 0-.27.23-.5.5-.5.28 0 .5.23.5.5zm2.15-3.42c0 .28-.22.5-.5.5s-.5-.22-.5-.5c0-.27.22-.5.5-.5s.5.23.5.5zm2.15-3.42c0 .3-.23.5-.5.5-.28 0-.5-.2-.5-.5 0-.26.22-.5.5-.5.27 0 .5.24.5.5zm2.15-3.4c0 .27-.23.5-.5.5-.28 0-.5-.23-.5-.5 0-.28.22-.5.5-.5.27 0 .5.22.5.5zm2.14-3.43c0 .28-.22.5-.5.5-.27 0-.5-.22-.5-.5 0-.27.23-.5.5-.5.28 0 .5.23.5.5zm2.15-3.42c0 .28-.2.5-.5.5-.26 0-.5-.22-.5-.5 0-.27.24-.5.5-.5.3 0 .5.23.5.5zm2.16-3.42c0 .28-.22.5-.5.5s-.5-.22-.5-.5c0-.27.22-.5.5-.5s.5.23.5.5zm2.15-3.42c0 .3-.22.5-.5.5-.27 0-.5-.2-.5-.5 0-.26.23-.5.5-.5.28 0 .5.24.5.5zm2.16-3.4c0 .27-.23.5-.5.5-.28 0-.5-.23-.5-.5 0-.28.22-.5.5-.5.27 0 .5.22.5.5zm2.14-3.43c0 .28-.22.5-.5.5-.27 0-.5-.22-.5-.5s.23-.5.5-.5c.28 0 .5.22.5.5zm2.15-3.42c0 .28-.22.5-.5.5-.27 0-.5-.22-.5-.5s.23-.5.5-.5c.28 0 .5.22.5.5zm2.15-3.42c0 .28-.22.5-.5.5s-.5-.22-.5-.5c0-.27.22-.5.5-.5s.5.23.5.5zm2.15-3.42c0 .3-.23.5-.5.5-.28 0-.5-.2-.5-.5 0-.26.22-.5.5-.5.27 0 .5.24.5.5zm2.15-3.4c0 .27-.23.5-.5.5-.28 0-.5-.23-.5-.5 0-.3.22-.5.5-.5.27 0 .5.2.5.5zm2.14-3.43c0 .28-.22.5-.5.5-.27 0-.5-.22-.5-.5 0-.27.23-.5.5-.5.28 0 .5.23.5.5zm2.15-3.42c0 .28-.23.5-.5.5-.28 0-.5-.22-.5-.5s.22-.5.5-.5c.27 0 .5.22.5.5zm2.14-3.42c0 .28-.22.5-.5.5s-.5-.22-.5-.5.22-.5.5-.5.5.22.5.5zm2.15-3.42c0 .3-.24.5-.5.5-.3 0-.5-.2-.5-.5 0-.27.2-.5.5-.5.26 0 .5.23.5.5zm2.13-3.4c0 .27-.22.5-.5.5-.27 0-.5-.23-.5-.5 0-.3.23-.5.5-.5.28 0 .5.2.5.5z" fill="#3a414a"/><path d="M580.67 538.82l-.1.18h-1.13l.43-.7z" stroke="#3a414a" stroke-width=".05" fill="#3a414a"/><path d="M665.6 421.82l.54-20-17.77 9.18" stroke="#3a414a" fill="none"/><path d="M1020 546a6 6 0 0 1 6-6h148a6 6 0 0 1 6 6v48a6 6 0 0 1-6 6h-148a6 6 0 0 1-6-6z" stroke="#282c33" stroke-width="2" fill="#fff"/><use xlink:href="#a" transform="matrix(1,0,0,1,1032,552) translate(60.592592592592595 22.27777777777778)"/><path d="M1280 546a6 6 0 0 1 6-6h148a6 6 0 0 1 6 6v48a6 6 0 0 1-6 6h-148a6 6 0 0 1-6-6z" stroke="#282c33" stroke-width="2" fill="#fff"/><use xlink:href="#b" transform="matrix(1,0,0,1,1292,552) translate(60.592592592592595 22.27777777777778)"/><path d="M1140 346a6 6 0 0 1 6-6h148a6 6 0 0 1 6 6v48a6 6 0 0 1-6 6h-148a6 6 0 0 1-6-6z" stroke="#282c33" stroke-width="2" fill="#fff"/><use xlink:href="#c" transform="matrix(1,0,0,1,1152,352) translate(60.00617283950617 22.27777777777778)"/><path d="M1268.78 401.42c0 .27-.23.5-.5.5-.28 0-.5-.23-.5-.5 0-.28.22-.5.5-.5.27 0 .5.22.5.5zm2.22 3.33c0 .28-.22.5-.5.5-.27 0-.5-.22-.5-.5 0-.27.23-.5.5-.5.28 0 .5.23.5.5zm2.23 3.34c0 .27-.23.5-.5.5-.28 0-.5-.23-.5-.5 0-.3.22-.5.5-.5.27 0 .5.2.5.5zm2.22 3.33c0 .27-.22.5-.5.5-.27 0-.5-.23-.5-.5 0-.28.23-.5.5-.5.28 0 .5.22.5.5zm2.23 3.33c0 .28-.23.5-.5.5-.28 0-.5-.22-.5-.5 0-.27.22-.5.5-.5.27 0 .5.23.5.5zm2.22 3.34c0 .28-.22.5-.5.5s-.5-.22-.5-.5c0-.27.22-.5.5-.5s.5.23.5.5zm2.23 3.34c0 .28-.23.5-.5.5-.28 0-.5-.22-.5-.5s.22-.5.5-.5c.27 0 .5.22.5.5zm2.22 3.34c0 .27-.22.5-.5.5-.27 0-.5-.23-.5-.5 0-.28.23-.5.5-.5.28 0 .5.22.5.5zm2.23 3.33c0 .3-.23.5-.5.5-.28 0-.5-.2-.5-.5 0-.26.22-.5.5-.5.27 0 .5.24.5.5zm2.22 3.35c0 .28-.22.5-.5.5-.27 0-.5-.22-.5-.5 0-.27.23-.5.5-.5.28 0 .5.23.5.5zm2.23 3.34c0 .26-.23.5-.5.5-.28 0-.5-.24-.5-.5 0-.3.22-.5.5-.5.27 0 .5.2.5.5zm2.22 3.33c0 .27-.22.5-.5.5s-.5-.23-.5-.5c0-.28.22-.5.5-.5s.5.22.5.5zm2.22 3.33c0 .28-.22.5-.5.5-.27 0-.5-.22-.5-.5 0-.27.23-.5.5-.5.28 0 .5.23.5.5zm2.23 3.34c0 .28-.22.5-.5.5s-.5-.22-.5-.5.22-.5.5-.5.5.22.5.5zm2.22 3.34c0 .27-.22.5-.5.5-.27 0-.5-.23-.5-.5 0-.28.23-.5.5-.5.28 0 .5.22.5.5zm2.23 3.34c0 .27-.22.5-.5.5s-.5-.23-.5-.5c0-.28.22-.5.5-.5s.5.22.5.5zm2.22 3.33c0 .3-.22.5-.5.5-.27 0-.5-.2-.5-.5 0-.26.23-.5.5-.5.28 0 .5.24.5.5zm2.23 3.35c0 .28-.22.5-.5.5s-.5-.22-.5-.5.22-.5.5-.5.5.22.5.5zm2.22 3.34c0 .26-.22.5-.5.5-.27 0-.5-.24-.5-.5 0-.3.23-.5.5-.5.28 0 .5.2.5.5zm2.23 3.32c0 .28-.22.5-.5.5s-.5-.22-.5-.5c0-.27.22-.5.5-.5s.5.23.5.5zm2.22 3.34c0 .28-.22.5-.5.5-.27 0-.5-.22-.5-.5s.23-.5.5-.5c.28 0 .5.22.5.5zm2.23 3.34c0 .27-.22.5-.5.5s-.5-.23-.5-.5c0-.28.22-.5.5-.5s.5.22.5.5zm2.22 3.34c0 .27-.22.5-.5.5-.27 0-.5-.23-.5-.5 0-.28.23-.5.5-.5.28 0 .5.22.5.5zm2.23 3.33c0 .28-.23.5-.5.5-.28 0-.5-.22-.5-.5 0-.27.22-.5.5-.5.27 0 .5.23.5.5zm2.22 3.34c0 .3-.22.5-.5.5-.27 0-.5-.2-.5-.5 0-.27.23-.5.5-.5.28 0 .5.23.5.5zm2.23 3.35c0 .27-.23.5-.5.5-.28 0-.5-.23-.5-.5 0-.28.22-.5.5-.5.27 0 .5.22.5.5zm2.22 3.33c0 .28-.22.5-.5.5-.27 0-.5-.22-.5-.5 0-.27.23-.5.5-.5.28 0 .5.23.5.5zm2.23 3.34c0 .28-.23.5-.5.5-.28 0-.5-.22-.5-.5 0-.27.22-.5.5-.5.27 0 .5.23.5.5zm2.22 3.34c0 .27-.22.5-.5.5-.27 0-.5-.23-.5-.5 0-.28.23-.5.5-.5.28 0 .5.22.5.5zm2.23 3.34c0 .27-.23.5-.5.5-.28 0-.5-.23-.5-.5 0-.28.22-.5.5-.5.27 0 .5.22.5.5zm2.22 3.33c0 .28-.22.5-.5.5-.27 0-.5-.22-.5-.5 0-.27.23-.5.5-.5.28 0 .5.23.5.5zm2.23 3.34c0 .28-.23.5-.5.5-.28 0-.5-.22-.5-.5 0-.27.22-.5.5-.5.27 0 .5.23.5.5zm2.22 3.34c0 .28-.22.5-.5.5-.27 0-.5-.22-.5-.5 0-.27.23-.5.5-.5.28 0 .5.23.5.5zm2.23 3.35c0 .27-.23.5-.5.5-.28 0-.5-.23-.5-.5 0-.28.22-.5.5-.5.27 0 .5.22.5.5zm2.22 3.33c0 .28-.22.5-.5.5-.27 0-.5-.22-.5-.5 0-.27.23-.5.5-.5.28 0 .5.23.5.5zm2.23 3.34c0 .28-.23.5-.5.5-.28 0-.5-.22-.5-.5s.22-.5.5-.5c.27 0 .5.22.5.5zm2.22 3.34c0 .27-.22.5-.5.5-.27 0-.5-.23-.5-.5 0-.28.23-.5.5-.5.28 0 .5.22.5.5zm2.23 3.34c0 .27-.23.5-.5.5-.28 0-.5-.23-.5-.5 0-.28.22-.5.5-.5.27 0 .5.22.5.5zm2.22 3.33c0 .28-.22.5-.5.5-.27 0-.5-.22-.5-.5 0-.27.23-.5.5-.5.28 0 .5.23.5.5zm2.23 3.34c0 .27-.23.5-.5.5-.28 0-.5-.23-.5-.5 0-.28.22-.5.5-.5.27 0 .5.22.5.5zm2.22 3.34c0 .28-.22.5-.5.5s-.5-.22-.5-.5c0-.27.22-.5.5-.5s.5.23.5.5z" fill="#3a414a"/><path d="M1268.68 401.16l-.8.53-.45-.7h1.14z" stroke="#3a414a" stroke-width=".05" fill="#3a414a"/><path d="M1341.43 529.5l18.02 8.68-1.07-19.97" stroke="#3a414a" fill="none"/><path d="M1279 570c0 .28-.22.5-.5.5s-.5-.22-.5-.5.22-.5.5-.5.5.22.5.5zm-4.03 0c0 .28-.22.5-.5.5-.27 0-.5-.22-.5-.5s.23-.5.5-.5c.28 0 .5.22.5.5zm-4.02 0c0 .28-.22.5-.5.5s-.5-.22-.5-.5.22-.5.5-.5.5.22.5.5zm-4.02 0c0 .28-.23.5-.5.5-.28 0-.5-.22-.5-.5s.22-.5.5-.5c.27 0 .5.22.5.5zm-4.03 0c0 .28-.22.5-.5.5s-.5-.22-.5-.5.22-.5.5-.5.5.22.5.5zm-4.02 0c0 .28-.23.5-.5.5-.28 0-.5-.22-.5-.5s.22-.5.5-.5c.27 0 .5.22.5.5zm-4.03 0c0 .28-.22.5-.5.5-.27 0-.5-.22-.5-.5s.23-.5.5-.5c.28 0 .5.22.5.5zm-4.02 0c0 .28-.23.5-.5.5-.28 0-.5-.22-.5-.5s.22-.5.5-.5c.27 0 .5.22.5.5zm-4.03 0c0 .28-.22.5-.5.5-.27 0-.5-.22-.5-.5s.23-.5.5-.5c.28 0 .5.22.5.5zm-4.02 0c0 .28-.22.5-.5.5s-.5-.22-.5-.5.22-.5.5-.5.5.22.5.5zm-4.03 0c0 .28-.22.5-.5.5-.27 0-.5-.22-.5-.5s.23-.5.5-.5c.28 0 .5.22.5.5zm-4.02 0c0 .28-.22.5-.5.5s-.5-.22-.5-.5.22-.5.5-.5.5.22.5.5zm-4.03 0c0 .28-.22.5-.5.5-.27 0-.5-.22-.5-.5s.23-.5.5-.5c.28 0 .5.22.5.5zm-4.02 0c0 .28-.22.5-.5.5s-.5-.22-.5-.5.22-.5.5-.5.5.22.5.5zm-4.03 0c0 .28-.22.5-.5.5-.27 0-.5-.22-.5-.5s.23-.5.5-.5c.28 0 .5.22.5.5zm-4.02 0c0 .28-.22.5-.5.5s-.5-.22-.5-.5.22-.5.5-.5.5.22.5.5zm-4.02 0c0 .28-.22.5-.5.5-.27 0-.5-.22-.5-.5s.23-.5.5-.5c.28 0 .5.22.5.5zm-4.02 0c0 .28-.22.5-.5.5-.27 0-.5-.22-.5-.5s.23-.5.5-.5c.28 0 .5.22.5.5zm-4.02 0c0 .28-.23.5-.5.5-.28 0-.5-.22-.5-.5s.22-.5.5-.5c.27 0 .5.22.5.5zm-4.03 0c0 .28-.22.5-.5.5-.27 0-.5-.22-.5-.5s.23-.5.5-.5c.28 0 .5.22.5.5zm-4.02 0c0 .28-.22.5-.5.5-.27 0-.5-.22-.5-.5s.23-.5.5-.5c.28 0 .5.22.5.5zm-4.02 0c0 .28-.22.5-.5.5-.27 0-.5-.22-.5-.5s.23-.5.5-.5c.28 0 .5.22.5.5zm-4.02 0c0 .28-.23.5-.5.5-.28 0-.5-.22-.5-.5s.22-.5.5-.5c.27 0 .5.22.5.5zm-4.03 0c0 .28-.22.5-.5.5-.27 0-.5-.22-.5-.5s.23-.5.5-.5c.28 0 .5.22.5.5zm-4.02 0c0 .28-.22.5-.5.5-.27 0-.5-.22-.5-.5s.23-.5.5-.5c.28 0 .5.22.5.5z" fill="#3a414a"/><path d="M1279 570.48h-.5v-.96h.5z" stroke="#3a414a" stroke-width=".05" fill="#3a414a"/><path d="M1199.2 559.82L1181.98 570l17.22 10.18M1138.8 394.68l-26.24 57.7" stroke="#3a414a" fill="none"/><path d="M1139 394.04l.06.76-.7-.3.64-1.4z" stroke="#3a414a" stroke-width=".05" fill="#3a414a"/><path d="M1121.42 465.9c0 8.28-6.72 15-15 15-8.3 0-15-6.72-15-15 0-8.3 6.7-15 15-15 8.28 0 15 6.7 15 15z" stroke="#3a414a" fill="#fff"/><path d="M1132.63 432.96a6 6 0 0 1 6-6h28a6 6 0 0 1 6 6v28a6 6 0 0 1-6 6h-28a6 6 0 0 1-6-6z" stroke="#000" stroke-opacity="0" stroke-width="2" fill="#fff" fill-opacity="0"/><use xlink:href="#d" transform="matrix(1,0,0,1,1137.6325898499524,431.9597976934324) translate(3.919753086419753 19.65277777777778)"/><path d="M1100.06 538.5l6.2-52.73" stroke="#3a414a" fill="none"/><path d="M1100.53 538.55l-.05.45h-.96l.07-.57zM1106.73 485.84l-.94-.1.05-.53.47.08.48-.07z" stroke="#3a414a" stroke-width=".05" fill="#3a414a"/><path d="M380 346a6 6 0 0 1 6-6h228a6 6 0 0 1 6 6v48a6 6 0 0 1-6 6H386a6 6 0 0 1-6-6z" stroke="#000" stroke-opacity="0" stroke-width="2" fill="#fff" fill-opacity="0"/><use xlink:href="#e" transform="matrix(1,0,0,1,385,345) translate(105.15432098765432 30.27777777777778)"/><path d="M900 346a6 6 0 0 1 6-6h228a6 6 0 0 1 6 6v48a6 6 0 0 1-6 6H906a6 6 0 0 1-6-6z" stroke="#000" stroke-opacity="0" stroke-width="2" fill="#fff" fill-opacity="0"/><use xlink:href="#f" transform="matrix(1,0,0,1,905,345) translate(104.5679012345679 30.27777777777778)"/><defs><path fill="#3a414a" d="M205 0l-28-72H64L36 0H1l101-248h38L239 0h-34zm-38-99l-47-123c-12 45-31 82-46 123h93" id="g"/><use transform="matrix(0.06172839506172839,0,0,0.06172839506172839,0,0)" xlink:href="#g" id="a"/><path fill="#3a414a" d="M160-131c35 5 61 23 61 61C221 17 115-2 30 0v-248c76 3 177-17 177 60 0 33-19 50-47 57zm-97-11c50-1 110 9 110-42 0-47-63-36-110-37v79zm0 115c55-2 124 14 124-45 0-56-70-42-124-44v89" id="h"/><use transform="matrix(0.06172839506172839,0,0,0.06172839506172839,0,0)" xlink:href="#h" id="b"/><path fill="#3a414a" d="M212-179c-10-28-35-45-73-45-59 0-87 40-87 99 0 60 29 101 89 101 43 0 62-24 78-52l27 14C228-24 195 4 139 4 59 4 22-46 18-125c-6-104 99-153 187-111 19 9 31 26 39 46" id="i"/><use transform="matrix(0.06172839506172839,0,0,0.06172839506172839,0,0)" xlink:href="#i" id="c"/><path fill="#3a414a" d="M33 0v-248h34V0H33" id="j"/><g id="d"><use transform="matrix(0.06172839506172839,0,0,0.06172839506172839,0,0)" xlink:href="#j"/><use transform="matrix(0.06172839506172839,0,0,0.06172839506172839,6.172839506172839,0)" xlink:href="#i"/></g><path fill="#3a414a" d="M133-34C117-15 103 5 69 4 32 3 11-16 11-54c-1-60 55-63 116-61 1-26-3-47-28-47-18 1-26 9-28 27l-52-2c7-38 36-58 82-57s74 22 75 68l1 82c-1 14 12 18 25 15v27c-30 8-71 5-69-32zm-48 3c29 0 43-24 42-57-32 0-66-3-65 30 0 17 8 27 23 27" id="k"/><path fill="#3a414a" d="M102-93c0 74-22 123-52 168H0C30 29 54-18 53-93c0-74-22-123-53-168h50c30 45 52 94 52 168" id="l"/><g id="e"><use transform="matrix(0.06172839506172839,0,0,0.06172839506172839,0,0)" xlink:href="#k"/><use transform="matrix(0.06172839506172839,0,0,0.06172839506172839,12.345679012345679,0)" xlink:href="#l"/></g><path fill="#3a414a" d="M135-194c52 0 70 43 70 98 0 56-19 99-73 100-30 1-46-15-58-35L72 0H24l1-261h50v104c11-23 29-37 60-37zM114-30c31 0 40-27 40-66 0-37-7-63-39-63s-41 28-41 65c0 36 8 64 40 64" id="m"/><g id="f"><use transform="matrix(0.06172839506172839,0,0,0.06172839506172839,0,0)" xlink:href="#m"/><use transform="matrix(0.06172839506172839,0,0,0.06172839506172839,13.518518518518517,0)" xlink:href="#l"/></g></defs></g></svg>