<svg xmlns="http://www.w3.org/2000/svg" xmlns:xlink="http://www.w3.org/1999/xlink" xmlns:lucid="lucid" width="821" height="500"><g transform="translate(-640 -340)" lucid:page-tab-id="0_0"><path d="M500 0h1000v1000H500z" fill="#fff"/><path d="M640 346a6 6 0 0 1 6-6h428a6 6 0 0 1 6 6v488a6 6 0 0 1-6 6H646a6 6 0 0 1-6-6z" stroke="#000" stroke-opacity="0" stroke-width="2" fill="#f2f3f5"/><path d="M711.25 720c-8.84 0-16 7.16-16 16v48c0 8.84 7.16 16 16 16h128c8.84 0 16-7.16 16-16v-48c0-8.84-7.16-16-16-16z" stroke="#282c33" stroke-width="2" fill="#fff"/><use xlink:href="#a" transform="matrix(1,0,0,1,703.25,728) translate(22.648148148148145 36.44444444444444)"/><use xlink:href="#b" transform="matrix(1,0,0,1,703.25,728) translate(109.00617283950618 36.44444444444444)"/><path d="M900.75 720c-8.84 0-16 7.16-16 16v48c0 8.84 7.16 16 16 16h128c8.84 0 16-7.16 16-16v-48c0-8.84-7.16-16-16-16z" stroke="#282c33" stroke-width="2" fill="#fff"/><use xlink:href="#a" transform="matrix(1,0,0,1,892.75,728) translate(22.648148148148145 36.44444444444444)"/><use xlink:href="#c" transform="matrix(1,0,0,1,892.75,728) translate(109.00617283950618 36.44444444444444)"/><path d="M780 380c-11.05 0-20 8.95-20 20v60c0 11.05 8.95 20 20 20h180c11.05 0 20-8.95 20-20v-60c0-11.05-8.95-20-20-20z" stroke="#282c33" stroke-width="2" fill="#fff"/><path d="M760 424h220" stroke="#282c33" stroke-width="2" fill="none"/><use xlink:href="#d" transform="matrix(1,0,0,1,804,380) translate(13.68518518518519 26.444444444444443)"/><use xlink:href="#e" transform="matrix(1,0,0,1,804,380) translate(105.96913580246913 26.444444444444443)"/><use xlink:href="#f" transform="matrix(1,0,0,1,782,440) translate(54.358024691358025 17.77777777777778)"/><path d="M853.94 615.15L775.8 718.28" stroke="#3a414a" fill="none"/><path d="M854.24 614.75l.1.67-.03.03-.75-.58.82-1.07z" stroke="#3a414a" stroke-width=".05" fill="#3a414a"/><path d="M778.13 698.35l-2.3 19.87 18.52-7.58" stroke="#3a414a" fill="none"/><use xlink:href="#g" transform="matrix(1,0,0,1,760.3985800272704,646.0939439002733) translate(0.004999999999999005 14.222222222222223)"/><path d="M884.75 614.75c0 8.15-6.6 14.75-14.75 14.75s-14.75-6.6-14.75-14.75S861.85 600 870 600s14.75 6.6 14.75 14.75z" stroke="#282c33" stroke-width="2"/><path d="M886.06 615.15l78.14 103.13" stroke="#3a414a" fill="none"/><path d="M886.45 614.87l-.76.58-.03-.03.1-.67-.14-.95z" stroke="#3a414a" stroke-width=".05" fill="#3a414a"/><path d="M945.65 710.64l18.5 7.58-2.27-19.87" stroke="#3a414a" fill="none"/><use xlink:href="#h" transform="matrix(1,0,0,1,931.3307225636781,650.9503135393899) translate(0.004999999999999005 14.222222222222223)"/><path d="M868.56 481.5V598.27" stroke="#3a414a" fill="none"/><path d="M869.04 481.5h-.95v-.5h.94z" stroke="#3a414a" stroke-width=".05" fill="#3a414a"/><path d="M858.4 580.98l10.17 17.22 10.18-17.22" stroke="#3a414a" fill="none"/><use xlink:href="#i" transform="matrix(1,0,0,1,812.7111167222401,529.4235930920264) translate(0.004999999999999005 14.222222222222223)"/><path d="M1116 720c-8.84 0-16 7.16-16 16v48c0 8.84 7.16 16 16 16h128c8.84 0 16-7.16 16-16v-48c0-8.84-7.16-16-16-16z" stroke="#282c33" stroke-width="2" fill="#fff"/><use xlink:href="#a" transform="matrix(1,0,0,1,1108,728) translate(22.648148148148145 36.44444444444444)"/><use xlink:href="#b" transform="matrix(1,0,0,1,1108,728) translate(109.00617283950618 36.44444444444444)"/><path d="M1316 720c-8.84 0-16 7.16-16 16v48c0 8.84 7.16 16 16 16h128c8.84 0 16-7.16 16-16v-48c0-8.84-7.16-16-16-16z" stroke="#282c33" stroke-width="2" fill="#fff"/><use xlink:href="#a" transform="matrix(1,0,0,1,1308,728) translate(22.648148148148145 36.44444444444444)"/><use xlink:href="#c" transform="matrix(1,0,0,1,1308,728) translate(109.00617283950618 36.44444444444444)"/><path d="M1184.75 380c-11.05 0-20 8.95-20 20v60c0 11.05 8.95 20 20 20h180c11.05 0 20-8.95 20-20v-60c0-11.05-8.95-20-20-20z" stroke="#282c33" stroke-width="2" fill="#fff"/><path d="M1164.75 424h220" stroke="#282c33" stroke-width="2" fill="none"/><use xlink:href="#d" transform="matrix(1,0,0,1,1208.75,380) translate(13.68518518518519 26.444444444444443)"/><use xlink:href="#e" transform="matrix(1,0,0,1,1208.75,380) translate(105.96913580246913 26.444444444444443)"/><use xlink:href="#f" transform="matrix(1,0,0,1,1186.75,440) translate(54.358024691358025 17.77777777777778)"/><path d="M1255.94 615.15l-75.4 103.12" stroke="#3a414a" fill="none"/><path d="M1256.23 614.75l.06.67-.75-.54.75-1.03z" stroke="#3a414a" stroke-width=".05" fill="#3a414a"/><path d="M1182.52 698.3l-1.94 19.9 18.38-7.88" stroke="#3a414a" fill="none"/><use xlink:href="#g" transform="matrix(1,0,0,1,1163.514155075553,646.2380942784733) translate(0.004999999999999005 14.222222222222223)"/><path d="M1293.6 615.13l85.82 103.17" stroke="#3a414a" fill="none"/><path d="M1293.96 614.84l-.73.6h-.02l.07-.7-.07-.8z" stroke="#3a414a" stroke-width=".05" fill="#3a414a"/><path d="M1360.54 711.52l18.83 6.73-3.18-19.75" stroke="#3a414a" fill="none"/><use xlink:href="#h" transform="matrix(1,0,0,1,1342.3603499108879,650.5098500642811) translate(0.004999999999999005 14.222222222222223)"/><path d="M1270.5 599a6 6 0 0 1 8.5 0l11.5 11.5a6 6 0 0 1 0 8.5l-11.5 11.5a6 6 0 0 1-8.5 0L1259 619a6 6 0 0 1 0-8.5z" stroke="#282c33" stroke-width="2" fill="#fff"/><path d="M1274.75 481.5v113.82" stroke="#3a414a" fill="none"/><path d="M1275.22 481.5h-.94v-.5h.94z" stroke="#3a414a" stroke-width=".05" fill="#3a414a"/><path d="M1264.57 578.03l10.18 17.22 10.18-17.22" stroke="#3a414a" fill="none"/><g><use xlink:href="#j" transform="matrix(1,0,0,1,1218.8981481481483,527.949443205301) translate(0.004999999999999005 14.222222222222223)"/></g><defs><path fill="#3a414a" d="M209 0H11v-25l151-195H24v-28h176v25L50-27h159V0" id="k"/><path fill="#3a414a" d="M84 4C-5 8 30-112 23-190h32v120c0 31 7 50 39 49 72-2 45-101 50-169h31l1 190h-30c-1-10 1-25-2-33-11 22-28 36-60 37" id="l"/><path fill="#3a414a" d="M135-143c-3-34-86-38-87 0 15 53 115 12 119 90S17 21 10-45l28-5c4 36 97 45 98 0-10-56-113-15-118-90-4-57 82-63 122-42 12 7 21 19 24 35" id="m"/><path fill="#3a414a" d="M59-47c-2 24 18 29 38 22v24C64 9 27 4 27-40v-127H5v-23h24l9-43h21v43h35v23H59v120" id="n"/><path fill="#3a414a" d="M141-36C126-15 110 5 73 4 37 3 15-17 15-53c-1-64 63-63 125-63 3-35-9-54-41-54-24 1-41 7-42 31l-33-3c5-37 33-52 76-52 45 0 72 20 72 64v82c-1 20 7 32 28 27v20c-31 9-61-2-59-35zM48-53c0 20 12 33 32 33 41-3 63-29 60-74-43 2-92-5-92 41" id="o"/><path fill="#3a414a" d="M117-194c89-4 53 116 60 194h-32v-121c0-31-8-49-39-48C34-167 62-67 57 0H25l-1-190h30c1 10-1 24 2 32 11-22 29-35 61-36" id="p"/><path fill="#3a414a" d="M85-194c31 0 48 13 60 33l-1-100h32l1 261h-30c-2-10 0-23-3-31C134-8 116 4 85 4 32 4 16-35 15-94c0-66 23-100 70-100zm9 24c-40 0-46 34-46 75 0 40 6 74 45 74 42 0 51-32 51-76 0-42-9-74-50-73" id="q"/><g id="a"><use transform="matrix(0.06172839506172839,0,0,0.06172839506172839,0,0)" xlink:href="#k"/><use transform="matrix(0.06172839506172839,0,0,0.06172839506172839,13.518518518518517,0)" xlink:href="#l"/><use transform="matrix(0.06172839506172839,0,0,0.06172839506172839,25.864197530864196,0)" xlink:href="#m"/><use transform="matrix(0.06172839506172839,0,0,0.06172839506172839,36.9753086419753,0)" xlink:href="#n"/><use transform="matrix(0.06172839506172839,0,0,0.06172839506172839,43.148148148148145,0)" xlink:href="#o"/><use transform="matrix(0.06172839506172839,0,0,0.06172839506172839,55.49382716049382,0)" xlink:href="#p"/><use transform="matrix(0.06172839506172839,0,0,0.06172839506172839,67.8395061728395,0)" xlink:href="#q"/></g><path fill="#3a414a" d="M101-251c82-7 93 87 43 132L82-64C71-53 59-42 53-27h129V0H18c2-99 128-94 128-182 0-28-16-43-45-43s-46 15-49 41l-32-3c6-41 34-60 81-64" id="r"/><use transform="matrix(0.06172839506172839,0,0,0.06172839506172839,0,0)" xlink:href="#r" id="b"/><path fill="#3a414a" d="M126-127c33 6 58 20 58 59 0 88-139 92-164 29-3-8-5-16-6-25l32-3c6 27 21 44 54 44 32 0 52-15 52-46 0-38-36-46-79-43v-28c39 1 72-4 72-42 0-27-17-43-46-43-28 0-47 15-49 41l-32-3c6-42 35-63 81-64 48-1 79 21 79 65 0 36-21 52-52 59" id="s"/><use transform="matrix(0.06172839506172839,0,0,0.06172839506172839,0,0)" xlink:href="#s" id="c"/><path fill="#3a414a" d="M210 0H11v-37l134-170H24v-41h178v36L68-41h142V0" id="t"/><path fill="#3a414a" d="M85 4C-2 5 27-109 22-190h50c7 57-23 150 33 157 60-5 35-97 40-157h50l1 190h-47c-2-12 1-28-3-38-12 25-28 42-61 42" id="u"/><path fill="#3a414a" d="M137-138c1-29-70-34-71-4 15 46 118 7 119 86 1 83-164 76-172 9l43-7c4 19 20 25 44 25 33 8 57-30 24-41C81-84 22-81 20-136c-2-80 154-74 161-7" id="v"/><path fill="#3a414a" d="M115-3C79 11 28 4 28-45v-112H4v-33h27l15-45h31v45h36v33H77v99c-1 23 16 31 38 25v30" id="w"/><path fill="#3a414a" d="M133-34C117-15 103 5 69 4 32 3 11-16 11-54c-1-60 55-63 116-61 1-26-3-47-28-47-18 1-26 9-28 27l-52-2c7-38 36-58 82-57s74 22 75 68l1 82c-1 14 12 18 25 15v27c-30 8-71 5-69-32zm-48 3c29 0 43-24 42-57-32 0-66-3-65 30 0 17 8 27 23 27" id="x"/><path fill="#3a414a" d="M135-194c87-1 58 113 63 194h-50c-7-57 23-157-34-157-59 0-34 97-39 157H25l-1-190h47c2 12-1 28 3 38 12-26 28-41 61-42" id="y"/><path fill="#3a414a" d="M88-194c31-1 46 15 58 34l-1-101h50l1 261h-48c-2-10 0-23-3-31C134-8 116 4 84 4 32 4 16-41 15-95c0-56 19-97 73-99zm17 164c33 0 40-30 41-66 1-37-9-64-41-64s-38 30-39 65c0 43 13 65 39 65" id="z"/><g id="d"><use transform="matrix(0.06172839506172839,0,0,0.06172839506172839,0,0)" xlink:href="#t"/><use transform="matrix(0.06172839506172839,0,0,0.06172839506172839,13.518518518518517,0)" xlink:href="#u"/><use transform="matrix(0.06172839506172839,0,0,0.06172839506172839,27.037037037037035,0)" xlink:href="#v"/><use transform="matrix(0.06172839506172839,0,0,0.06172839506172839,39.382716049382715,0)" xlink:href="#w"/><use transform="matrix(0.06172839506172839,0,0,0.06172839506172839,46.72839506172839,0)" xlink:href="#x"/><use transform="matrix(0.06172839506172839,0,0,0.06172839506172839,59.07407407407407,0)" xlink:href="#y"/><use transform="matrix(0.06172839506172839,0,0,0.06172839506172839,72.59259259259258,0)" xlink:href="#z"/></g><path fill="#3a414a" d="M23 0v-37h61v-169l-59 37v-38l62-41h46v211h57V0H23" id="A"/><use transform="matrix(0.06172839506172839,0,0,0.06172839506172839,0,0)" xlink:href="#A" id="e"/><path fill="#3a414a" d="M100-194c62-1 85 37 85 99 1 63-27 99-86 99S16-35 15-95c0-66 28-99 85-99zM99-20c44 1 53-31 53-75 0-43-8-75-51-75s-53 32-53 75 10 74 51 75" id="B"/><path fill="#3a414a" d="M0 4l72-265h28L28 4H0" id="C"/><path fill="#3a414a" d="M141 0L90-78 38 0H4l68-98-65-92h35l48 74 47-74h35l-64 92 68 98h-35" id="D"/><path fill="#3a414a" d="M18-150v-26h174v26H18zm0 90v-26h174v26H18" id="E"/><path fill="#3a414a" d="M27 0v-27h64v-190l-56 39v-29l58-41h29v221h61V0H27" id="F"/><g id="f"><use transform="matrix(0.06172839506172839,0,0,0.06172839506172839,0,0)" xlink:href="#q"/><use transform="matrix(0.06172839506172839,0,0,0.06172839506172839,12.345679012345679,0)" xlink:href="#B"/><use transform="matrix(0.06172839506172839,0,0,0.06172839506172839,24.691358024691358,0)" xlink:href="#C"/><use transform="matrix(0.06172839506172839,0,0,0.06172839506172839,30.864197530864196,0)" xlink:href="#D"/><use transform="matrix(0.06172839506172839,0,0,0.06172839506172839,41.9753086419753,0)" xlink:href="#E"/><use transform="matrix(0.06172839506172839,0,0,0.06172839506172839,54.938271604938265,0)" xlink:href="#F"/></g><path fill="#333" d="M20 75v-336h95v34H67V41h48v34H20" id="G"/><path fill="#333" d="M144 0l-44-69L55 0H2l70-98-66-92h53l41 62 40-62h54l-67 91 71 99h-54" id="H"/><path fill="#333" d="M15-91v-56l181-69v40L49-119l147 57v40" id="I"/><path fill="#333" d="M15-148v-39h180v39H15zm0 97v-39h180v39H15" id="J"/><path fill="#333" d="M101-251c68 0 84 54 84 127C185-50 166 4 99 4S15-52 14-124c-1-75 17-127 87-127zm-1 216c37-5 36-46 36-89s4-89-36-89c-39 0-36 45-36 89 0 43-3 85 36 89" id="K"/><path fill="#333" d="M4 75V41h49v-268H4v-34h96V75H4" id="L"/><g id="g"><use transform="matrix(0.04938271604938272,0,0,0.04938271604938272,0,0)" xlink:href="#G"/><use transform="matrix(0.04938271604938272,0,0,0.04938271604938272,5.8765432098765435,0)" xlink:href="#H"/><use transform="matrix(0.04938271604938272,0,0,0.04938271604938272,15.753086419753087,0)" xlink:href="#I"/><use transform="matrix(0.04938271604938272,0,0,0.04938271604938272,26.123456790123466,0)" xlink:href="#J"/><use transform="matrix(0.04938271604938272,0,0,0.04938271604938272,36.49382716049384,0)" xlink:href="#K"/><use transform="matrix(0.04938271604938272,0,0,0.04938271604938272,46.37037037037038,0)" xlink:href="#L"/></g><path fill="#333" d="M15-22v-40l146-57-146-57v-40l181 69v56" id="M"/><g id="h"><use transform="matrix(0.04938271604938272,0,0,0.04938271604938272,0,0)" xlink:href="#G"/><use transform="matrix(0.04938271604938272,0,0,0.04938271604938272,5.8765432098765435,0)" xlink:href="#H"/><use transform="matrix(0.04938271604938272,0,0,0.04938271604938272,15.753086419753087,0)" xlink:href="#M"/><use transform="matrix(0.04938271604938272,0,0,0.04938271604938272,26.123456790123466,0)" xlink:href="#K"/><use transform="matrix(0.04938271604938272,0,0,0.04938271604938272,36.00000000000001,0)" xlink:href="#L"/></g><path fill="#333" d="M4 7l51-268h42L46 7H4" id="N"/><path fill="#333" d="M86-200l42-18 12 35-44 11 32 37-32 21-26-44-26 44-32-21 33-37-44-11 12-35 42 18-3-48h38" id="O"/><path fill="#333" d="M14-72v-43h91v43H14" id="P"/><path fill="#333" d="M23 0v-37h61v-169l-59 37v-38l62-41h46v211h57V0H23" id="Q"/><g id="i"><use transform="matrix(0.04938271604938272,0,0,0.04938271604938272,0,0)" xlink:href="#N"/><use transform="matrix(0.04938271604938272,0,0,0.04938271604938272,4.938271604938272,0)" xlink:href="#H"/><use transform="matrix(0.04938271604938272,0,0,0.04938271604938272,14.814814814814817,0)" xlink:href="#O"/><use transform="matrix(0.04938271604938272,0,0,0.04938271604938272,21.7283950617284,0)" xlink:href="#J"/><use transform="matrix(0.04938271604938272,0,0,0.04938271604938272,32.09876543209877,0)" xlink:href="#P"/><use transform="matrix(0.04938271604938272,0,0,0.04938271604938272,37.97530864197532,0)" xlink:href="#Q"/></g><path fill="#3a414a" d="M4 7l51-268h42L46 7H4" id="R"/><path fill="#3a414a" d="M144 0l-44-69L55 0H2l70-98-66-92h53l41 62 40-62h54l-67 91 71 99h-54" id="S"/><path fill="#3a414a" d="M86-200l42-18 12 35-44 11 32 37-32 21-26-44-26 44-32-21 33-37-44-11 12-35 42 18-3-48h38" id="T"/><path fill="#3a414a" d="M15-148v-39h180v39H15zm0 97v-39h180v39H15" id="U"/><path fill="#3a414a" d="M14-72v-43h91v43H14" id="V"/><g id="j"><use transform="matrix(0.04938271604938272,0,0,0.04938271604938272,0,0)" xlink:href="#R"/><use transform="matrix(0.04938271604938272,0,0,0.04938271604938272,4.938271604938272,0)" xlink:href="#S"/><use transform="matrix(0.04938271604938272,0,0,0.04938271604938272,14.814814814814817,0)" xlink:href="#T"/><use transform="matrix(0.04938271604938272,0,0,0.04938271604938272,21.7283950617284,0)" xlink:href="#U"/><use transform="matrix(0.04938271604938272,0,0,0.04938271604938272,32.09876543209877,0)" xlink:href="#V"/><use transform="matrix(0.04938271604938272,0,0,0.04938271604938272,37.97530864197532,0)" xlink:href="#A"/></g></defs></g></svg>