<svg xmlns="http://www.w3.org/2000/svg" xmlns:xlink="http://www.w3.org/1999/xlink" xmlns:lucid="lucid" width="226.67" height="90.67"><g transform="translate(-394.33333328208505 -390.3333333148583)" lucid:page-tab-id="0_0"><path d="M0 0h1000v500H0z" fill="#fff"/><path d="M395.33 397.33a6 6 0 0 1 6-6H564a6 6 0 0 1 6 6v8a14.48 14.48 0 0 1-4.24 10.25l-1.52 1.5a14.48 14.48 0 0 1-10.24 4.25H401.33a6 6 0 0 1-6-6z" fill="#fff"/><path d="M570 391.33v20l-10 10H395.33" stroke="#282c33" stroke-width="2" fill="none"/><path d="M395.33 397.33a6 6 0 0 1 6-6H614a6 6 0 0 1 6 6V474a6 6 0 0 1-6 6H401.33a6 6 0 0 1-6-6z" stroke="#282c33" stroke-width="2" fill="none"/><use xlink:href="#a" transform="matrix(1,0,0,1,403.33333333333337,391.33333333333337) translate(0 19.444444444444443)"/><use xlink:href="#b" transform="matrix(1,0,0,1,403.33333333333337,391.33333333333337) translate(52.901234567901234 19.444444444444443)"/><use xlink:href="#c" transform="matrix(1,0,0,1,403.33333333333337,391.33333333333337) translate(63.95061728395062 19.444444444444443)"/><use xlink:href="#d" transform="matrix(1,0,0,1,403.33333333333337,391.33333333333337) translate(83.08641975308642 19.444444444444443)"/><defs><path fill="#3a414a" d="M25 0v-261h50V0H25" id="e"/><path fill="#3a414a" d="M110-194c64 0 96 36 96 99 0 64-35 99-97 99-61 0-95-36-95-99 0-62 34-99 96-99zm-1 164c35 0 45-28 45-65 0-40-10-65-43-65-34 0-45 26-45 65 0 36 10 65 43 65" id="f"/><path fill="#3a414a" d="M135-194c53 0 70 44 70 98 0 56-19 98-73 100-31 1-45-17-59-34 3 33 2 69 2 105H25l-1-265h48c2 10 0 23 3 31 11-24 29-35 60-35zM114-30c33 0 39-31 40-66 0-38-9-64-40-64-56 0-55 130 0 130" id="g"/><g id="a"><use transform="matrix(0.06172839506172839,0,0,0.06172839506172839,0,0)" xlink:href="#e"/><use transform="matrix(0.06172839506172839,0,0,0.06172839506172839,6.172839506172839,0)" xlink:href="#f"/><use transform="matrix(0.06172839506172839,0,0,0.06172839506172839,19.691358024691358,0)" xlink:href="#f"/><use transform="matrix(0.06172839506172839,0,0,0.06172839506172839,33.20987654320987,0)" xlink:href="#g"/></g><path fill="#3a414a" d="M24-231v-30h32v30H24zM24 0v-190h32V0H24" id="h"/><use transform="matrix(0.06172839506172839,0,0,0.06172839506172839,0,0)" xlink:href="#h" id="b"/><path fill="#3a414a" d="M18-100v-36l175-74v27L42-118l151 64v27" id="i"/><use transform="matrix(0.06172839506172839,0,0,0.06172839506172839,0,0)" xlink:href="#i" id="c"/><path fill="#3a414a" d="M27 0v-27h64v-190l-56 39v-29l58-41h29v221h61V0H27" id="j"/><path fill="#3a414a" d="M101-251c68 0 85 55 85 127S166 4 100 4C33 4 14-52 14-124c0-73 17-127 87-127zm-1 229c47 0 54-49 54-102s-4-102-53-102c-51 0-55 48-55 102 0 53 5 102 54 102" id="k"/><g id="d"><use transform="matrix(0.06172839506172839,0,0,0.06172839506172839,0,0)" xlink:href="#j"/><use transform="matrix(0.06172839506172839,0,0,0.06172839506172839,12.345679012345679,0)" xlink:href="#k"/></g></defs></g></svg>