<svg xmlns="http://www.w3.org/2000/svg" xmlns:xlink="http://www.w3.org/1999/xlink" xmlns:lucid="lucid" width="162" height="254.67"><g transform="translate(-838.99999994222 -478.9999999734525)" lucid:page-tab-id="0_0"><path d="M500 0h500v1000H500z" fill="#fff"/><path d="M840 486a6 6 0 0 1 6-6h148a6 6 0 0 1 6 6v68a6 6 0 0 1-6 6H846a6 6 0 0 1-6-6z" stroke="#282c33" stroke-width="2" fill="#fff"/><use xlink:href="#a" transform="matrix(1,0,0,1,852,492) translate(57.50617283950618 31.77777777777778)"/><path d="M920 561.5v9.54m0 9.53v19.08m0 9.53v19.08m0 9.54v19.07m0 9.54v19.08m0 9.54v19.07m0 9.53v9.54" stroke="#3a414a" fill="none"/><path d="M920.48 561.5h-.96v-.5h.96z" stroke="#3a414a" stroke-width=".05" fill="#3a414a"/><path d="M920 733.15v.52" stroke="#3a414a" fill="none"/><path d="M955 600c13.07 0 23.67 10.6 23.67 23.67 0 13.07-10.6 23.66-23.67 23.66h-71.33c-13.07 0-23.67-10.6-23.67-23.66 0-13.07 10.6-23.67 23.67-23.67z" stroke="#282c33" stroke-width="2" fill="#fff"/><use xlink:href="#b" transform="matrix(1,0,0,1,865,605) translate(32.925925925925924 22.52777777777778)"/><defs><path fill="#3a414a" d="M33-154v-36h34v36H33zM33 0v-36h34V0H33" id="c"/><path fill="#3a414a" d="M137-103V0h-34v-103L8-248h37l75 118 75-118h37" id="d"/><g id="a"><use transform="matrix(0.06172839506172839,0,0,0.06172839506172839,0,0)" xlink:href="#c"/><use transform="matrix(0.06172839506172839,0,0,0.06172839506172839,6.172839506172839,0)" xlink:href="#d"/></g><path fill="#3a414a" d="M24-231v-30h32v30H24zM24 0v-190h32V0H24" id="e"/><path fill="#3a414a" d="M18-150v-26h174v26H18zm0 90v-26h174v26H18" id="f"/><path fill="#3a414a" d="M101-251c68 0 85 55 85 127S166 4 100 4C33 4 14-52 14-124c0-73 17-127 87-127zm-1 229c47 0 54-49 54-102s-4-102-53-102c-51 0-55 48-55 102 0 53 5 102 54 102" id="g"/><g id="b"><use transform="matrix(0.06172839506172839,0,0,0.06172839506172839,0,0)" xlink:href="#e"/><use transform="matrix(0.06172839506172839,0,0,0.06172839506172839,4.876543209876543,0)" xlink:href="#f"/><use transform="matrix(0.06172839506172839,0,0,0.06172839506172839,17.839506172839506,0)" xlink:href="#f"/><use transform="matrix(0.06172839506172839,0,0,0.06172839506172839,30.80246913580247,0)" xlink:href="#g"/></g></defs></g></svg>